<svg width="362" height="158" viewBox="0 0 362 158" fill="none" xmlns="http://www.w3.org/2000/svg">
<g filter="url(#filter0_d_49_280)">
<path d="M80.4285 73.7195H76.9058L74.923 85H72.151L74.1338 73.7195H70.611L71.0538 71.14H80.8713L80.4285 73.7195ZM82.8082 71.14H91.7209L91.2589 73.758H85.1182L84.6177 76.607H89.5842L89.1222 79.225H84.1557L83.6167 82.382H89.7574L89.2954 85H80.3827L82.8082 71.14ZM94.1063 71.14H100.959C101.755 71.14 102.371 71.4095 102.807 71.9485C103.244 72.4747 103.391 73.1484 103.25 73.9697L102.673 77.223C102.416 78.6218 101.639 79.4752 100.343 79.7832L101.691 85H98.784L97.5135 79.8602H95.3575L94.4528 85H91.6808L94.1063 71.14ZM100.016 76.53L100.401 74.3162C100.44 74.0981 100.427 73.9505 100.363 73.8735C100.311 73.7965 100.183 73.758 99.9775 73.758H96.4163L95.8003 77.2807H99.169C99.631 77.2807 99.9134 77.0305 100.016 76.53ZM119.395 71.14L116.969 85H114.351L116.007 75.76L111.887 82.7862H109.962L108.23 75.76L106.574 85H103.956L106.382 71.14H109.346L111.348 79.3405L116.238 71.14H119.395ZM128.117 75.4135L128.328 74.2392C128.367 74.0211 128.354 73.8735 128.29 73.7965C128.239 73.7195 128.117 73.681 127.924 73.681H125.229C124.741 73.681 124.459 73.9312 124.382 74.4317L124.151 75.7792C124.125 75.9717 124.138 76.1065 124.19 76.1835C124.254 76.2477 124.382 76.3054 124.575 76.3567L127.943 77.1267C128.778 77.3321 129.406 77.6786 129.83 78.1662C130.253 78.6539 130.395 79.2571 130.253 79.9757L129.811 82.4397C129.669 83.2482 129.323 83.8899 128.771 84.3648C128.219 84.8396 127.552 85.077 126.769 85.077H122.515C121.719 85.077 121.103 84.8075 120.667 84.2685C120.243 83.7423 120.102 83.0686 120.243 82.2472L120.532 80.5725H123.227L122.996 81.9007C122.958 82.1189 122.964 82.2665 123.015 82.3435C123.08 82.4205 123.214 82.459 123.42 82.459H126.326C126.814 82.459 127.096 82.2087 127.173 81.7082L127.424 80.2067C127.449 80.0142 127.43 79.8859 127.366 79.8217C127.315 79.7447 127.193 79.6806 127 79.6292L123.631 78.8592C122.81 78.6667 122.188 78.3267 121.764 77.839C121.353 77.3385 121.212 76.7289 121.341 76.0102L121.745 73.7002C121.886 72.8917 122.233 72.2501 122.784 71.7752C123.336 71.3004 124.004 71.063 124.786 71.063H128.81C129.605 71.063 130.215 71.3325 130.638 71.8715C131.075 72.3977 131.222 73.0714 131.081 73.8927L130.812 75.4135H128.117ZM143.912 81.8815H139.561L138.137 85H135.153L141.929 71.14H145.163L147.107 85H144.258L143.912 81.8815ZM143.623 79.2635L143.065 74.1622L140.755 79.2635H143.623ZM159.222 71.14H161.821L159.396 85H156.527L153.197 75.5482L151.503 85H148.904L151.33 71.14H154.217L157.528 80.5917L159.222 71.14ZM164.79 71.14H171.797C172.593 71.14 173.209 71.4095 173.645 71.9485C174.081 72.4747 174.229 73.1484 174.088 73.9697L172.605 82.3627C172.464 83.1712 172.118 83.8129 171.566 84.2877C171.014 84.7626 170.347 85 169.564 85H162.364L164.79 71.14ZM165.598 82.382H169.121C169.57 82.382 169.846 82.1317 169.949 81.6312L171.239 74.3162C171.277 74.0981 171.264 73.9505 171.2 73.8735C171.149 73.7965 171.02 73.758 170.815 73.758H167.1L165.598 82.382ZM186.722 85.077H182.391C181.608 85.077 180.992 84.8075 180.543 84.2685C180.119 83.7423 179.978 83.0686 180.119 82.2472L181.621 73.7002C181.762 72.8917 182.108 72.2501 182.66 71.7752C183.212 71.3004 183.879 71.063 184.662 71.063H188.993C189.789 71.063 190.399 71.3325 190.822 71.8715C191.258 72.3977 191.406 73.0714 191.265 73.8927L190.899 76.0295H188.127L188.435 74.2392C188.474 74.0211 188.461 73.8735 188.397 73.7965C188.345 73.7195 188.217 73.681 188.012 73.681H185.105C184.643 73.681 184.36 73.9312 184.258 74.4317L182.949 81.9007C182.91 82.1189 182.917 82.2665 182.968 82.3435C183.032 82.4205 183.167 82.459 183.372 82.459H186.279C186.767 82.459 187.049 82.2087 187.126 81.7082L187.396 80.1105H190.168L189.763 82.4397C189.622 83.2482 189.276 83.8899 188.724 84.3648C188.172 84.8396 187.505 85.077 186.722 85.077ZM198.702 85.077H194.14C193.357 85.077 192.741 84.8075 192.292 84.2685C191.868 83.7423 191.727 83.0686 191.868 82.2472L193.37 73.7002C193.511 72.8917 193.857 72.2501 194.409 71.7752C194.961 71.3004 195.628 71.063 196.411 71.063H200.974C201.769 71.063 202.379 71.3325 202.802 71.8715C203.239 72.3977 203.386 73.0714 203.245 73.8927L201.744 82.4397C201.602 83.2482 201.256 83.8899 200.704 84.3648C200.152 84.8396 199.485 85.077 198.702 85.077ZM196.007 74.4317L194.698 81.9007C194.66 82.1189 194.666 82.2665 194.717 82.3435C194.781 82.4205 194.916 82.459 195.122 82.459H198.279C198.741 82.459 199.016 82.2087 199.106 81.7082L200.415 74.2392C200.454 74.0211 200.441 73.8735 200.377 73.7965C200.325 73.7195 200.204 73.681 200.011 73.681H196.854C196.392 73.681 196.11 73.9312 196.007 74.4317ZM214.04 71.14H216.639L214.213 85H211.345L208.015 75.5482L206.321 85H203.722L206.147 71.14H209.035L212.346 80.5917L214.04 71.14ZM219.607 71.14H226.614C227.41 71.14 228.026 71.4095 228.462 71.9485C228.899 72.4747 229.046 73.1484 228.905 73.9697L227.423 82.3627C227.282 83.1712 226.935 83.8129 226.383 84.2877C225.831 84.7626 225.164 85 224.381 85H217.182L219.607 71.14ZM220.416 82.382H223.938C224.388 82.382 224.664 82.1317 224.766 81.6312L226.056 74.3162C226.094 74.0981 226.082 73.9505 226.017 73.8735C225.966 73.7965 225.838 73.758 225.632 73.758H221.917L220.416 82.382ZM229.589 85L232.014 71.14H234.786L232.361 85H229.589ZM246.103 73.7195H242.58L240.597 85H237.825L239.808 73.7195H236.285L236.728 71.14H246.545L246.103 73.7195ZM246.057 85L248.482 71.14H251.254L248.829 85H246.057ZM258.99 85.077H254.428C253.645 85.077 253.029 84.8075 252.58 84.2685C252.156 83.7423 252.015 83.0686 252.156 82.2472L253.658 73.7002C253.799 72.8917 254.145 72.2501 254.697 71.7752C255.249 71.3004 255.916 71.063 256.699 71.063H261.261C262.057 71.063 262.667 71.3325 263.09 71.8715C263.526 72.3977 263.674 73.0714 263.533 73.8927L262.031 82.4397C261.89 83.2482 261.544 83.8899 260.992 84.3648C260.44 84.8396 259.773 85.077 258.99 85.077ZM256.295 74.4317L254.986 81.9007C254.947 82.1189 254.954 82.2665 255.005 82.3435C255.069 82.4205 255.204 82.459 255.409 82.459H258.566C259.028 82.459 259.304 82.2087 259.394 81.7082L260.703 74.2392C260.742 74.0211 260.729 73.8735 260.665 73.7965C260.613 73.7195 260.491 73.681 260.299 73.681H257.142C256.68 73.681 256.398 73.9312 256.295 74.4317ZM274.328 71.14H276.926L274.501 85H271.633L268.302 75.5482L266.608 85H264.01L266.435 71.14H269.323L272.634 80.5917L274.328 71.14ZM285.651 75.4135L285.863 74.2392C285.901 74.0211 285.888 73.8735 285.824 73.7965C285.773 73.7195 285.651 73.681 285.458 73.681H282.763C282.276 73.681 281.993 73.9312 281.916 74.4317L281.685 75.7792C281.66 75.9717 281.673 76.1065 281.724 76.1835C281.788 76.2477 281.916 76.3054 282.109 76.3567L285.478 77.1267C286.312 77.3321 286.941 77.6786 287.364 78.1662C287.788 78.6539 287.929 79.2571 287.788 79.9757L287.345 82.4397C287.204 83.2482 286.857 83.8899 286.305 84.3648C285.754 84.8396 285.086 85.077 284.303 85.077H280.049C279.253 85.077 278.637 84.8075 278.201 84.2685C277.778 83.7423 277.636 83.0686 277.778 82.2472L278.066 80.5725H280.761L280.53 81.9007C280.492 82.1189 280.498 82.2665 280.55 82.3435C280.614 82.4205 280.749 82.459 280.954 82.459H283.861C284.348 82.459 284.631 82.2087 284.708 81.7082L284.958 80.2067C284.984 80.0142 284.964 79.8859 284.9 79.8217C284.849 79.7447 284.727 79.6806 284.534 79.6292L281.166 78.8592C280.344 78.6667 279.722 78.3267 279.298 77.839C278.888 77.3385 278.747 76.7289 278.875 76.0102L279.279 73.7002C279.42 72.8917 279.767 72.2501 280.319 71.7752C280.87 71.3004 281.538 71.063 282.321 71.063H286.344C287.14 71.063 287.749 71.3325 288.173 71.8715C288.609 72.3977 288.757 73.0714 288.615 73.8927L288.346 75.4135H285.651Z" fill="white"/>
</g>
<path d="M29 85L49.373 57H315.084L330 72.2727L308.899 101H43.5522L29 85Z" stroke="white" stroke-opacity="0.5" stroke-width="0.804976"/>
<defs>
<filter id="filter0_d_49_280" x="0.493858" y="0.945518" width="360.787" height="156.586" filterUnits="userSpaceOnUse" color-interpolation-filters="sRGB">
<feFlood flood-opacity="0" result="BackgroundImageFix"/>
<feColorMatrix in="SourceAlpha" type="matrix" values="0 0 0 0 0 0 0 0 0 0 0 0 0 0 0 0 0 0 127 0" result="hardAlpha"/>
<feOffset dx="1.16862" dy="1.16862"/>
<feGaussianBlur stdDeviation="35.643"/>
<feComposite in2="hardAlpha" operator="out"/>
<feColorMatrix type="matrix" values="0 0 0 0 0 0 0 0 0 0 0 0 0 0 0 0 0 0 1 0"/>
<feBlend mode="normal" in2="BackgroundImageFix" result="effect1_dropShadow_49_280"/>
<feBlend mode="normal" in="SourceGraphic" in2="effect1_dropShadow_49_280" result="shape"/>
</filter>
</defs>
</svg>
