<svg width="223" height="40" viewBox="0 0 223 40" fill="none" xmlns="http://www.w3.org/2000/svg">
<g filter="url(#filter0_ii_28_13)">
<rect width="223" height="40" rx="16" fill="white"/>
<path d="M30.0304 25.196C29.2557 25.196 28.5371 25.0747 27.8744 24.832C27.2117 24.58 26.6377 24.2253 26.1524 23.768C25.6764 23.3107 25.3031 22.774 25.0324 22.158C24.7617 21.5327 24.6264 20.8467 24.6264 20.1C24.6264 19.3533 24.7617 18.672 25.0324 18.056C25.3031 17.4307 25.6811 16.8893 26.1664 16.432C26.6517 15.9747 27.2257 15.6247 27.8884 15.382C28.5604 15.13 29.2931 15.004 30.0864 15.004C31.0104 15.004 31.8364 15.158 32.5644 15.466C33.2924 15.774 33.8944 16.2173 34.3704 16.796L32.6064 18.392C32.2704 18.028 31.9064 17.7573 31.5144 17.58C31.1317 17.3933 30.7024 17.3 30.2264 17.3C29.8064 17.3 29.4237 17.3653 29.0784 17.496C28.7331 17.6267 28.4391 17.818 28.1964 18.07C27.9537 18.3127 27.7624 18.6067 27.6224 18.952C27.4917 19.288 27.4264 19.6707 27.4264 20.1C27.4264 20.5107 27.4917 20.8887 27.6224 21.234C27.7624 21.5793 27.9537 21.878 28.1964 22.13C28.4391 22.3727 28.7284 22.564 29.0644 22.704C29.4097 22.8347 29.7877 22.9 30.1984 22.9C30.6091 22.9 31.0104 22.8347 31.4024 22.704C31.7944 22.564 32.1911 22.3307 32.5924 22.004L34.1464 23.95C33.5864 24.3513 32.9377 24.6593 32.2004 24.874C31.4631 25.0887 30.7397 25.196 30.0304 25.196ZM31.6964 23.586V19.89H34.1464V23.95L31.6964 23.586ZM39.7538 25.126C38.8578 25.126 38.0738 24.958 37.4018 24.622C36.7392 24.2767 36.2212 23.81 35.8478 23.222C35.4838 22.6247 35.3018 21.948 35.3018 21.192C35.3018 20.436 35.4792 19.764 35.8338 19.176C36.1978 18.5787 36.6972 18.1167 37.3318 17.79C37.9665 17.454 38.6805 17.286 39.4738 17.286C40.2205 17.286 40.9018 17.44 41.5178 17.748C42.1338 18.0467 42.6238 18.49 42.9878 19.078C43.3518 19.666 43.5338 20.38 43.5338 21.22C43.5338 21.3133 43.5292 21.4207 43.5198 21.542C43.5105 21.6633 43.5012 21.7753 43.4918 21.878H37.4858V20.478H42.0778L41.0698 20.87C41.0792 20.5247 41.0138 20.226 40.8738 19.974C40.7432 19.722 40.5565 19.526 40.3138 19.386C40.0805 19.246 39.8052 19.176 39.4878 19.176C39.1705 19.176 38.8905 19.246 38.6478 19.386C38.4145 19.526 38.2325 19.7267 38.1018 19.988C37.9712 20.24 37.9058 20.5387 37.9058 20.884V21.29C37.9058 21.6633 37.9805 21.9853 38.1298 22.256C38.2885 22.5267 38.5125 22.7367 38.8018 22.886C39.0912 23.026 39.4365 23.096 39.8378 23.096C40.2112 23.096 40.5285 23.0447 40.7898 22.942C41.0605 22.83 41.3265 22.662 41.5878 22.438L42.9878 23.894C42.6238 24.2953 42.1758 24.6033 41.6438 24.818C41.1118 25.0233 40.4818 25.126 39.7538 25.126ZM47.5183 25.126C46.8743 25.126 46.2443 25.0513 45.6283 24.902C45.0216 24.7527 44.5316 24.566 44.1583 24.342L44.9563 22.522C45.3109 22.7367 45.7263 22.9093 46.2023 23.04C46.6783 23.1613 47.1449 23.222 47.6022 23.222C48.0503 23.222 48.3583 23.1753 48.5263 23.082C48.7036 22.9887 48.7923 22.8627 48.7923 22.704C48.7923 22.5547 48.7083 22.4473 48.5403 22.382C48.3816 22.3073 48.1669 22.2513 47.8963 22.214C47.6349 22.1767 47.3456 22.1347 47.0283 22.088C46.7109 22.0413 46.3889 21.9807 46.0623 21.906C45.7449 21.822 45.4509 21.7007 45.1803 21.542C44.9189 21.374 44.7089 21.15 44.5503 20.87C44.3916 20.59 44.3123 20.2353 44.3123 19.806C44.3123 19.3207 44.4523 18.8913 44.7323 18.518C45.0216 18.1353 45.4416 17.8367 45.9923 17.622C46.5429 17.398 47.2149 17.286 48.0083 17.286C48.5403 17.286 49.0769 17.342 49.6183 17.454C50.1689 17.5567 50.6309 17.7153 51.0043 17.93L50.2063 19.736C49.8329 19.5213 49.4596 19.3767 49.0863 19.302C48.7129 19.218 48.3583 19.176 48.0222 19.176C47.5743 19.176 47.2569 19.2273 47.0703 19.33C46.8929 19.4327 46.8043 19.5587 46.8043 19.708C46.8043 19.8573 46.8836 19.974 47.0423 20.058C47.2009 20.1327 47.4109 20.1933 47.6723 20.24C47.9429 20.2773 48.2369 20.3193 48.5543 20.366C48.8716 20.4033 49.1889 20.464 49.5063 20.548C49.8329 20.632 50.1269 20.758 50.3883 20.926C50.6589 21.0847 50.8736 21.304 51.0323 21.584C51.1909 21.8547 51.2703 22.2047 51.2703 22.634C51.2703 23.1007 51.1256 23.5207 50.8363 23.894C50.5563 24.2673 50.1363 24.566 49.5763 24.79C49.0256 25.014 48.3396 25.126 47.5183 25.126ZM56.2945 25.126C55.4545 25.126 54.7032 24.958 54.0405 24.622C53.3872 24.286 52.8738 23.824 52.5005 23.236C52.1272 22.6387 51.9405 21.9573 51.9405 21.192C51.9405 20.4267 52.1272 19.75 52.5005 19.162C52.8738 18.574 53.3872 18.1167 54.0405 17.79C54.7032 17.454 55.4545 17.286 56.2945 17.286C57.1532 17.286 57.8952 17.468 58.5205 17.832C59.1458 18.196 59.5892 18.7093 59.8505 19.372L57.7925 20.422C57.6152 20.0673 57.3958 19.8107 57.1345 19.652C56.8732 19.484 56.5885 19.4 56.2805 19.4C55.9725 19.4 55.6925 19.47 55.4405 19.61C55.1885 19.75 54.9878 19.9553 54.8385 20.226C54.6985 20.4873 54.6285 20.8093 54.6285 21.192C54.6285 21.584 54.6985 21.9153 54.8385 22.186C54.9878 22.4567 55.1885 22.662 55.4405 22.802C55.6925 22.942 55.9725 23.012 56.2805 23.012C56.5885 23.012 56.8732 22.9327 57.1345 22.774C57.3958 22.606 57.6152 22.3447 57.7925 21.99L59.8505 23.04C59.5892 23.7027 59.1458 24.216 58.5205 24.58C57.8952 24.944 57.1532 25.126 56.2945 25.126ZM65.7667 17.286C66.3547 17.286 66.8867 17.4073 67.3627 17.65C67.8387 17.8833 68.212 18.2473 68.4827 18.742C68.7627 19.2367 68.9027 19.876 68.9027 20.66V25H66.2427V21.094C66.2427 20.5527 66.1307 20.1607 65.9067 19.918C65.692 19.666 65.3887 19.54 64.9967 19.54C64.7167 19.54 64.46 19.6053 64.2267 19.736C63.9934 19.8573 63.8114 20.0487 63.6807 20.31C63.55 20.5713 63.4847 20.912 63.4847 21.332V25H60.8247V14.612H63.4847V19.568L62.8687 18.938C63.158 18.3873 63.5547 17.9767 64.0587 17.706C64.5627 17.426 65.132 17.286 65.7667 17.286ZM75.2068 25V23.586L75.0248 23.236V20.632C75.0248 20.212 74.8941 19.89 74.6328 19.666C74.3808 19.4327 73.9748 19.316 73.4147 19.316C73.0508 19.316 72.6821 19.3767 72.3088 19.498C71.9354 19.61 71.6181 19.7687 71.3568 19.974L70.4608 18.168C70.8901 17.888 71.4034 17.6733 72.0008 17.524C72.6074 17.3653 73.2094 17.286 73.8068 17.286C75.0388 17.286 75.9908 17.5707 76.6628 18.14C77.3441 18.7 77.6848 19.582 77.6848 20.786V25H75.2068ZM72.9668 25.126C72.3601 25.126 71.8468 25.0233 71.4268 24.818C71.0068 24.6127 70.6848 24.3327 70.4608 23.978C70.2461 23.6233 70.1388 23.2267 70.1388 22.788C70.1388 22.3213 70.2554 21.92 70.4888 21.584C70.7314 21.2387 71.1001 20.9773 71.5948 20.8C72.0894 20.6133 72.7288 20.52 73.5128 20.52H75.3048V21.906H73.8768C73.4474 21.906 73.1441 21.976 72.9668 22.116C72.7988 22.256 72.7148 22.4427 72.7148 22.676C72.7148 22.9093 72.8034 23.096 72.9808 23.236C73.1581 23.376 73.4008 23.446 73.7088 23.446C73.9981 23.446 74.2594 23.376 74.4928 23.236C74.7354 23.0867 74.9128 22.8627 75.0248 22.564L75.3888 23.544C75.2488 24.0667 74.9734 24.4633 74.5628 24.734C74.1614 24.9953 73.6294 25.126 72.9668 25.126ZM75.5848 16.516C75.2768 16.516 75.0154 16.418 74.8008 16.222C74.5861 16.0167 74.4788 15.7507 74.4788 15.424C74.4788 15.0973 74.5861 14.8313 74.8008 14.626C75.0154 14.4207 75.2768 14.318 75.5848 14.318C75.8928 14.318 76.1541 14.4207 76.3688 14.626C76.5834 14.8313 76.6908 15.0973 76.6908 15.424C76.6908 15.7507 76.5834 16.0167 76.3688 16.222C76.1541 16.418 75.8928 16.516 75.5848 16.516ZM72.6168 16.516C72.3088 16.516 72.0474 16.418 71.8328 16.222C71.6181 16.0167 71.5108 15.7507 71.5108 15.424C71.5108 15.0973 71.6181 14.8313 71.8328 14.626C72.0474 14.4207 72.3088 14.318 72.6168 14.318C72.9248 14.318 73.1861 14.4207 73.4008 14.626C73.6154 14.8313 73.7228 15.0973 73.7228 15.424C73.7228 15.7507 73.6154 16.0167 73.4008 16.222C73.1861 16.418 72.9248 16.516 72.6168 16.516ZM79.6718 25V17.496C79.6718 16.5813 79.9424 15.8533 80.4838 15.312C81.0344 14.7613 81.8184 14.486 82.8358 14.486C83.1624 14.486 83.4844 14.5187 83.8018 14.584C84.1191 14.6493 84.3851 14.7473 84.5998 14.878L83.9418 16.754C83.8298 16.6887 83.7038 16.6373 83.5638 16.6C83.4238 16.5533 83.2838 16.53 83.1438 16.53C82.8638 16.53 82.6444 16.614 82.4858 16.782C82.3364 16.9407 82.2618 17.188 82.2618 17.524V18.07L82.3318 19.176V25H79.6718ZM78.5658 19.68V17.692H84.0678V19.68H78.5658ZM88.4393 25.126C87.4686 25.126 86.7126 24.888 86.1713 24.412C85.6299 23.9267 85.3593 23.1987 85.3593 22.228V15.718H88.0193V22.2C88.0193 22.4707 88.0939 22.6853 88.2433 22.844C88.3926 22.9933 88.5839 23.068 88.8173 23.068C89.1346 23.068 89.4053 22.9887 89.6293 22.83L90.2873 24.692C90.0633 24.8413 89.7879 24.9487 89.4613 25.014C89.1346 25.0887 88.7939 25.126 88.4393 25.126ZM84.2533 19.68V17.692H89.7553V19.68H84.2533ZM94.071 25.126C93.427 25.126 92.797 25.0513 92.181 24.902C91.5743 24.7527 91.0843 24.566 90.711 24.342L91.509 22.522C91.8637 22.7367 92.279 22.9093 92.755 23.04C93.231 23.1613 93.6977 23.222 94.155 23.222C94.603 23.222 94.911 23.1753 95.079 23.082C95.2563 22.9887 95.345 22.8627 95.345 22.704C95.345 22.5547 95.261 22.4473 95.093 22.382C94.9343 22.3073 94.7197 22.2513 94.449 22.214C94.1877 22.1767 93.8983 22.1347 93.581 22.088C93.2637 22.0413 92.9417 21.9807 92.615 21.906C92.2977 21.822 92.0037 21.7007 91.733 21.542C91.4717 21.374 91.2617 21.15 91.103 20.87C90.9443 20.59 90.865 20.2353 90.865 19.806C90.865 19.3207 91.005 18.8913 91.285 18.518C91.5743 18.1353 91.9943 17.8367 92.545 17.622C93.0957 17.398 93.7677 17.286 94.561 17.286C95.093 17.286 95.6297 17.342 96.171 17.454C96.7217 17.5567 97.1837 17.7153 97.557 17.93L96.759 19.736C96.3857 19.5213 96.0123 19.3767 95.639 19.302C95.2657 19.218 94.911 19.176 94.575 19.176C94.127 19.176 93.8097 19.2273 93.623 19.33C93.4457 19.4327 93.357 19.5587 93.357 19.708C93.357 19.8573 93.4363 19.974 93.595 20.058C93.7537 20.1327 93.9637 20.1933 94.225 20.24C94.4957 20.2773 94.7897 20.3193 95.107 20.366C95.4243 20.4033 95.7417 20.464 96.059 20.548C96.3857 20.632 96.6797 20.758 96.941 20.926C97.2117 21.0847 97.4263 21.304 97.585 21.584C97.7437 21.8547 97.823 22.2047 97.823 22.634C97.823 23.1007 97.6783 23.5207 97.389 23.894C97.109 24.2673 96.689 24.566 96.129 24.79C95.5783 25.014 94.8923 25.126 94.071 25.126ZM103.743 25.126C103.062 25.126 102.493 24.986 102.035 24.706C101.587 24.426 101.251 23.9967 101.027 23.418C100.803 22.8393 100.691 22.0973 100.691 21.192C100.691 20.3053 100.808 19.5727 101.041 18.994C101.284 18.4153 101.634 17.986 102.091 17.706C102.549 17.426 103.099 17.286 103.743 17.286C104.434 17.286 105.059 17.4447 105.619 17.762C106.189 18.0793 106.637 18.532 106.963 19.12C107.299 19.6987 107.467 20.3893 107.467 21.192C107.467 22.004 107.299 22.704 106.963 23.292C106.637 23.8707 106.189 24.3233 105.619 24.65C105.059 24.9673 104.434 25.126 103.743 25.126ZM98.9692 25V14.612H101.629V18.686L101.489 21.192L101.503 23.698V25H98.9692ZM103.183 23.012C103.482 23.012 103.748 22.942 103.981 22.802C104.224 22.662 104.415 22.4567 104.555 22.186C104.705 21.906 104.779 21.5747 104.779 21.192C104.779 20.8093 104.705 20.4873 104.555 20.226C104.415 19.9553 104.224 19.75 103.981 19.61C103.748 19.47 103.482 19.4 103.183 19.4C102.885 19.4 102.614 19.47 102.371 19.61C102.138 19.75 101.947 19.9553 101.797 20.226C101.657 20.4873 101.587 20.8093 101.587 21.192C101.587 21.5747 101.657 21.906 101.797 22.186C101.947 22.4567 102.138 22.662 102.371 22.802C102.614 22.942 102.885 23.012 103.183 23.012ZM112.68 25.126C111.784 25.126 111 24.958 110.328 24.622C109.665 24.2767 109.147 23.81 108.774 23.222C108.41 22.6247 108.228 21.948 108.228 21.192C108.228 20.436 108.405 19.764 108.76 19.176C109.124 18.5787 109.623 18.1167 110.258 17.79C110.892 17.454 111.606 17.286 112.4 17.286C113.146 17.286 113.828 17.44 114.444 17.748C115.06 18.0467 115.55 18.49 115.914 19.078C116.278 19.666 116.46 20.38 116.46 21.22C116.46 21.3133 116.455 21.4207 116.446 21.542C116.436 21.6633 116.427 21.7753 116.418 21.878H110.412V20.478H115.004L113.996 20.87C114.005 20.5247 113.94 20.226 113.8 19.974C113.669 19.722 113.482 19.526 113.24 19.386C113.006 19.246 112.731 19.176 112.414 19.176C112.096 19.176 111.816 19.246 111.574 19.386C111.34 19.526 111.158 19.7267 111.028 19.988C110.897 20.24 110.832 20.5387 110.832 20.884V21.29C110.832 21.6633 110.906 21.9853 111.056 22.256C111.214 22.5267 111.438 22.7367 111.728 22.886C112.017 23.026 112.362 23.096 112.764 23.096C113.137 23.096 113.454 23.0447 113.716 22.942C113.986 22.83 114.252 22.662 114.514 22.438L115.914 23.894C115.55 24.2953 115.102 24.6033 114.57 24.818C114.038 25.0233 113.408 25.126 112.68 25.126ZM120.99 25.126C120.299 25.126 119.669 24.9673 119.1 24.65C118.54 24.3233 118.092 23.8707 117.756 23.292C117.42 22.704 117.252 22.004 117.252 21.192C117.252 20.3893 117.42 19.6987 117.756 19.12C118.092 18.532 118.54 18.0793 119.1 17.762C119.669 17.4447 120.299 17.286 120.99 17.286C121.643 17.286 122.194 17.426 122.642 17.706C123.099 17.986 123.445 18.4153 123.678 18.994C123.911 19.5727 124.028 20.3053 124.028 21.192C124.028 22.0973 123.916 22.8393 123.692 23.418C123.468 23.9967 123.132 24.426 122.684 24.706C122.236 24.986 121.671 25.126 120.99 25.126ZM121.55 23.012C121.849 23.012 122.115 22.942 122.348 22.802C122.591 22.662 122.782 22.4567 122.922 22.186C123.062 21.906 123.132 21.5747 123.132 21.192C123.132 20.8093 123.062 20.4873 122.922 20.226C122.782 19.9553 122.591 19.75 122.348 19.61C122.115 19.47 121.849 19.4 121.55 19.4C121.242 19.4 120.967 19.47 120.724 19.61C120.491 19.75 120.304 19.9553 120.164 20.226C120.024 20.4873 119.954 20.8093 119.954 21.192C119.954 21.5747 120.024 21.906 120.164 22.186C120.304 22.4567 120.491 22.662 120.724 22.802C120.967 22.942 121.242 23.012 121.55 23.012ZM123.216 25V23.698L123.23 21.192L123.09 18.686V14.612H125.75V25H123.216ZM127.461 25V17.412H130.121V25H127.461ZM128.791 16.572C128.306 16.572 127.914 16.4367 127.615 16.166C127.317 15.8953 127.167 15.5593 127.167 15.158C127.167 14.7567 127.317 14.4207 127.615 14.15C127.914 13.8793 128.306 13.744 128.791 13.744C129.277 13.744 129.669 13.8747 129.967 14.136C130.266 14.388 130.415 14.7147 130.415 15.116C130.415 15.536 130.266 15.886 129.967 16.166C129.678 16.4367 129.286 16.572 128.791 16.572ZM136.792 17.286C137.38 17.286 137.912 17.4073 138.388 17.65C138.864 17.8833 139.237 18.2473 139.508 18.742C139.788 19.2367 139.928 19.876 139.928 20.66V25H137.268V21.094C137.268 20.5527 137.156 20.1607 136.932 19.918C136.717 19.666 136.414 19.54 136.022 19.54C135.742 19.54 135.485 19.6053 135.252 19.736C135.019 19.8573 134.837 20.0487 134.706 20.31C134.575 20.5713 134.51 20.912 134.51 21.332V25H131.85V17.412H134.384V19.568L133.894 18.938C134.183 18.3873 134.58 17.9767 135.084 17.706C135.588 17.426 136.157 17.286 136.792 17.286ZM145.404 27.842C144.676 27.842 143.981 27.758 143.318 27.59C142.665 27.422 142.105 27.1747 141.638 26.848L142.604 24.986C142.921 25.238 143.313 25.434 143.78 25.574C144.256 25.7233 144.718 25.798 145.166 25.798C145.885 25.798 146.403 25.6393 146.72 25.322C147.037 25.014 147.196 24.5613 147.196 23.964V23.068L147.336 20.94L147.322 18.798V17.412H149.856V23.614C149.856 25.0513 149.469 26.1153 148.694 26.806C147.919 27.4967 146.823 27.842 145.404 27.842ZM144.942 24.608C144.27 24.608 143.649 24.4587 143.08 24.16C142.52 23.852 142.067 23.4273 141.722 22.886C141.386 22.3353 141.218 21.6867 141.218 20.94C141.218 20.1933 141.386 19.5493 141.722 19.008C142.067 18.4573 142.52 18.0327 143.08 17.734C143.649 17.4353 144.27 17.286 144.942 17.286C145.586 17.286 146.137 17.4167 146.594 17.678C147.051 17.93 147.397 18.3267 147.63 18.868C147.873 19.4093 147.994 20.1 147.994 20.94C147.994 21.78 147.873 22.4707 147.63 23.012C147.397 23.5533 147.051 23.9547 146.594 24.216C146.137 24.4773 145.586 24.608 144.942 24.608ZM145.572 22.494C145.889 22.494 146.169 22.4287 146.412 22.298C146.664 22.1673 146.86 21.9853 147 21.752C147.149 21.5187 147.224 21.248 147.224 20.94C147.224 20.632 147.149 20.3613 147 20.128C146.86 19.8947 146.664 19.7173 146.412 19.596C146.169 19.4653 145.889 19.4 145.572 19.4C145.255 19.4 144.97 19.4653 144.718 19.596C144.466 19.7173 144.265 19.8947 144.116 20.128C143.976 20.3613 143.906 20.632 143.906 20.94C143.906 21.248 143.976 21.5187 144.116 21.752C144.265 21.9853 144.466 22.1673 144.718 22.298C144.97 22.4287 145.255 22.494 145.572 22.494ZM154.757 25.126C154.141 25.126 153.586 25.0047 153.091 24.762C152.606 24.5193 152.223 24.1413 151.943 23.628C151.672 23.1053 151.537 22.4473 151.537 21.654V17.412H154.197V21.22C154.197 21.808 154.304 22.228 154.519 22.48C154.743 22.732 155.056 22.858 155.457 22.858C155.718 22.858 155.956 22.7973 156.171 22.676C156.386 22.5547 156.558 22.3633 156.689 22.102C156.82 21.8313 156.885 21.486 156.885 21.066V17.412H159.545V25H157.011V22.858L157.501 23.46C157.24 24.02 156.862 24.44 156.367 24.72C155.872 24.9907 155.336 25.126 154.757 25.126ZM166.2 17.286C166.788 17.286 167.32 17.4073 167.796 17.65C168.272 17.8833 168.646 18.2473 168.916 18.742C169.196 19.2367 169.336 19.876 169.336 20.66V25H166.676V21.094C166.676 20.5527 166.564 20.1607 166.34 19.918C166.126 19.666 165.822 19.54 165.43 19.54C165.15 19.54 164.894 19.6053 164.66 19.736C164.427 19.8573 164.245 20.0487 164.114 20.31C163.984 20.5713 163.918 20.912 163.918 21.332V25H161.258V17.412H163.792V19.568L163.302 18.938C163.592 18.3873 163.988 17.9767 164.492 17.706C164.996 17.426 165.566 17.286 166.2 17.286ZM174.812 27.842C174.084 27.842 173.389 27.758 172.726 27.59C172.073 27.422 171.513 27.1747 171.046 26.848L172.012 24.986C172.329 25.238 172.721 25.434 173.188 25.574C173.664 25.7233 174.126 25.798 174.574 25.798C175.293 25.798 175.811 25.6393 176.128 25.322C176.445 25.014 176.604 24.5613 176.604 23.964V23.068L176.744 20.94L176.73 18.798V17.412H179.264V23.614C179.264 25.0513 178.877 26.1153 178.102 26.806C177.327 27.4967 176.231 27.842 174.812 27.842ZM174.35 24.608C173.678 24.608 173.057 24.4587 172.488 24.16C171.928 23.852 171.475 23.4273 171.13 22.886C170.794 22.3353 170.626 21.6867 170.626 20.94C170.626 20.1933 170.794 19.5493 171.13 19.008C171.475 18.4573 171.928 18.0327 172.488 17.734C173.057 17.4353 173.678 17.286 174.35 17.286C174.994 17.286 175.545 17.4167 176.002 17.678C176.459 17.93 176.805 18.3267 177.038 18.868C177.281 19.4093 177.402 20.1 177.402 20.94C177.402 21.78 177.281 22.4707 177.038 23.012C176.805 23.5533 176.459 23.9547 176.002 24.216C175.545 24.4773 174.994 24.608 174.35 24.608ZM174.98 22.494C175.297 22.494 175.577 22.4287 175.82 22.298C176.072 22.1673 176.268 21.9853 176.408 21.752C176.557 21.5187 176.632 21.248 176.632 20.94C176.632 20.632 176.557 20.3613 176.408 20.128C176.268 19.8947 176.072 19.7173 175.82 19.596C175.577 19.4653 175.297 19.4 174.98 19.4C174.663 19.4 174.378 19.4653 174.126 19.596C173.874 19.7173 173.673 19.8947 173.524 20.128C173.384 20.3613 173.314 20.632 173.314 20.94C173.314 21.248 173.384 21.5187 173.524 21.752C173.673 21.9853 173.874 22.1673 174.126 22.298C174.378 22.4287 174.663 22.494 174.98 22.494ZM184.949 25.126C184.053 25.126 183.269 24.958 182.597 24.622C181.934 24.2767 181.416 23.81 181.043 23.222C180.679 22.6247 180.497 21.948 180.497 21.192C180.497 20.436 180.674 19.764 181.029 19.176C181.393 18.5787 181.892 18.1167 182.527 17.79C183.162 17.454 183.876 17.286 184.669 17.286C185.416 17.286 186.097 17.44 186.713 17.748C187.329 18.0467 187.819 18.49 188.183 19.078C188.547 19.666 188.729 20.38 188.729 21.22C188.729 21.3133 188.724 21.4207 188.715 21.542C188.706 21.6633 188.696 21.7753 188.687 21.878H182.681V20.478H187.273L186.265 20.87C186.274 20.5247 186.209 20.226 186.069 19.974C185.938 19.722 185.752 19.526 185.509 19.386C185.276 19.246 185 19.176 184.683 19.176C184.366 19.176 184.086 19.246 183.843 19.386C183.61 19.526 183.428 19.7267 183.297 19.988C183.166 20.24 183.101 20.5387 183.101 20.884V21.29C183.101 21.6633 183.176 21.9853 183.325 22.256C183.484 22.5267 183.708 22.7367 183.997 22.886C184.286 23.026 184.632 23.096 185.033 23.096C185.406 23.096 185.724 23.0447 185.985 22.942C186.256 22.83 186.522 22.662 186.783 22.438L188.183 23.894C187.819 24.2953 187.371 24.6033 186.839 24.818C186.307 25.0233 185.677 25.126 184.949 25.126ZM194.898 17.286C195.486 17.286 196.018 17.4073 196.494 17.65C196.97 17.8833 197.343 18.2473 197.614 18.742C197.894 19.2367 198.034 19.876 198.034 20.66V25H195.374V21.094C195.374 20.5527 195.262 20.1607 195.038 19.918C194.823 19.666 194.52 19.54 194.128 19.54C193.848 19.54 193.591 19.6053 193.358 19.736C193.124 19.8573 192.942 20.0487 192.812 20.31C192.681 20.5713 192.616 20.912 192.616 21.332V25H189.956V17.412H192.49V19.568L192 18.938C192.289 18.3873 192.686 17.9767 193.19 17.706C193.694 17.426 194.263 17.286 194.898 17.286Z" fill="black"/>
</g>
<defs>
<filter id="filter0_ii_28_13" x="0" y="-4" width="223" height="44" filterUnits="userSpaceOnUse" color-interpolation-filters="sRGB">
<feFlood flood-opacity="0" result="BackgroundImageFix"/>
<feBlend mode="normal" in="SourceGraphic" in2="BackgroundImageFix" result="shape"/>
<feColorMatrix in="SourceAlpha" type="matrix" values="0 0 0 0 0 0 0 0 0 0 0 0 0 0 0 0 0 0 127 0" result="hardAlpha"/>
<feOffset dy="-4"/>
<feGaussianBlur stdDeviation="4"/>
<feComposite in2="hardAlpha" operator="arithmetic" k2="-1" k3="1"/>
<feColorMatrix type="matrix" values="0 0 0 0 0 0 0 0 0 0 0 0 0 0 0 0 0 0 0.1 0"/>
<feBlend mode="normal" in2="shape" result="effect1_innerShadow_28_13"/>
<feColorMatrix in="SourceAlpha" type="matrix" values="0 0 0 0 0 0 0 0 0 0 0 0 0 0 0 0 0 0 127 0" result="hardAlpha"/>
<feOffset/>
<feGaussianBlur stdDeviation="4"/>
<feComposite in2="hardAlpha" operator="arithmetic" k2="-1" k3="1"/>
<feColorMatrix type="matrix" values="0 0 0 0 0 0 0 0 0 0 0 0 0 0 0 0 0 0 0.1 0"/>
<feBlend mode="normal" in2="effect1_innerShadow_28_13" result="effect2_innerShadow_28_13"/>
</filter>
</defs>
</svg>
