<svg width="219" height="40" viewBox="0 0 219 40" fill="none" xmlns="http://www.w3.org/2000/svg">
<g filter="url(#filter0_ii_89_17)">
<rect width="219" height="40" rx="16" fill="white"/>
<path d="M28.9836 25.14C28.1716 25.14 27.4903 24.9813 26.9396 24.664C26.3889 24.3467 25.9736 23.9033 25.6936 23.334C25.4136 22.7647 25.2736 22.0973 25.2736 21.332C25.2736 20.8093 25.3203 20.2913 25.4136 19.778C25.5069 19.2553 25.6469 18.7513 25.8336 18.266C26.0296 17.7807 26.2676 17.3327 26.5476 16.922C26.8369 16.5113 27.1776 16.152 27.5696 15.844C27.9616 15.5267 28.4049 15.284 28.8996 15.116C29.4036 14.9387 29.9589 14.85 30.5656 14.85C31.7789 14.85 32.6889 15.1907 33.2956 15.872C33.9116 16.5533 34.2196 17.4587 34.2196 18.588C34.2196 19.1293 34.1729 19.666 34.0796 20.198C33.9956 20.73 33.8603 21.2433 33.6736 21.738C33.4869 22.2233 33.2489 22.676 32.9596 23.096C32.6796 23.5067 32.3436 23.866 31.9516 24.174C31.5689 24.4727 31.1303 24.7107 30.6356 24.888C30.1409 25.056 29.5903 25.14 28.9836 25.14ZM29.1376 23.362C29.4083 23.362 29.6696 23.3153 29.9216 23.222C30.1736 23.1193 30.4069 22.9747 30.6216 22.788C30.8456 22.592 31.0463 22.3587 31.2236 22.088C31.4009 21.808 31.5549 21.4953 31.6856 21.15C31.8163 20.7953 31.9143 20.408 31.9796 19.988C32.0543 19.568 32.0916 19.12 32.0916 18.644C32.0916 18.028 31.9469 17.538 31.6576 17.174C31.3776 16.8007 30.9576 16.614 30.3976 16.614C30.1083 16.614 29.8329 16.67 29.5716 16.782C29.3103 16.894 29.0676 17.0573 28.8436 17.272C28.6289 17.4773 28.4283 17.7247 28.2416 18.014C28.0643 18.3033 27.9103 18.6253 27.7796 18.98C27.6583 19.3253 27.5649 19.6987 27.4996 20.1C27.4343 20.492 27.4016 20.9027 27.4016 21.332C27.4016 21.7707 27.4669 22.144 27.5976 22.452C27.7376 22.7507 27.9383 22.9793 28.1996 23.138C28.4609 23.2873 28.7736 23.362 29.1376 23.362ZM35.0242 25L37.1382 15.004H39.9242C40.7362 15.004 41.3848 15.1253 41.8702 15.368C42.3648 15.6107 42.7195 15.9513 42.9342 16.39C43.1582 16.8287 43.2702 17.3373 43.2702 17.916C43.2702 18.5133 43.1582 19.0313 42.9342 19.47C42.7195 19.9087 42.4162 20.2773 42.0242 20.576C41.6322 20.8653 41.1702 21.0847 40.6382 21.234C40.1062 21.374 39.5322 21.444 38.9162 21.444H37.8522L37.1102 25H35.0242ZM39.0842 19.708C39.5042 19.708 39.8682 19.6427 40.1762 19.512C40.4935 19.372 40.7362 19.1713 40.9042 18.91C41.0815 18.6487 41.1702 18.336 41.1702 17.972C41.1702 17.552 41.0582 17.244 40.8342 17.048C40.6102 16.8427 40.2788 16.74 39.8402 16.74H38.8602L38.2302 19.708H39.0842ZM47.7551 25.14C46.9431 25.14 46.2617 24.9813 45.7111 24.664C45.1604 24.3467 44.7451 23.9033 44.4651 23.334C44.1851 22.7647 44.0451 22.0973 44.0451 21.332C44.0451 20.8093 44.0917 20.2913 44.1851 19.778C44.2784 19.2553 44.4184 18.7513 44.6051 18.266C44.8011 17.7807 45.0391 17.3327 45.3191 16.922C45.6084 16.5113 45.9491 16.152 46.3411 15.844C46.7331 15.5267 47.1764 15.284 47.6711 15.116C48.1751 14.9387 48.7304 14.85 49.3371 14.85C50.5504 14.85 51.4604 15.1907 52.0671 15.872C52.6831 16.5533 52.9911 17.4587 52.9911 18.588C52.9911 19.1293 52.9444 19.666 52.8511 20.198C52.7671 20.73 52.6317 21.2433 52.4451 21.738C52.2584 22.2233 52.0204 22.676 51.7311 23.096C51.4511 23.5067 51.1151 23.866 50.7231 24.174C50.3404 24.4727 49.9017 24.7107 49.4071 24.888C48.9124 25.056 48.3617 25.14 47.7551 25.14ZM47.9091 23.362C48.1797 23.362 48.4411 23.3153 48.6931 23.222C48.9451 23.1193 49.1784 22.9747 49.3931 22.788C49.6171 22.592 49.8177 22.3587 49.9951 22.088C50.1724 21.808 50.3264 21.4953 50.4571 21.15C50.5877 20.7953 50.6857 20.408 50.7511 19.988C50.8257 19.568 50.8631 19.12 50.8631 18.644C50.8631 18.028 50.7184 17.538 50.4291 17.174C50.1491 16.8007 49.7291 16.614 49.1691 16.614C48.8797 16.614 48.6044 16.67 48.3431 16.782C48.0817 16.894 47.8391 17.0573 47.6151 17.272C47.4004 17.4773 47.1997 17.7247 47.0131 18.014C46.8357 18.3033 46.6817 18.6253 46.5511 18.98C46.4297 19.3253 46.3364 19.6987 46.2711 20.1C46.2057 20.492 46.1731 20.9027 46.1731 21.332C46.1731 21.7707 46.2384 22.144 46.3691 22.452C46.5091 22.7507 46.7097 22.9793 46.9711 23.138C47.2324 23.2873 47.5451 23.362 47.9091 23.362ZM53.0256 25L53.2776 23.796L54.5516 23.236L55.9236 16.768L54.8876 16.208L55.1396 15.004H59.5636L59.3116 16.208L58.0096 16.768L56.6376 23.236L57.7016 23.796L57.4496 25H53.0256ZM63.1199 25L65.2339 15.004H67.3199L66.2699 19.834L67.3339 18.406L70.1619 15.004H72.6259L68.5659 19.792L70.5539 25H68.2439L66.8019 20.954L65.9479 21.43L65.2059 25H63.1199ZM70.5018 25L75.7378 15.004H78.2858L79.2938 25H77.2638L77.0958 22.62H73.8618L72.6858 25H70.5018ZM74.7158 20.842H76.9978L76.8158 18.266C76.7971 17.9953 76.7785 17.72 76.7598 17.44C76.7411 17.16 76.7365 16.8753 76.7458 16.586H76.7178C76.6245 16.838 76.5218 17.09 76.4098 17.342C76.2978 17.5847 76.1718 17.8507 76.0318 18.14L74.7158 20.842ZM79.7268 25L79.9788 23.796L81.2528 23.236L82.6248 16.768L81.5888 16.208L81.8408 15.004H86.2648L86.0128 16.208L84.7108 16.768L83.3388 23.236L84.4028 23.796L84.1508 25H79.7268ZM89.821 25L91.935 15.004H99.257L97.143 25H95.057L96.807 16.768H93.657L91.907 25H89.821ZM99.5554 25L101.669 15.004H104.455C105.267 15.004 105.916 15.1253 106.401 15.368C106.896 15.6107 107.251 15.9513 107.465 16.39C107.689 16.8287 107.801 17.3373 107.801 17.916C107.801 18.5133 107.689 19.0313 107.465 19.47C107.251 19.9087 106.947 20.2773 106.555 20.576C106.163 20.8653 105.701 21.0847 105.169 21.234C104.637 21.374 104.063 21.444 103.447 21.444H102.383L101.641 25H99.5554ZM103.615 19.708C104.035 19.708 104.399 19.6427 104.707 19.512C105.025 19.372 105.267 19.1713 105.435 18.91C105.613 18.6487 105.701 18.336 105.701 17.972C105.701 17.552 105.589 17.244 105.365 17.048C105.141 16.8427 104.81 16.74 104.371 16.74H103.391L102.761 19.708H103.615ZM112.286 25.14C111.474 25.14 110.793 24.9813 110.242 24.664C109.692 24.3467 109.276 23.9033 108.996 23.334C108.716 22.7647 108.576 22.0973 108.576 21.332C108.576 20.8093 108.623 20.2913 108.716 19.778C108.81 19.2553 108.95 18.7513 109.136 18.266C109.332 17.7807 109.57 17.3327 109.85 16.922C110.14 16.5113 110.48 16.152 110.872 15.844C111.264 15.5267 111.708 15.284 112.202 15.116C112.706 14.9387 113.262 14.85 113.868 14.85C115.082 14.85 115.992 15.1907 116.598 15.872C117.214 16.5533 117.522 17.4587 117.522 18.588C117.522 19.1293 117.476 19.666 117.382 20.198C117.298 20.73 117.163 21.2433 116.976 21.738C116.79 22.2233 116.552 22.676 116.262 23.096C115.982 23.5067 115.646 23.866 115.254 24.174C114.872 24.4727 114.433 24.7107 113.938 24.888C113.444 25.056 112.893 25.14 112.286 25.14ZM112.44 23.362C112.711 23.362 112.972 23.3153 113.224 23.222C113.476 23.1193 113.71 22.9747 113.924 22.788C114.148 22.592 114.349 22.3587 114.526 22.088C114.704 21.808 114.858 21.4953 114.988 21.15C115.119 20.7953 115.217 20.408 115.282 19.988C115.357 19.568 115.394 19.12 115.394 18.644C115.394 18.028 115.25 17.538 114.96 17.174C114.68 16.8007 114.26 16.614 113.7 16.614C113.411 16.614 113.136 16.67 112.874 16.782C112.613 16.894 112.37 17.0573 112.146 17.272C111.932 17.4773 111.731 17.7247 111.544 18.014C111.367 18.3033 111.213 18.6253 111.082 18.98C110.961 19.3253 110.868 19.6987 110.802 20.1C110.737 20.492 110.704 20.9027 110.704 21.332C110.704 21.7707 110.77 22.144 110.9 22.452C111.04 22.7507 111.241 22.9793 111.502 23.138C111.764 23.2873 112.076 23.362 112.44 23.362ZM119.898 25L120.71 21.178L119.1 15.004H121.228L122.11 19.05L124.672 15.004H127.01L122.782 21.178L121.97 25H119.898ZM124.518 13.954C124.266 13.954 124.056 13.898 123.888 13.786C123.73 13.674 123.65 13.478 123.65 13.198C123.65 12.8433 123.739 12.5773 123.916 12.4C124.103 12.2133 124.36 12.12 124.686 12.12C124.92 12.12 125.12 12.176 125.288 12.288C125.456 12.3907 125.54 12.582 125.54 12.862C125.54 13.1887 125.456 13.4547 125.288 13.66C125.13 13.856 124.873 13.954 124.518 13.954ZM121.9 13.954C121.648 13.954 121.438 13.898 121.27 13.786C121.112 13.674 121.032 13.478 121.032 13.198C121.032 12.8433 121.121 12.5773 121.298 12.4C121.485 12.2133 121.742 12.12 122.068 12.12C122.227 12.12 122.367 12.1433 122.488 12.19C122.619 12.2367 122.722 12.316 122.796 12.428C122.88 12.5307 122.922 12.6753 122.922 12.862C122.922 13.1887 122.838 13.4547 122.67 13.66C122.512 13.856 122.255 13.954 121.9 13.954ZM126.093 25L128.207 15.004H135.529L133.415 25H131.329L133.079 16.768H129.929L128.179 25H126.093ZM140.013 25.14C139.201 25.14 138.52 24.9813 137.969 24.664C137.418 24.3467 137.003 23.9033 136.723 23.334C136.443 22.7647 136.303 22.0973 136.303 21.332C136.303 20.8093 136.35 20.2913 136.443 19.778C136.536 19.2553 136.676 18.7513 136.863 18.266C137.059 17.7807 137.297 17.3327 137.577 16.922C137.866 16.5113 138.207 16.152 138.599 15.844C138.991 15.5267 139.434 15.284 139.929 15.116C140.433 14.9387 140.988 14.85 141.595 14.85C142.808 14.85 143.718 15.1907 144.325 15.872C144.941 16.5533 145.249 17.4587 145.249 18.588C145.249 19.1293 145.202 19.666 145.109 20.198C145.025 20.73 144.89 21.2433 144.703 21.738C144.516 22.2233 144.278 22.676 143.989 23.096C143.709 23.5067 143.373 23.866 142.981 24.174C142.598 24.4727 142.16 24.7107 141.665 24.888C141.17 25.056 140.62 25.14 140.013 25.14ZM140.167 23.362C140.438 23.362 140.699 23.3153 140.951 23.222C141.203 23.1193 141.436 22.9747 141.651 22.788C141.875 22.592 142.076 22.3587 142.253 22.088C142.43 21.808 142.584 21.4953 142.715 21.15C142.846 20.7953 142.944 20.408 143.009 19.988C143.084 19.568 143.121 19.12 143.121 18.644C143.121 18.028 142.976 17.538 142.687 17.174C142.407 16.8007 141.987 16.614 141.427 16.614C141.138 16.614 140.862 16.67 140.601 16.782C140.34 16.894 140.097 17.0573 139.873 17.272C139.658 17.4773 139.458 17.7247 139.271 18.014C139.094 18.3033 138.94 18.6253 138.809 18.98C138.688 19.3253 138.594 19.6987 138.529 20.1C138.464 20.492 138.431 20.9027 138.431 21.332C138.431 21.7707 138.496 22.144 138.627 22.452C138.767 22.7507 138.968 22.9793 139.229 23.138C139.49 23.2873 139.803 23.362 140.167 23.362ZM149.329 20.786L149.693 19.05H152.689L152.325 20.786H149.329ZM150.239 25.14C149.427 25.14 148.746 24.9813 148.195 24.664C147.645 24.3467 147.229 23.9033 146.949 23.334C146.669 22.7647 146.529 22.0973 146.529 21.332C146.529 20.8093 146.576 20.2913 146.669 19.778C146.763 19.2553 146.903 18.7513 147.089 18.266C147.285 17.7807 147.523 17.3327 147.803 16.922C148.093 16.5113 148.433 16.152 148.825 15.844C149.217 15.5267 149.661 15.284 150.155 15.116C150.659 14.9387 151.215 14.85 151.821 14.85C153.035 14.85 153.945 15.1907 154.551 15.872C155.167 16.5533 155.475 17.4587 155.475 18.588C155.475 19.1293 155.429 19.666 155.335 20.198C155.251 20.73 155.116 21.2433 154.929 21.738C154.743 22.2233 154.505 22.676 154.215 23.096C153.935 23.5067 153.599 23.866 153.207 24.174C152.825 24.4727 152.386 24.7107 151.891 24.888C151.397 25.056 150.846 25.14 150.239 25.14ZM150.393 23.362C150.664 23.362 150.925 23.3153 151.177 23.222C151.429 23.1193 151.663 22.9747 151.877 22.788C152.101 22.592 152.302 22.3587 152.479 22.088C152.657 21.808 152.811 21.4953 152.941 21.15C153.072 20.7953 153.17 20.408 153.235 19.988C153.31 19.568 153.347 19.12 153.347 18.644C153.347 18.028 153.203 17.538 152.913 17.174C152.633 16.8007 152.213 16.614 151.653 16.614C151.364 16.614 151.089 16.67 150.827 16.782C150.566 16.894 150.323 17.0573 150.099 17.272C149.885 17.4773 149.684 17.7247 149.497 18.014C149.32 18.3033 149.166 18.6253 149.035 18.98C148.914 19.3253 148.821 19.6987 148.755 20.1C148.69 20.492 148.657 20.9027 148.657 21.332C148.657 21.7707 148.723 22.144 148.853 22.452C148.993 22.7507 149.194 22.9793 149.455 23.138C149.717 23.2873 150.029 23.362 150.393 23.362ZM159.388 25L161.502 15.004H167.088L166.724 16.74H163.224L162.762 18.938H166.024L165.646 20.674H162.384L161.838 23.25H165.338L164.974 25H159.388ZM156.868 17.384L156.91 17.202L158.03 15.004H160.368L160.34 15.144L158.268 17.384H156.868ZM166.187 25L166.509 23.334L169.729 19.764L168.371 16.572L168.693 15.004H174.811L174.461 16.74H171.941C171.82 16.74 171.675 16.74 171.507 16.74C171.339 16.7307 171.167 16.7213 170.989 16.712C170.812 16.7027 170.639 16.6887 170.471 16.67L171.703 19.554L171.619 19.974L168.749 23.334C169.076 23.306 169.379 23.2873 169.659 23.278C169.949 23.2593 170.252 23.25 170.569 23.25H173.257L172.893 25H166.187ZM174.477 25L176.591 15.004H182.177L181.813 16.74H178.313L177.851 18.938H181.113L180.735 20.674H177.473L176.927 23.25H180.427L180.063 25H174.477ZM181.295 25L181.547 23.796L182.821 23.236L184.193 16.768L183.157 16.208L183.409 15.004H187.833L187.581 16.208L186.279 16.768L184.907 23.236L185.971 23.796L185.719 25H181.295ZM186.641 25L186.963 23.334L190.183 19.764L188.825 16.572L189.147 15.004H195.265L194.915 16.74H192.395C192.273 16.74 192.129 16.74 191.961 16.74C191.793 16.7307 191.62 16.7213 191.443 16.712C191.265 16.7027 191.093 16.6887 190.925 16.67L192.157 19.554L192.073 19.974L189.203 23.334C189.529 23.306 189.833 23.2873 190.113 23.278C190.402 23.2593 190.705 23.25 191.023 23.25H193.711L193.347 25H186.641Z" fill="black"/>
</g>
<defs>
<filter id="filter0_ii_89_17" x="0" y="-4" width="219" height="44" filterUnits="userSpaceOnUse" color-interpolation-filters="sRGB">
<feFlood flood-opacity="0" result="BackgroundImageFix"/>
<feBlend mode="normal" in="SourceGraphic" in2="BackgroundImageFix" result="shape"/>
<feColorMatrix in="SourceAlpha" type="matrix" values="0 0 0 0 0 0 0 0 0 0 0 0 0 0 0 0 0 0 127 0" result="hardAlpha"/>
<feOffset dy="-4"/>
<feGaussianBlur stdDeviation="4"/>
<feComposite in2="hardAlpha" operator="arithmetic" k2="-1" k3="1"/>
<feColorMatrix type="matrix" values="0 0 0 0 0 0 0 0 0 0 0 0 0 0 0 0 0 0 0.1 0"/>
<feBlend mode="normal" in2="shape" result="effect1_innerShadow_89_17"/>
<feColorMatrix in="SourceAlpha" type="matrix" values="0 0 0 0 0 0 0 0 0 0 0 0 0 0 0 0 0 0 127 0" result="hardAlpha"/>
<feOffset/>
<feGaussianBlur stdDeviation="4"/>
<feComposite in2="hardAlpha" operator="arithmetic" k2="-1" k3="1"/>
<feColorMatrix type="matrix" values="0 0 0 0 0 0 0 0 0 0 0 0 0 0 0 0 0 0 0.1 0"/>
<feBlend mode="normal" in2="effect1_innerShadow_89_17" result="effect2_innerShadow_89_17"/>
</filter>
</defs>
</svg>
