<svg width="162" height="26" viewBox="0 0 162 26" fill="none" xmlns="http://www.w3.org/2000/svg">
<path d="M16.8265 16.6348V10.7348H14.5065V9.63477H20.4465V10.7348H18.1265V16.6348H16.8265ZM22.7221 15.5448H26.6721V16.6348H21.4221V9.63477H26.5321V10.7248H22.7221V12.5448H26.1021V13.6148H22.7221V15.5448ZM34.1013 16.6348H32.7013L31.2713 14.5848C31.1813 14.5948 31.0913 14.5948 31.0013 14.5948H29.4213V16.6348H28.1213V9.63477H31.0013C32.8413 9.63477 33.9813 10.5748 33.9813 12.1248C33.9813 13.1848 33.4413 13.9648 32.4913 14.3348L34.1013 16.6348ZM32.6713 12.1248C32.6713 11.2448 32.0813 10.7348 30.9413 10.7348H29.4213V13.5248H30.9413C32.0813 13.5248 32.6713 13.0048 32.6713 12.1248ZM43.0958 16.6348H41.8658L41.8558 11.9948L39.5558 15.8348H38.9758L36.6758 12.0548V16.6348H35.4358V9.63477H36.5058L39.2858 14.2748L42.0158 9.63477H43.0858L43.0958 16.6348ZM47.1566 16.7348C46.0666 16.7348 44.9766 16.3948 44.3966 15.8948L44.8466 14.8848C45.4066 15.3348 46.2966 15.6548 47.1566 15.6548C48.2466 15.6548 48.7066 15.2648 48.7066 14.7448C48.7066 13.2348 44.5466 14.2248 44.5466 11.6248C44.5466 10.4948 45.4466 9.53477 47.3666 9.53477C48.2066 9.53477 49.0866 9.75477 49.6966 10.1548L49.2866 11.1648C48.6566 10.7948 47.9666 10.6148 47.3566 10.6148C46.2766 10.6148 45.8366 11.0348 45.8366 11.5648C45.8366 13.0548 49.9866 12.0848 49.9866 14.6548C49.9866 15.7748 49.0766 16.7348 47.1566 16.7348ZM59.2793 16.6348L58.5793 15.0148H55.0793L54.3893 16.6348H53.0493L56.1993 9.63477H57.4793L60.6393 16.6348H59.2793ZM55.5193 13.9948H58.1493L56.8293 10.9348L55.5193 13.9948ZM66.4595 9.63477H67.7495V16.6348H66.6795L62.8195 11.8948V16.6348H61.5295V9.63477H62.5995L66.4595 14.3748V9.63477ZM69.6252 16.6348V9.63477H72.6852C74.9552 9.63477 76.5052 11.0348 76.5052 13.1348C76.5052 15.2348 74.9552 16.6348 72.6852 16.6348H69.6252ZM70.9252 15.5348H72.6252C74.1852 15.5348 75.1952 14.5848 75.1952 13.1348C75.1952 11.6848 74.1852 10.7348 72.6252 10.7348H70.9252V15.5348ZM83.8906 16.7348C81.7506 16.7348 80.1506 15.2248 80.1506 13.1348C80.1506 11.0448 81.7506 9.53477 83.9006 9.53477C85.0406 9.53477 86.0206 9.94477 86.6706 10.7048L85.8306 11.4948C85.3206 10.9448 84.6906 10.6748 83.9606 10.6748C82.5106 10.6748 81.4606 11.6948 81.4606 13.1348C81.4606 14.5748 82.5106 15.5948 83.9606 15.5948C84.6906 15.5948 85.3206 15.3248 85.8306 14.7648L86.6706 15.5648C86.0206 16.3248 85.0406 16.7348 83.8906 16.7348ZM91.0398 16.7348C88.8698 16.7348 87.2698 15.2048 87.2698 13.1348C87.2698 11.0648 88.8698 9.53477 91.0398 9.53477C93.2098 9.53477 94.8098 11.0548 94.8098 13.1348C94.8098 15.2148 93.2098 16.7348 91.0398 16.7348ZM91.0398 15.5948C92.4498 15.5948 93.4998 14.5648 93.4998 13.1348C93.4998 11.7048 92.4498 10.6748 91.0398 10.6748C89.6298 10.6748 88.5798 11.7048 88.5798 13.1348C88.5798 14.5648 89.6298 15.5948 91.0398 15.5948ZM101.118 9.63477H102.408V16.6348H101.338L97.4777 11.8948V16.6348H96.1877V9.63477H97.2577L101.118 14.3748V9.63477ZM104.283 16.6348V9.63477H107.343C109.613 9.63477 111.163 11.0348 111.163 13.1348C111.163 15.2348 109.613 16.6348 107.343 16.6348H104.283ZM105.583 15.5348H107.283C108.843 15.5348 109.853 14.5848 109.853 13.1348C109.853 11.6848 108.843 10.7348 107.283 10.7348H105.583V15.5348ZM112.545 16.6348V9.63477H113.845V16.6348H112.545ZM117.159 16.6348V10.7348H114.839V9.63477H120.779V10.7348H118.459V16.6348H117.159ZM121.754 16.6348V9.63477H123.054V16.6348H121.754ZM128.217 16.7348C126.047 16.7348 124.447 15.2048 124.447 13.1348C124.447 11.0648 126.047 9.53477 128.217 9.53477C130.387 9.53477 131.987 11.0548 131.987 13.1348C131.987 15.2148 130.387 16.7348 128.217 16.7348ZM128.217 15.5948C129.627 15.5948 130.677 14.5648 130.677 13.1348C130.677 11.7048 129.627 10.6748 128.217 10.6748C126.807 10.6748 125.757 11.7048 125.757 13.1348C125.757 14.5648 126.807 15.5948 128.217 15.5948ZM138.295 9.63477H139.585V16.6348H138.515L134.655 11.8948V16.6348H133.365V9.63477H134.435L138.295 14.3748V9.63477ZM143.631 16.7348C142.541 16.7348 141.451 16.3948 140.871 15.8948L141.321 14.8848C141.881 15.3348 142.771 15.6548 143.631 15.6548C144.721 15.6548 145.181 15.2648 145.181 14.7448C145.181 13.2348 141.021 14.2248 141.021 11.6248C141.021 10.4948 141.921 9.53477 143.841 9.53477C144.681 9.53477 145.561 9.75477 146.171 10.1548L145.761 11.1648C145.131 10.7948 144.441 10.6148 143.831 10.6148C142.751 10.6148 142.311 11.0348 142.311 11.5648C142.311 13.0548 146.461 12.0848 146.461 14.6548C146.461 15.7748 145.551 16.7348 143.631 16.7348Z" fill="white"/>
<path d="M148.749 1H12.7273C6.25049 1 1.00003 6.25049 1.00006 12.7273C1.00003 19.5053 6.49471 25 13.2727 25H149.249C155.716 25 160.936 19.7161 160.857 13.25C160.936 6.50773 155.492 1 148.749 1Z" stroke="white"/>
</svg>
