<svg width="182" height="34" viewBox="0 0 182 34" fill="none" xmlns="http://www.w3.org/2000/svg">
<path d="M14.0189 21.1816V14.1016H11.2349V12.7816H18.3629V14.1016H15.5789V21.1816H14.0189ZM21.0936 19.8736H25.8336V21.1816H19.5336V12.7816H25.6656V14.0896H21.0936V16.2736H25.1496V17.5576H21.0936V19.8736ZM34.7487 21.1816H33.0687L31.3527 18.7216C31.2447 18.7336 31.1367 18.7336 31.0287 18.7336H29.1327V21.1816H27.5727V12.7816H31.0287C33.2367 12.7816 34.6047 13.9096 34.6047 15.7696C34.6047 17.0416 33.9567 17.9776 32.8167 18.4216L34.7487 21.1816ZM33.0327 15.7696C33.0327 14.7136 32.3247 14.1016 30.9567 14.1016H29.1327V17.4496H30.9567C32.3247 17.4496 33.0327 16.8256 33.0327 15.7696ZM45.5421 21.1816H44.0661L44.0541 15.6136L41.2941 20.2216H40.5981L37.8381 15.6856V21.1816H36.3501V12.7816H37.6341L40.9701 18.3496L44.2461 12.7816H45.5301L45.5421 21.1816ZM50.415 21.3016C49.107 21.3016 47.799 20.8936 47.103 20.2936L47.643 19.0816C48.315 19.6216 49.383 20.0056 50.415 20.0056C51.723 20.0056 52.275 19.5376 52.275 18.9136C52.275 17.1016 47.283 18.2896 47.283 15.1696C47.283 13.8136 48.363 12.6616 50.667 12.6616C51.675 12.6616 52.731 12.9256 53.463 13.4056L52.971 14.6176C52.215 14.1736 51.387 13.9576 50.655 13.9576C49.359 13.9576 48.831 14.4616 48.831 15.0976C48.831 16.8856 53.811 15.7216 53.811 18.8056C53.811 20.1496 52.719 21.3016 50.415 21.3016ZM64.9623 21.1816L64.1223 19.2376H59.9223L59.0943 21.1816H57.4863L61.2663 12.7816H62.8023L66.5943 21.1816H64.9623ZM60.4503 18.0136H63.6063L62.0223 14.3416L60.4503 18.0136ZM73.5786 12.7816H75.1266V21.1816H73.8426L69.2106 15.4936V21.1816H67.6626V12.7816H68.9466L73.5786 18.4696V12.7816ZM77.3774 21.1816V12.7816H81.0494C83.7734 12.7816 85.6334 14.4616 85.6334 16.9816C85.6334 19.5016 83.7734 21.1816 81.0494 21.1816H77.3774ZM78.9374 19.8616H80.9774C82.8494 19.8616 84.0614 18.7216 84.0614 16.9816C84.0614 15.2416 82.8494 14.1016 80.9774 14.1016H78.9374V19.8616ZM94.4959 21.3016C91.9279 21.3016 90.0079 19.4896 90.0079 16.9816C90.0079 14.4736 91.9279 12.6616 94.5079 12.6616C95.8759 12.6616 97.0519 13.1536 97.8319 14.0656L96.8239 15.0136C96.2119 14.3536 95.4559 14.0296 94.5799 14.0296C92.8399 14.0296 91.5799 15.2536 91.5799 16.9816C91.5799 18.7096 92.8399 19.9336 94.5799 19.9336C95.4559 19.9336 96.2119 19.6096 96.8239 18.9376L97.8319 19.8976C97.0519 20.8096 95.8759 21.3016 94.4959 21.3016ZM103.075 21.3016C100.471 21.3016 98.5508 19.4656 98.5508 16.9816C98.5508 14.4976 100.471 12.6616 103.075 12.6616C105.679 12.6616 107.599 14.4856 107.599 16.9816C107.599 19.4776 105.679 21.3016 103.075 21.3016ZM103.075 19.9336C104.767 19.9336 106.027 18.6976 106.027 16.9816C106.027 15.2656 104.767 14.0296 103.075 14.0296C101.383 14.0296 100.123 15.2656 100.123 16.9816C100.123 18.6976 101.383 19.9336 103.075 19.9336ZM115.168 12.7816H116.716V21.1816H115.432L110.8 15.4936V21.1816H109.252V12.7816H110.536L115.168 18.4696V12.7816ZM118.967 21.1816V12.7816H122.639C125.363 12.7816 127.223 14.4616 127.223 16.9816C127.223 19.5016 125.363 21.1816 122.639 21.1816H118.967ZM120.527 19.8616H122.567C124.439 19.8616 125.651 18.7216 125.651 16.9816C125.651 15.2416 124.439 14.1016 122.567 14.1016H120.527V19.8616ZM128.881 21.1816V12.7816H130.441V21.1816H128.881ZM134.417 21.1816V14.1016H131.633V12.7816H138.761V14.1016H135.977V21.1816H134.417ZM139.932 21.1816V12.7816H141.492V21.1816H139.932ZM147.688 21.3016C145.084 21.3016 143.164 19.4656 143.164 16.9816C143.164 14.4976 145.084 12.6616 147.688 12.6616C150.292 12.6616 152.212 14.4856 152.212 16.9816C152.212 19.4776 150.292 21.3016 147.688 21.3016ZM147.688 19.9336C149.38 19.9336 150.64 18.6976 150.64 16.9816C150.64 15.2656 149.38 14.0296 147.688 14.0296C145.996 14.0296 144.736 15.2656 144.736 16.9816C144.736 18.6976 145.996 19.9336 147.688 19.9336ZM159.782 12.7816H161.33V21.1816H160.046L155.414 15.4936V21.1816H153.866V12.7816H155.15L159.782 18.4696V12.7816ZM166.185 21.3016C164.877 21.3016 163.569 20.8936 162.873 20.2936L163.413 19.0816C164.085 19.6216 165.153 20.0056 166.185 20.0056C167.493 20.0056 168.045 19.5376 168.045 18.9136C168.045 17.1016 163.053 18.2896 163.053 15.1696C163.053 13.8136 164.133 12.6616 166.437 12.6616C167.445 12.6616 168.501 12.9256 169.233 13.4056L168.741 14.6176C167.985 14.1736 167.157 13.9576 166.425 13.9576C165.129 13.9576 164.601 14.4616 164.601 15.0976C164.601 16.8856 169.581 15.7216 169.581 18.8056C169.581 20.1496 168.489 21.3016 166.185 21.3016Z" fill="white"/>
<path d="M164.666 1H16.6364C8.00065 1 1.00003 8.00065 1.00007 16.6364C1.00003 25.6737 8.32626 33 17.3636 33H165.333C173.959 33 180.928 25.9597 180.839 17.3333C180.928 8.33878 173.661 1 164.666 1Z" stroke="white"/>
</svg>
