<svg width="224" height="50" viewBox="0 0 224 50" fill="none" xmlns="http://www.w3.org/2000/svg">
<path d="M25.958 30V20.56H22.246V18.8H31.75V20.56H28.038V30H25.958ZM40.276 25.776C40.276 25.936 40.26 26.176 40.244 26.368H33.54C33.78 27.616 34.82 28.416 36.308 28.416C37.268 28.416 38.02 28.112 38.628 27.488L39.7 28.72C38.932 29.632 37.732 30.112 36.26 30.112C33.396 30.112 31.54 28.272 31.54 25.728C31.54 23.184 33.412 21.36 35.956 21.36C38.452 21.36 40.276 23.104 40.276 25.776ZM35.956 22.96C34.66 22.96 33.716 23.792 33.524 25.04H38.372C38.212 23.808 37.268 22.96 35.956 22.96ZM44.1011 22.704C44.6771 21.808 45.7171 21.36 47.1411 21.36V23.264C46.9651 23.232 46.8211 23.216 46.6771 23.216C45.1571 23.216 44.1971 24.112 44.1971 25.856V30H42.1971V21.456H44.1011V22.704ZM59.6218 21.36C61.6858 21.36 63.1258 22.528 63.1258 25.104V30H61.1258V25.36C61.1258 23.84 60.4218 23.104 59.2058 23.104C57.8938 23.104 56.9818 23.968 56.9818 25.664V30H54.9818V25.36C54.9818 23.84 54.2778 23.104 53.0618 23.104C51.7338 23.104 50.8378 23.968 50.8378 25.664V30H48.8378V21.456H50.7418V22.544C51.3818 21.776 52.3738 21.36 53.5418 21.36C54.7898 21.36 55.8298 21.824 56.4218 22.784C57.1098 21.904 58.2618 21.36 59.6218 21.36ZM68.3215 30.112C66.8975 30.112 65.4735 29.696 64.7055 29.152L65.4735 27.632C66.2255 28.128 67.3775 28.48 68.4495 28.48C69.7135 28.48 70.2415 28.128 70.2415 27.536C70.2415 25.904 64.9615 27.44 64.9615 24.032C64.9615 22.416 66.4175 21.36 68.7215 21.36C69.8575 21.36 71.1535 21.632 71.9215 22.096L71.1535 23.616C70.3375 23.136 69.5215 22.976 68.7055 22.976C67.4895 22.976 66.9135 23.376 66.9135 23.936C66.9135 25.664 72.1935 24.128 72.1935 27.472C72.1935 29.072 70.7215 30.112 68.3215 30.112ZM81.6018 21.36C84.0658 21.36 85.4898 22.528 85.4898 24.992V30H83.6018V28.96C83.1218 29.696 82.1938 30.112 80.9138 30.112C78.9618 30.112 77.7298 29.04 77.7298 27.552C77.7298 26.128 78.6898 25.008 81.2818 25.008H83.4898V24.88C83.4898 23.712 82.7858 23.024 81.3618 23.024C80.4018 23.024 79.4098 23.344 78.7698 23.872L77.9858 22.416C78.8978 21.712 80.2258 21.36 81.6018 21.36ZM81.3298 28.656C82.3058 28.656 83.1538 28.208 83.4898 27.328V26.336H81.4258C80.0658 26.336 79.6978 26.848 79.6978 27.472C79.6978 28.192 80.3058 28.656 81.3298 28.656ZM92.9045 21.36C94.9525 21.36 96.4725 22.528 96.4725 25.104V30H94.4725V25.36C94.4725 23.84 93.7205 23.104 92.4405 23.104C91.0165 23.104 90.0565 23.968 90.0565 25.68V30H88.0565V21.456H89.9605V22.56C90.6165 21.776 91.6565 21.36 92.9045 21.36ZM105.456 18.128H107.456V30H105.536V28.896C104.864 29.712 103.872 30.112 102.704 30.112C100.224 30.112 98.3838 28.384 98.3838 25.728C98.3838 23.072 100.224 21.36 102.704 21.36C103.808 21.36 104.784 21.728 105.456 22.512V18.128ZM102.944 28.4C104.384 28.4 105.488 27.36 105.488 25.728C105.488 24.096 104.384 23.056 102.944 23.056C101.504 23.056 100.4 24.096 100.4 25.728C100.4 27.36 101.504 28.4 102.944 28.4ZM118.414 30.112C115.71 30.112 113.79 28.288 113.79 25.728C113.79 23.168 115.71 21.36 118.414 21.36C120.078 21.36 121.406 22.048 122.062 23.344L120.526 24.24C120.014 23.424 119.246 23.056 118.398 23.056C116.926 23.056 115.806 24.08 115.806 25.728C115.806 27.392 116.926 28.4 118.398 28.4C119.246 28.4 120.014 28.032 120.526 27.216L122.062 28.112C121.406 29.392 120.078 30.112 118.414 30.112ZM127.506 30.112C124.882 30.112 122.962 28.288 122.962 25.728C122.962 23.168 124.882 21.36 127.506 21.36C130.162 21.36 132.066 23.168 132.066 25.728C132.066 28.288 130.162 30.112 127.506 30.112ZM127.506 28.4C128.962 28.4 130.05 27.36 130.05 25.728C130.05 24.096 128.962 23.056 127.506 23.056C126.066 23.056 124.978 24.096 124.978 25.728C124.978 27.36 126.066 28.4 127.506 28.4ZM138.826 21.36C140.874 21.36 142.394 22.528 142.394 25.104V30H140.394V25.36C140.394 23.84 139.642 23.104 138.362 23.104C136.938 23.104 135.978 23.968 135.978 25.68V30H133.978V21.456H135.882V22.56C136.538 21.776 137.578 21.36 138.826 21.36ZM151.378 18.128H153.378V30H151.458V28.896C150.786 29.712 149.794 30.112 148.626 30.112C146.146 30.112 144.306 28.384 144.306 25.728C144.306 23.072 146.146 21.36 148.626 21.36C149.73 21.36 150.706 21.728 151.378 22.512V18.128ZM148.866 28.4C150.306 28.4 151.41 27.36 151.41 25.728C151.41 24.096 150.306 23.056 148.866 23.056C147.426 23.056 146.322 24.096 146.322 25.728C146.322 27.36 147.426 28.4 148.866 28.4ZM157.002 20.048C156.266 20.048 155.722 19.52 155.722 18.848C155.722 18.176 156.266 17.648 157.002 17.648C157.738 17.648 158.282 18.144 158.282 18.8C158.282 19.504 157.754 20.048 157.002 20.048ZM155.994 30V21.456H157.994V30H155.994ZM165.195 28.112L165.755 29.536C165.275 29.92 164.555 30.112 163.835 30.112C161.963 30.112 160.891 29.12 160.891 27.232V23.12H159.483V21.52H160.891V19.568H162.891V21.52H165.179V23.12H162.891V27.184C162.891 28.016 163.307 28.464 164.075 28.464C164.491 28.464 164.891 28.352 165.195 28.112ZM168.408 20.048C167.672 20.048 167.128 19.52 167.128 18.848C167.128 18.176 167.672 17.648 168.408 17.648C169.144 17.648 169.688 18.144 169.688 18.8C169.688 19.504 169.16 20.048 168.408 20.048ZM167.4 30V21.456H169.4V30H167.4ZM175.865 30.112C173.241 30.112 171.321 28.288 171.321 25.728C171.321 23.168 173.241 21.36 175.865 21.36C178.521 21.36 180.425 23.168 180.425 25.728C180.425 28.288 178.521 30.112 175.865 30.112ZM175.865 28.4C177.321 28.4 178.409 27.36 178.409 25.728C178.409 24.096 177.321 23.056 175.865 23.056C174.425 23.056 173.337 24.096 173.337 25.728C173.337 27.36 174.425 28.4 175.865 28.4ZM187.186 21.36C189.234 21.36 190.754 22.528 190.754 25.104V30H188.754V25.36C188.754 23.84 188.002 23.104 186.722 23.104C185.298 23.104 184.338 23.968 184.338 25.68V30H182.338V21.456H184.242V22.56C184.898 21.776 185.938 21.36 187.186 21.36ZM195.931 30.112C194.507 30.112 193.083 29.696 192.315 29.152L193.083 27.632C193.835 28.128 194.987 28.48 196.059 28.48C197.323 28.48 197.851 28.128 197.851 27.536C197.851 25.904 192.571 27.44 192.571 24.032C192.571 22.416 194.027 21.36 196.331 21.36C197.467 21.36 198.763 21.632 199.531 22.096L198.763 23.616C197.947 23.136 197.131 22.976 196.315 22.976C195.099 22.976 194.523 23.376 194.523 23.936C194.523 25.664 199.803 24.128 199.803 27.472C199.803 29.072 198.331 30.112 195.931 30.112Z" fill="white"/>
<path d="M214.331 1H9.00003C4.58174 1 1.00001 4.58174 1.00003 9.00003L1.00008 24.4545L1.00003 41C1.00001 45.4183 4.58173 49 9.00002 49H214.328C218.772 49 222.365 45.3772 222.328 40.9327L222.198 25.5L222.33 9.06452C222.366 4.62117 218.774 1 214.331 1Z" stroke="white" stroke-width="2"/>
</svg>
