<svg width="303" height="46" viewBox="0 0 303 46" fill="none" xmlns="http://www.w3.org/2000/svg">
<path d="M52.4285 17.7195H48.9058L46.923 29H44.151L46.1338 17.7195H42.611L43.0538 15.14H52.8713L52.4285 17.7195ZM54.8082 15.14H63.7209L63.2589 17.758H57.1182L56.6177 20.607H61.5842L61.1222 23.225H56.1557L55.6167 26.382H61.7574L61.2954 29H52.3827L54.8082 15.14ZM66.1063 15.14H72.9593C73.7549 15.14 74.3709 15.4095 74.8073 15.9485C75.2436 16.4747 75.3912 17.1484 75.25 17.9697L74.6725 21.223C74.4159 22.6218 73.6394 23.4752 72.3433 23.7832L73.6908 29H70.784L69.5135 23.8602H67.3575L66.4528 29H63.6808L66.1063 15.14ZM72.016 20.53L72.401 18.3162C72.4395 18.0981 72.4267 17.9505 72.3625 17.8735C72.3112 17.7965 72.1829 17.758 71.9775 17.758H68.4163L67.8003 21.2807H71.169C71.631 21.2807 71.9134 21.0305 72.016 20.53ZM91.3949 15.14L88.9694 29H86.3514L88.0069 19.76L83.8874 26.7862H81.9624L80.2299 19.76L78.5744 29H75.9564L78.3819 15.14H81.3464L83.3484 23.3405L88.2379 15.14H91.3949ZM100.117 19.4135L100.328 18.2392C100.367 18.0211 100.354 17.8735 100.29 17.7965C100.239 17.7195 100.117 17.681 99.9242 17.681H97.2292C96.7415 17.681 96.4592 17.9312 96.3822 18.4317L96.1512 19.7792C96.1255 19.9717 96.1383 20.1065 96.1897 20.1835C96.2538 20.2477 96.3822 20.3054 96.5747 20.3567L99.9434 21.1267C100.778 21.3321 101.406 21.6786 101.83 22.1662C102.253 22.6539 102.395 23.2571 102.253 23.9757L101.811 26.4397C101.669 27.2482 101.323 27.8899 100.771 28.3648C100.219 28.8396 99.552 29.077 98.7692 29.077H94.5149C93.7192 29.077 93.1032 28.8075 92.6669 28.2685C92.2434 27.7423 92.1022 27.0686 92.2434 26.2472L92.5322 24.5725H95.2272L94.9962 25.9007C94.9577 26.1189 94.9641 26.2665 95.0154 26.3435C95.0796 26.4205 95.2143 26.459 95.4197 26.459H98.3264C98.8141 26.459 99.0964 26.2087 99.1734 25.7082L99.4237 24.2067C99.4493 24.0142 99.4301 23.8859 99.3659 23.8217C99.3146 23.7447 99.1927 23.6806 99.0002 23.6292L95.6314 22.8592C94.8101 22.6667 94.1877 22.3267 93.7642 21.839C93.3535 21.3385 93.2123 20.7289 93.3407 20.0102L93.7449 17.7002C93.8861 16.8917 94.2326 16.2501 94.7844 15.7752C95.3362 15.3004 96.0036 15.063 96.7864 15.063H100.81C101.605 15.063 102.215 15.3325 102.638 15.8715C103.075 16.3977 103.222 17.0714 103.081 17.8927L102.812 19.4135H100.117ZM115.912 25.8815H111.561L110.137 29H107.153L113.929 15.14H117.163L119.107 29H116.258L115.912 25.8815ZM115.623 23.2635L115.065 18.1622L112.755 23.2635H115.623ZM131.222 15.14H133.821L131.396 29H128.527L125.197 19.5482L123.503 29H120.904L123.33 15.14H126.217L129.528 24.5917L131.222 15.14ZM136.79 15.14H143.797C144.593 15.14 145.209 15.4095 145.645 15.9485C146.081 16.4747 146.229 17.1484 146.088 17.9697L144.605 26.3627C144.464 27.1712 144.118 27.8129 143.566 28.2877C143.014 28.7626 142.347 29 141.564 29H134.364L136.79 15.14ZM137.598 26.382H141.121C141.57 26.382 141.846 26.1317 141.949 25.6312L143.239 18.3162C143.277 18.0981 143.264 17.9505 143.2 17.8735C143.149 17.7965 143.02 17.758 142.815 17.758H139.1L137.598 26.382ZM158.722 29.077H154.391C153.608 29.077 152.992 28.8075 152.543 28.2685C152.119 27.7423 151.978 27.0686 152.119 26.2472L153.621 17.7002C153.762 16.8917 154.108 16.2501 154.66 15.7752C155.212 15.3004 155.879 15.063 156.662 15.063H160.993C161.789 15.063 162.399 15.3325 162.822 15.8715C163.258 16.3977 163.406 17.0714 163.265 17.8927L162.899 20.0295H160.127L160.435 18.2392C160.474 18.0211 160.461 17.8735 160.397 17.7965C160.345 17.7195 160.217 17.681 160.012 17.681H157.105C156.643 17.681 156.36 17.9312 156.258 18.4317L154.949 25.9007C154.91 26.1189 154.917 26.2665 154.968 26.3435C155.032 26.4205 155.167 26.459 155.372 26.459H158.279C158.767 26.459 159.049 26.2087 159.126 25.7082L159.396 24.1105H162.168L161.763 26.4397C161.622 27.2482 161.276 27.8899 160.724 28.3648C160.172 28.8396 159.505 29.077 158.722 29.077ZM170.702 29.077H166.14C165.357 29.077 164.741 28.8075 164.292 28.2685C163.868 27.7423 163.727 27.0686 163.868 26.2472L165.37 17.7002C165.511 16.8917 165.857 16.2501 166.409 15.7752C166.961 15.3004 167.628 15.063 168.411 15.063H172.974C173.769 15.063 174.379 15.3325 174.802 15.8715C175.239 16.3977 175.386 17.0714 175.245 17.8927L173.744 26.4397C173.602 27.2482 173.256 27.8899 172.704 28.3648C172.152 28.8396 171.485 29.077 170.702 29.077ZM168.007 18.4317L166.698 25.9007C166.66 26.1189 166.666 26.2665 166.717 26.3435C166.781 26.4205 166.916 26.459 167.122 26.459H170.279C170.741 26.459 171.016 26.2087 171.106 25.7082L172.415 18.2392C172.454 18.0211 172.441 17.8735 172.377 17.7965C172.325 17.7195 172.204 17.681 172.011 17.681H168.854C168.392 17.681 168.11 17.9312 168.007 18.4317ZM186.04 15.14H188.639L186.213 29H183.345L180.015 19.5482L178.321 29H175.722L178.147 15.14H181.035L184.346 24.5917L186.04 15.14ZM191.607 15.14H198.614C199.41 15.14 200.026 15.4095 200.462 15.9485C200.899 16.4747 201.046 17.1484 200.905 17.9697L199.423 26.3627C199.282 27.1712 198.935 27.8129 198.383 28.2877C197.831 28.7626 197.164 29 196.381 29H189.182L191.607 15.14ZM192.416 26.382H195.938C196.388 26.382 196.664 26.1317 196.766 25.6312L198.056 18.3162C198.094 18.0981 198.082 17.9505 198.017 17.8735C197.966 17.7965 197.838 17.758 197.632 17.758H193.917L192.416 26.382ZM201.589 29L204.014 15.14H206.786L204.361 29H201.589ZM218.103 17.7195H214.58L212.597 29H209.825L211.808 17.7195H208.285L208.728 15.14H218.545L218.103 17.7195ZM218.057 29L220.482 15.14H223.254L220.829 29H218.057ZM230.99 29.077H226.428C225.645 29.077 225.029 28.8075 224.58 28.2685C224.156 27.7423 224.015 27.0686 224.156 26.2472L225.658 17.7002C225.799 16.8917 226.145 16.2501 226.697 15.7752C227.249 15.3004 227.916 15.063 228.699 15.063H233.261C234.057 15.063 234.667 15.3325 235.09 15.8715C235.526 16.3977 235.674 17.0714 235.533 17.8927L234.031 26.4397C233.89 27.2482 233.544 27.8899 232.992 28.3648C232.44 28.8396 231.773 29.077 230.99 29.077ZM228.295 18.4317L226.986 25.9007C226.947 26.1189 226.954 26.2665 227.005 26.3435C227.069 26.4205 227.204 26.459 227.409 26.459H230.566C231.028 26.459 231.304 26.2087 231.394 25.7082L232.703 18.2392C232.742 18.0211 232.729 17.8735 232.665 17.7965C232.613 17.7195 232.491 17.681 232.299 17.681H229.142C228.68 17.681 228.398 17.9312 228.295 18.4317ZM246.328 15.14H248.926L246.501 29H243.633L240.302 19.5482L238.608 29H236.01L238.435 15.14H241.323L244.634 24.5917L246.328 15.14ZM257.651 19.4135L257.863 18.2392C257.901 18.0211 257.888 17.8735 257.824 17.7965C257.773 17.7195 257.651 17.681 257.458 17.681H254.763C254.276 17.681 253.993 17.9312 253.916 18.4317L253.685 19.7792C253.66 19.9717 253.673 20.1065 253.724 20.1835C253.788 20.2477 253.916 20.3054 254.109 20.3567L257.478 21.1267C258.312 21.3321 258.941 21.6786 259.364 22.1662C259.788 22.6539 259.929 23.2571 259.788 23.9757L259.345 26.4397C259.204 27.2482 258.857 27.8899 258.305 28.3648C257.754 28.8396 257.086 29.077 256.303 29.077H252.049C251.253 29.077 250.637 28.8075 250.201 28.2685C249.778 27.7423 249.636 27.0686 249.778 26.2472L250.066 24.5725H252.761L252.53 25.9007C252.492 26.1189 252.498 26.2665 252.55 26.3435C252.614 26.4205 252.749 26.459 252.954 26.459H255.861C256.348 26.459 256.631 26.2087 256.708 25.7082L256.958 24.2067C256.984 24.0142 256.964 23.8859 256.9 23.8217C256.849 23.7447 256.727 23.6806 256.534 23.6292L253.166 22.8592C252.344 22.6667 251.722 22.3267 251.298 21.839C250.888 21.3385 250.747 20.7289 250.875 20.0102L251.279 17.7002C251.42 16.8917 251.767 16.2501 252.319 15.7752C252.87 15.3004 253.538 15.063 254.321 15.063H258.344C259.14 15.063 259.749 15.3325 260.173 15.8715C260.609 16.3977 260.757 17.0714 260.615 17.8927L260.346 19.4135H257.651Z" fill="white"/>
<path d="M1 29L21.373 1H287.084L302 16.2727L280.899 45H15.5522L1 29Z" stroke="white" stroke-opacity="0.5" stroke-width="0.804976"/>
</svg>
