<svg width="200" height="34" viewBox="0 0 200 34" fill="none" xmlns="http://www.w3.org/2000/svg">
<rect x="1" y="1" width="198" height="32" stroke="white" stroke-opacity="0.1" stroke-width="2"/>
<path d="M38.8767 14.148V12.6H45.1167V14.148H42.8487V21H41.1327V14.148H38.8767ZM47.1957 21V19.548H51.4317V21H47.1957ZM47.1957 14.052V12.6H51.4317V14.052H47.1957ZM47.1957 17.256V15.828H51.1917V17.256H47.1957ZM46.0917 12.6H47.7477V21H46.0917V12.6ZM55.0309 17.088H56.8429L59.5789 21H57.5509L55.0309 17.088ZM53.1229 12.6H54.8389V21H53.1229V12.6ZM54.1669 14.064V12.6H55.9429C56.6069 12.6 57.1709 12.712 57.6349 12.936C58.0989 13.16 58.4549 13.472 58.7029 13.872C58.9509 14.272 59.0749 14.74 59.0749 15.276C59.0749 15.804 58.9509 16.272 58.7029 16.68C58.4549 17.08 58.0989 17.392 57.6349 17.616C57.1709 17.84 56.6069 17.952 55.9429 17.952H54.1669V16.584H55.8349C56.1389 16.584 56.3989 16.536 56.6149 16.44C56.8389 16.336 57.0109 16.192 57.1309 16.008C57.2509 15.816 57.3109 15.588 57.3109 15.324C57.3109 15.06 57.2509 14.836 57.1309 14.652C57.0109 14.46 56.8389 14.316 56.6149 14.22C56.3989 14.116 56.1389 14.064 55.8349 14.064H54.1669ZM62.4123 16.284L61.8723 21H60.0843L61.3323 12.18L64.8483 17.604L68.3643 12.18L69.6123 21H67.8243L67.2843 16.284L64.8483 20.22L62.4123 16.284ZM72.0629 21V19.548H76.2989V21H72.0629ZM72.0629 14.052V12.6H76.2989V14.052H72.0629ZM72.0629 17.256V15.828H76.0589V17.256H72.0629ZM70.9589 12.6H72.6149V21H70.9589V12.6ZM83.9661 12.6H85.6221V21.42L79.6461 15.792V21H77.9901V12.18L83.9661 17.808V12.6ZM87.4472 12.6H89.1872V21H87.4472V12.6ZM95.3636 18.084C95.5076 18.34 95.6516 18.572 95.7956 18.78C95.9476 18.98 96.1036 19.152 96.2636 19.296C96.4316 19.432 96.6116 19.536 96.8036 19.608C97.0036 19.672 97.2196 19.704 97.4516 19.704C97.7076 19.704 97.9196 19.668 98.0876 19.596C98.2556 19.516 98.3836 19.404 98.4716 19.26C98.5596 19.116 98.6036 18.936 98.6036 18.72C98.6036 18.448 98.5196 18.228 98.3516 18.06C98.1836 17.884 97.9636 17.736 97.6916 17.616C97.4196 17.488 97.1236 17.364 96.8036 17.244C96.5956 17.164 96.3636 17.06 96.1076 16.932C95.8516 16.804 95.6076 16.644 95.3756 16.452C95.1516 16.252 94.9636 16.012 94.8116 15.732C94.6596 15.444 94.5836 15.104 94.5836 14.712C94.5836 14.248 94.7036 13.848 94.9436 13.512C95.1836 13.168 95.5116 12.904 95.9276 12.72C96.3516 12.528 96.8356 12.432 97.3796 12.432C97.9316 12.432 98.4036 12.524 98.7956 12.708C99.1876 12.892 99.5076 13.124 99.7556 13.404C100.004 13.684 100.184 13.968 100.296 14.256L98.9876 15.036C98.8676 14.82 98.7316 14.628 98.5796 14.46C98.4356 14.292 98.2716 14.16 98.0876 14.064C97.9036 13.968 97.6876 13.92 97.4396 13.92C97.2156 13.92 97.0196 13.956 96.8516 14.028C96.6916 14.1 96.5636 14.2 96.4676 14.328C96.3796 14.448 96.3356 14.6 96.3356 14.784C96.3356 15 96.4276 15.184 96.6116 15.336C96.7956 15.48 97.0356 15.616 97.3316 15.744C97.6276 15.864 97.9436 15.984 98.2796 16.104C98.5436 16.208 98.8036 16.332 99.0596 16.476C99.3156 16.612 99.5436 16.78 99.7436 16.98C99.9516 17.18 100.112 17.42 100.224 17.7C100.344 17.972 100.404 18.296 100.404 18.672C100.404 19.208 100.284 19.668 100.044 20.052C99.8036 20.436 99.4596 20.728 99.0116 20.928C98.5636 21.128 98.0276 21.228 97.4036 21.228C96.9076 21.228 96.4396 21.132 95.9996 20.94C95.5676 20.748 95.1876 20.48 94.8596 20.136C94.5396 19.792 94.2916 19.392 94.1156 18.936L95.3636 18.084ZM96.9476 21.84L98.4956 22.224L97.0436 25.224L95.8916 24.948L96.9476 21.84ZM101.803 12.6H103.543V21H101.803V12.6ZM110.331 16.8C110.331 17.352 110.455 17.836 110.703 18.252C110.959 18.66 111.291 18.976 111.699 19.2C112.107 19.416 112.551 19.524 113.031 19.524C113.431 19.524 113.787 19.472 114.099 19.368C114.411 19.264 114.691 19.124 114.939 18.948C115.195 18.772 115.415 18.58 115.599 18.372V20.304C115.255 20.576 114.879 20.788 114.471 20.94C114.071 21.092 113.563 21.168 112.947 21.168C112.307 21.168 111.711 21.064 111.159 20.856C110.615 20.648 110.139 20.348 109.731 19.956C109.331 19.564 109.019 19.104 108.795 18.576C108.579 18.04 108.471 17.448 108.471 16.8C108.471 16.152 108.579 15.564 108.795 15.036C109.019 14.5 109.331 14.036 109.731 13.644C110.139 13.252 110.615 12.952 111.159 12.744C111.711 12.536 112.307 12.432 112.947 12.432C113.563 12.432 114.071 12.508 114.471 12.66C114.879 12.812 115.255 13.024 115.599 13.296V15.228C115.415 15.02 115.195 14.828 114.939 14.652C114.691 14.476 114.411 14.336 114.099 14.232C113.787 14.128 113.431 14.076 113.031 14.076C112.551 14.076 112.107 14.188 111.699 14.412C111.291 14.628 110.959 14.94 110.703 15.348C110.455 15.756 110.331 16.24 110.331 16.8ZM118.639 16.8C118.639 17.336 118.751 17.812 118.975 18.228C119.199 18.644 119.507 18.972 119.899 19.212C120.291 19.452 120.747 19.572 121.267 19.572C121.787 19.572 122.243 19.452 122.635 19.212C123.027 18.972 123.331 18.644 123.547 18.228C123.771 17.812 123.883 17.336 123.883 16.8C123.883 16.264 123.775 15.788 123.559 15.372C123.343 14.956 123.039 14.628 122.647 14.388C122.255 14.148 121.795 14.028 121.267 14.028C120.747 14.028 120.291 14.148 119.899 14.388C119.507 14.628 119.199 14.956 118.975 15.372C118.751 15.788 118.639 16.264 118.639 16.8ZM116.827 16.8C116.827 16.16 116.939 15.576 117.163 15.048C117.387 14.512 117.699 14.048 118.099 13.656C118.499 13.264 118.967 12.964 119.503 12.756C120.047 12.54 120.635 12.432 121.267 12.432C121.907 12.432 122.495 12.54 123.031 12.756C123.567 12.964 124.035 13.264 124.435 13.656C124.843 14.048 125.155 14.512 125.371 15.048C125.595 15.576 125.707 16.16 125.707 16.8C125.707 17.432 125.595 18.02 125.371 18.564C125.155 19.1 124.847 19.568 124.447 19.968C124.055 20.368 123.587 20.68 123.043 20.904C122.507 21.12 121.915 21.228 121.267 21.228C120.619 21.228 120.023 21.12 119.479 20.904C118.943 20.68 118.475 20.368 118.075 19.968C117.675 19.568 117.367 19.1 117.151 18.564C116.935 18.02 116.827 17.432 116.827 16.8ZM133.009 12.6H134.665V21.42L128.689 15.792V21H127.033V12.18L133.009 17.808V12.6ZM136.49 12.6H138.242V21H136.49V12.6ZM139.346 21H137.594V19.44H139.286C139.654 19.44 140.002 19.392 140.33 19.296C140.658 19.192 140.946 19.032 141.194 18.816C141.442 18.6 141.634 18.328 141.77 18C141.914 17.664 141.986 17.264 141.986 16.8C141.986 16.336 141.914 15.94 141.77 15.612C141.634 15.276 141.442 15 141.194 14.784C140.946 14.568 140.658 14.412 140.33 14.316C140.002 14.212 139.654 14.16 139.286 14.16H137.594V12.6H139.346C140.226 12.6 140.994 12.772 141.65 13.116C142.314 13.46 142.83 13.948 143.198 14.58C143.566 15.204 143.75 15.944 143.75 16.8C143.75 17.656 143.566 18.4 143.198 19.032C142.83 19.656 142.314 20.14 141.65 20.484C140.994 20.828 140.226 21 139.346 21ZM145.08 12.6H146.82V21H145.08V12.6ZM147.791 14.148V12.6H154.031V14.148H151.763V21H150.047V14.148H147.791ZM150.671 21.72L152.219 22.104L150.767 25.104L149.615 24.828L150.671 21.72ZM155.006 12.6H156.746V21H155.006V12.6ZM158.557 12.6H160.297V21H158.557V12.6Z" fill="#FFF1B6"/>
</svg>
