<svg width="276" height="97" viewBox="0 0 276 97" fill="none" xmlns="http://www.w3.org/2000/svg">
<g filter="url(#filter0_d_104_14)">
<path d="M58.0377 57.168L58.2057 56.174C58.2617 55.9033 58.159 55.768 57.8977 55.768H55.6577C55.3217 55.768 55.1164 55.95 55.0417 56.314L54.0897 61.746C54.0617 61.9047 54.0664 62.012 54.1037 62.068C54.1504 62.124 54.2484 62.152 54.3977 62.152H56.6377C56.9737 62.152 57.179 61.97 57.2537 61.606L57.5057 60.178H55.7137L56.0357 58.358H59.8437L59.1717 62.138C59.069 62.726 58.817 63.1927 58.4157 63.538C58.0144 63.8833 57.529 64.056 56.9597 64.056H53.6837C53.1144 64.056 52.6664 63.86 52.3397 63.468C52.0317 63.0853 51.929 62.5953 52.0317 61.998L53.1237 55.782C53.2264 55.194 53.4784 54.7273 53.8797 54.382C54.281 54.0367 54.7664 53.864 55.3357 53.864H58.6117C59.1904 53.864 59.6337 54.06 59.9417 54.452C60.259 54.8347 60.3664 55.3247 60.2637 55.922L60.0537 57.168H58.0377ZM62.3344 53.92H68.8164L68.4804 55.824H64.0144L63.6504 57.896H67.2624L66.9264 59.8H63.3144L62.9224 62.096H67.3884L67.0524 64H60.5704L62.3344 53.92ZM74.6278 57.028L74.7818 56.174C74.8098 56.0153 74.8005 55.908 74.7538 55.852C74.7165 55.796 74.6278 55.768 74.4878 55.768H72.5278C72.1731 55.768 71.9678 55.95 71.9118 56.314L71.7438 57.294C71.7251 57.434 71.7345 57.532 71.7718 57.588C71.8185 57.6347 71.9118 57.6767 72.0518 57.714L74.5018 58.274C75.1085 58.4233 75.5658 58.6753 75.8738 59.03C76.1818 59.3847 76.2845 59.8233 76.1818 60.346L75.8598 62.138C75.7571 62.726 75.5051 63.1927 75.1038 63.538C74.7025 63.8833 74.2171 64.056 73.6478 64.056H70.5538C69.9751 64.056 69.5271 63.86 69.2098 63.468C68.9018 63.0853 68.7991 62.5953 68.9018 61.998L69.1118 60.78H71.0718L70.9038 61.746C70.8758 61.9047 70.8805 62.012 70.9178 62.068C70.9645 62.124 71.0625 62.152 71.2118 62.152H73.3258C73.6805 62.152 73.8858 61.97 73.9418 61.606L74.1238 60.514C74.1425 60.374 74.1285 60.2807 74.0818 60.234C74.0445 60.178 73.9558 60.1313 73.8158 60.094L71.3658 59.534C70.7685 59.394 70.3158 59.1467 70.0078 58.792C69.7091 58.428 69.6065 57.9847 69.6998 57.462L69.9938 55.782C70.0965 55.194 70.3485 54.7273 70.7498 54.382C71.1511 54.0367 71.6365 53.864 72.2058 53.864H75.1318C75.7105 53.864 76.1538 54.06 76.4618 54.452C76.7791 54.8347 76.8865 55.3247 76.7838 55.922L76.5878 57.028H74.6278ZM82.3181 64.056H79.1681C78.5987 64.056 78.1507 63.86 77.8241 63.468C77.5161 63.0853 77.4134 62.5953 77.5161 61.998L78.6081 55.782C78.7107 55.194 78.9627 54.7273 79.3641 54.382C79.7654 54.0367 80.2507 53.864 80.8201 53.864H83.9701C84.5487 53.864 84.9921 54.06 85.3001 54.452C85.6174 54.8347 85.7247 55.3247 85.6221 55.922L85.3561 57.476H83.3401L83.5641 56.174C83.5921 56.0153 83.5827 55.908 83.5361 55.852C83.4987 55.796 83.4054 55.768 83.2561 55.768H81.1421C80.8061 55.768 80.6007 55.95 80.5261 56.314L79.5741 61.746C79.5461 61.9047 79.5507 62.012 79.5881 62.068C79.6347 62.124 79.7327 62.152 79.8821 62.152H81.9961C82.3507 62.152 82.5561 61.97 82.6121 61.606L82.8081 60.444H84.8241L84.5301 62.138C84.4274 62.726 84.1754 63.1927 83.7741 63.538C83.3727 63.8833 82.8874 64.056 82.3181 64.056ZM85.795 64L87.559 53.92H89.575L88.875 57.896H92.221L92.921 53.92H94.937L93.173 64H91.157L91.885 59.8H88.539L87.811 64H85.795ZM100.196 52.94H98.5023L98.8103 51.204H100.504L100.196 52.94ZM102.996 52.94H101.288L101.596 51.204H103.304L102.996 52.94ZM101.722 53.92L103.136 64H101.064L100.812 61.732H97.6483L96.6123 64H94.4423L99.3703 53.92H101.722ZM100.602 59.828L100.196 56.118L98.5163 59.828H100.602ZM104.443 64L106.207 53.92H112.689L112.353 55.824H107.887L107.509 57.98H111.121L110.785 59.884H107.173L106.459 64H104.443ZM120.254 55.796H117.692L116.25 64H114.234L115.676 55.796H113.114L113.436 53.92H120.576L120.254 55.796ZM126.034 57.028L126.188 56.174C126.216 56.0153 126.207 55.908 126.16 55.852C126.123 55.796 126.034 55.768 125.894 55.768H123.934C123.579 55.768 123.374 55.95 123.318 56.314L123.15 57.294C123.131 57.434 123.141 57.532 123.178 57.588C123.225 57.6347 123.318 57.6767 123.458 57.714L125.908 58.274C126.515 58.4233 126.972 58.6753 127.28 59.03C127.588 59.3847 127.691 59.8233 127.588 60.346L127.266 62.138C127.163 62.726 126.911 63.1927 126.51 63.538C126.109 63.8833 125.623 64.056 125.054 64.056H121.96C121.381 64.056 120.933 63.86 120.616 63.468C120.308 63.0853 120.205 62.5953 120.308 61.998L120.518 60.78H122.478L122.31 61.746C122.282 61.9047 122.287 62.012 122.324 62.068C122.371 62.124 122.469 62.152 122.618 62.152H124.732C125.087 62.152 125.292 61.97 125.348 61.606L125.53 60.514C125.549 60.374 125.535 60.2807 125.488 60.234C125.451 60.178 125.362 60.1313 125.222 60.094L122.772 59.534C122.175 59.394 121.722 59.1467 121.414 58.792C121.115 58.428 121.013 57.9847 121.106 57.462L121.4 55.782C121.503 55.194 121.755 54.7273 122.156 54.382C122.557 54.0367 123.043 53.864 123.612 53.864H126.538C127.117 53.864 127.56 54.06 127.868 54.452C128.185 54.8347 128.293 55.3247 128.19 55.922L127.994 57.028H126.034ZM130.42 53.92H135.362C135.932 53.92 136.375 54.116 136.692 54.508C137.01 54.9 137.122 55.39 137.028 55.978L136.776 57.406C136.646 58.078 136.268 58.582 135.642 58.918C135.922 59.058 136.123 59.2633 136.244 59.534C136.366 59.8047 136.398 60.1033 136.342 60.43L136.062 62.082C135.96 62.67 135.708 63.1367 135.306 63.482C134.905 63.8273 134.42 64 133.85 64H128.656L130.42 53.92ZM131.736 57.952H134.144C134.275 57.952 134.373 57.9473 134.438 57.938C134.504 57.9193 134.564 57.868 134.62 57.784C134.686 57.7 134.732 57.574 134.76 57.406L134.97 56.202C134.998 56.0433 134.989 55.936 134.942 55.88C134.905 55.824 134.812 55.796 134.662 55.796H132.114L131.736 57.952ZM130.994 62.124H133.514C133.869 62.124 134.074 61.942 134.13 61.578L134.382 60.122C134.392 60.0753 134.396 60.0333 134.396 59.996C134.406 59.9587 134.406 59.9307 134.396 59.912C134.387 59.884 134.382 59.8607 134.382 59.842C134.382 59.8233 134.368 59.8093 134.34 59.8C134.312 59.7813 134.294 59.772 134.284 59.772C134.275 59.7627 134.247 59.758 134.2 59.758C134.163 59.7487 134.135 59.744 134.116 59.744C134.107 59.744 134.074 59.744 134.018 59.744C133.962 59.744 133.925 59.744 133.906 59.744H131.414L130.994 62.124ZM139.321 53.92H145.803L145.467 55.824H141.001L140.637 57.896H144.249L143.913 59.8H140.301L139.909 62.096H144.375L144.039 64H137.557L139.321 53.92ZM147.538 53.92H152.634C153.212 53.92 153.66 54.116 153.978 54.508C154.295 54.8907 154.402 55.3807 154.3 55.978L153.222 62.082C153.119 62.67 152.867 63.1367 152.466 63.482C152.064 63.8273 151.579 64 151.01 64H145.774L147.538 53.92ZM148.126 62.096H150.688C151.014 62.096 151.215 61.914 151.29 61.55L152.228 56.23C152.256 56.0713 152.246 55.964 152.2 55.908C152.162 55.852 152.069 55.824 151.92 55.824H149.218L148.126 62.096ZM154.797 64L156.561 53.92H158.577L156.813 64H154.797ZM166.471 53.92H168.361L166.597 64H164.511L162.089 57.126L160.857 64H158.967L160.731 53.92H162.831L165.239 60.794L166.471 53.92ZM175.028 57.168L175.196 56.174C175.252 55.9033 175.149 55.768 174.888 55.768H172.648C172.312 55.768 172.107 55.95 172.032 56.314L171.08 61.746C171.052 61.9047 171.057 62.012 171.094 62.068C171.141 62.124 171.239 62.152 171.388 62.152H173.628C173.964 62.152 174.169 61.97 174.244 61.606L174.496 60.178H172.704L173.026 58.358H176.834L176.162 62.138C176.059 62.726 175.807 63.1927 175.406 63.538C175.005 63.8833 174.519 64.056 173.95 64.056H170.674C170.105 64.056 169.657 63.86 169.33 63.468C169.022 63.0853 168.919 62.5953 169.022 61.998L170.114 55.782C170.217 55.194 170.469 54.7273 170.87 54.382C171.271 54.0367 171.757 53.864 172.326 53.864H175.602C176.181 53.864 176.624 54.06 176.932 54.452C177.249 54.8347 177.357 55.3247 177.254 55.922L177.044 57.168H175.028ZM186.395 53.92L184.953 62.138C184.85 62.726 184.598 63.1927 184.197 63.538C183.795 63.8833 183.31 64.056 182.741 64.056H179.563C178.993 64.056 178.545 63.86 178.219 63.468C177.911 63.0853 177.808 62.5953 177.911 61.998L179.325 53.92H181.341L179.969 61.746C179.941 61.9047 179.945 62.012 179.983 62.068C180.029 62.124 180.127 62.152 180.277 62.152H182.419C182.764 62.152 182.969 61.97 183.035 61.606L184.379 53.92H186.395ZM193.979 53.92H195.869L194.105 64H192.019L189.597 57.126L188.365 64H186.475L188.239 53.92H190.339L192.747 60.794L193.979 53.92ZM202.536 57.168L202.704 56.174C202.76 55.9033 202.657 55.768 202.396 55.768H200.156C199.82 55.768 199.614 55.95 199.54 56.314L198.588 61.746C198.56 61.9047 198.564 62.012 198.602 62.068C198.648 62.124 198.746 62.152 198.896 62.152H201.136C201.472 62.152 201.677 61.97 201.752 61.606L202.004 60.178H200.212L200.534 58.358H204.342L203.67 62.138C203.567 62.726 203.315 63.1927 202.914 63.538C202.512 63.8833 202.027 64.056 201.458 64.056H198.182C197.612 64.056 197.164 63.86 196.838 63.468C196.53 63.0853 196.427 62.5953 196.53 61.998L197.622 55.782C197.724 55.194 197.976 54.7273 198.378 54.382C198.779 54.0367 199.264 53.864 199.834 53.864H203.11C203.688 53.864 204.132 54.06 204.44 54.452C204.757 54.8347 204.864 55.3247 204.762 55.922L204.552 57.168H202.536ZM206.832 53.92H213.314L212.978 55.824H208.512L208.148 57.896H211.76L211.424 59.8H207.812L207.42 62.096H211.886L211.55 64H205.068L206.832 53.92ZM220.789 53.92H222.679L220.915 64H218.829L216.407 57.126L215.175 64H213.285L215.049 53.92H217.149L219.557 60.794L220.789 53.92Z" fill="white"/>
</g>
<path d="M28 63.3636L42.8168 43H236.061L246.909 54.1074L231.563 75H38.5834L28 63.3636Z" stroke="white" stroke-opacity="0.5"/>
<defs>
<filter id="filter0_d_104_14" x="0.883161" y="0.209455" width="274.49" height="116.541" filterUnits="userSpaceOnUse" color-interpolation-filters="sRGB">
<feFlood flood-opacity="0" result="BackgroundImageFix"/>
<feColorMatrix in="SourceAlpha" type="matrix" values="0 0 0 0 0 0 0 0 0 0 0 0 0 0 0 0 0 0 127 0" result="hardAlpha"/>
<feOffset dx="0.849909" dy="0.849909"/>
<feGaussianBlur stdDeviation="25.9222"/>
<feComposite in2="hardAlpha" operator="out"/>
<feColorMatrix type="matrix" values="0 0 0 0 0 0 0 0 0 0 0 0 0 0 0 0 0 0 1 0"/>
<feBlend mode="normal" in2="BackgroundImageFix" result="effect1_dropShadow_104_14"/>
<feBlend mode="normal" in="SourceGraphic" in2="effect1_dropShadow_104_14" result="shape"/>
</filter>
</defs>
</svg>
