<svg width="244" height="50" viewBox="0 0 244 50" fill="none" xmlns="http://www.w3.org/2000/svg">
<path d="M33.6676 27.76C32.9476 28.176 32.1636 28.336 31.3636 28.336C28.9956 28.336 27.3156 26.672 27.3156 24.4C27.3156 22.08 28.9956 20.464 31.3796 20.464C32.5796 20.464 33.5876 20.864 34.4676 21.744L35.7796 20.464C34.7236 19.264 33.1556 18.64 31.2836 18.64C27.7796 18.64 25.2196 21.056 25.2196 24.4C25.2196 27.744 27.7796 30.16 31.2516 30.16C32.8356 30.16 34.4676 29.68 35.6356 28.736V24.272H33.6676V27.76ZM46.219 25.776C46.219 23.104 44.395 21.36 41.899 21.36C39.355 21.36 37.483 23.184 37.483 25.728C37.483 28.272 39.339 30.112 42.203 30.112C43.675 30.112 44.875 29.632 45.643 28.72L44.571 27.488C43.963 28.112 43.211 28.416 42.251 28.416C40.763 28.416 39.723 27.616 39.483 26.368H46.187C46.203 26.176 46.219 25.936 46.219 25.776ZM41.899 22.96C43.211 22.96 44.155 23.808 44.315 25.04H39.467C39.659 23.792 40.603 22.96 41.899 22.96ZM50.7801 30.112C53.1801 30.112 54.6521 29.072 54.6521 27.472C54.6521 24.128 49.3721 25.664 49.3721 23.936C49.3721 23.376 49.9481 22.976 51.1641 22.976C51.9801 22.976 52.7961 23.136 53.6121 23.616L54.3801 22.096C53.6121 21.632 52.3161 21.36 51.1801 21.36C48.8761 21.36 47.4201 22.416 47.4201 24.032C47.4201 27.44 52.7001 25.904 52.7001 27.536C52.7001 28.128 52.1721 28.48 50.9081 28.48C49.8361 28.48 48.6841 28.128 47.9321 27.632L47.1641 29.152C47.9321 29.696 49.3561 30.112 50.7801 30.112ZM60.2945 30.112C61.9585 30.112 63.2865 29.392 63.9425 28.112L62.4065 27.216C61.8945 28.032 61.1265 28.4 60.2785 28.4C58.8065 28.4 57.6865 27.392 57.6865 25.728C57.6865 24.08 58.8065 23.056 60.2785 23.056C61.1265 23.056 61.8945 23.424 62.4065 24.24L63.9425 23.344C63.2865 22.048 61.9585 21.36 60.2945 21.36C57.5905 21.36 55.6705 23.168 55.6705 25.728C55.6705 28.288 57.5905 30.112 60.2945 30.112ZM70.4413 21.36C69.2573 21.36 68.2493 21.744 67.5933 22.448V18.128H65.5933V30H67.5933V25.68C67.5933 23.968 68.5533 23.104 69.9773 23.104C71.2573 23.104 72.0093 23.84 72.0093 25.36V30H74.0093V25.104C74.0093 22.528 72.4893 21.36 70.4413 21.36ZM78.4344 20.112C78.9784 20.112 79.3944 19.712 79.3944 19.152C79.3944 18.576 78.9784 18.176 78.4344 18.176C77.8904 18.176 77.4744 18.576 77.4744 19.152C77.4744 19.712 77.8904 20.112 78.4344 20.112ZM81.5384 20.112C82.0824 20.112 82.4984 19.712 82.4984 19.152C82.4984 18.576 82.0824 18.176 81.5384 18.176C80.9944 18.176 80.5784 18.576 80.5784 19.152C80.5784 19.712 80.9944 20.112 81.5384 20.112ZM79.8104 21.36C78.4344 21.36 77.1064 21.712 76.1944 22.416L76.9784 23.872C77.6184 23.344 78.6104 23.024 79.5704 23.024C80.9944 23.024 81.6984 23.712 81.6984 24.88V25.008H79.4904C76.8984 25.008 75.9384 26.128 75.9384 27.552C75.9384 29.04 77.1704 30.112 79.1224 30.112C80.4024 30.112 81.3304 29.696 81.8104 28.96V30H83.6984V24.992C83.6984 22.528 82.2744 21.36 79.8104 21.36ZM79.5384 28.656C78.5144 28.656 77.9064 28.192 77.9064 27.472C77.9064 26.848 78.2744 26.336 79.6344 26.336H81.6984V27.328C81.3624 28.208 80.5144 28.656 79.5384 28.656ZM89.7371 19.632C90.1531 19.632 90.5371 19.776 90.8411 19.984L91.4011 18.48C90.9531 18.16 90.2811 18.016 89.5931 18.016C87.6091 18.016 86.5371 19.184 86.5371 20.976V21.52H85.1291V23.12H86.5371V30H88.5371V23.12H90.8251V21.52H88.4731V21.008C88.4731 20.096 88.9051 19.632 89.7371 19.632ZM96.7474 28.112C96.4434 28.352 96.0434 28.464 95.6274 28.464C94.8594 28.464 94.4434 28.016 94.4434 27.184V23.12H96.7314V21.52H94.4434V19.568H92.4434V21.52H91.0354V23.12H92.4434V27.232C92.4434 29.12 93.5154 30.112 95.3874 30.112C96.1074 30.112 96.8274 29.92 97.3074 29.536L96.7474 28.112ZM101.593 30.112C103.993 30.112 105.465 29.072 105.465 27.472C105.465 24.128 100.185 25.664 100.185 23.936C100.185 23.376 100.761 22.976 101.977 22.976C102.793 22.976 103.609 23.136 104.425 23.616L105.193 22.096C104.425 21.632 103.129 21.36 101.993 21.36C99.6886 21.36 98.2326 22.416 98.2326 24.032C98.2326 27.44 103.513 25.904 103.513 27.536C103.513 28.128 102.985 28.48 101.721 28.48C100.649 28.48 99.4966 28.128 98.7446 27.632L97.9766 29.152C98.7446 29.696 100.169 30.112 101.593 30.112ZM111.923 21.36C110.835 21.36 109.875 21.728 109.187 22.496V18.128H107.187V30H109.091V28.896C109.763 29.712 110.755 30.112 111.923 30.112C114.419 30.112 116.259 28.384 116.259 25.728C116.259 23.072 114.419 21.36 111.923 21.36ZM111.699 28.4C110.259 28.4 109.155 27.36 109.155 25.728C109.155 24.096 110.259 23.056 111.699 23.056C113.139 23.056 114.227 24.096 114.227 25.728C114.227 27.36 113.139 28.4 111.699 28.4ZM126.188 25.776C126.188 23.104 124.364 21.36 121.868 21.36C119.324 21.36 117.452 23.184 117.452 25.728C117.452 28.272 119.308 30.112 122.172 30.112C123.644 30.112 124.844 29.632 125.612 28.72L124.54 27.488C123.932 28.112 123.18 28.416 122.22 28.416C120.732 28.416 119.692 27.616 119.452 26.368H126.156C126.172 26.176 126.188 25.936 126.188 25.776ZM121.868 22.96C123.18 22.96 124.124 23.808 124.284 25.04H119.436C119.628 23.792 120.572 22.96 121.868 22.96ZM134.477 18.128V22.512C133.805 21.728 132.829 21.36 131.725 21.36C129.245 21.36 127.405 23.072 127.405 25.728C127.405 28.384 129.245 30.112 131.725 30.112C132.893 30.112 133.885 29.712 134.557 28.896V30H136.477V18.128H134.477ZM131.965 28.4C130.525 28.4 129.421 27.36 129.421 25.728C129.421 24.096 130.525 23.056 131.965 23.056C133.405 23.056 134.509 24.096 134.509 25.728C134.509 27.36 133.405 28.4 131.965 28.4ZM140.101 20.048C140.853 20.048 141.381 19.504 141.381 18.8C141.381 18.144 140.837 17.648 140.101 17.648C139.365 17.648 138.821 18.176 138.821 18.848C138.821 19.52 139.365 20.048 140.101 20.048ZM139.093 30H141.093V21.456H139.093V30ZM148.566 21.36C147.318 21.36 146.278 21.776 145.622 22.56V21.456H143.718V30H145.718V25.68C145.718 23.968 146.678 23.104 148.102 23.104C149.382 23.104 150.134 23.84 150.134 25.36V30H152.134V25.104C152.134 22.528 150.614 21.36 148.566 21.36ZM161.326 21.456V22.592C160.622 21.744 159.566 21.36 158.366 21.36C155.918 21.36 154.046 22.992 154.046 25.472C154.046 27.952 155.918 29.616 158.366 29.616C159.518 29.616 160.526 29.248 161.23 28.48V28.928C161.23 30.656 160.398 31.52 158.51 31.52C157.326 31.52 156.11 31.12 155.358 30.496L154.462 32C155.438 32.8 157.022 33.216 158.622 33.216C161.614 33.216 163.23 31.808 163.23 28.704V21.456H161.326ZM158.67 27.92C157.15 27.92 156.062 26.928 156.062 25.472C156.062 24.032 157.15 23.056 158.67 23.056C160.174 23.056 161.262 24.032 161.262 25.472C161.262 26.928 160.174 27.92 158.67 27.92ZM172.131 21.456V25.776C172.131 27.488 171.187 28.352 169.795 28.352C168.531 28.352 167.795 27.616 167.795 26.064V21.456H165.795V26.336C165.795 28.912 167.283 30.112 169.475 30.112C170.579 30.112 171.587 29.696 172.227 28.912V30H174.131V21.456H172.131ZM181.598 21.36C180.35 21.36 179.31 21.776 178.654 22.56V21.456H176.75V30H178.75V25.68C178.75 23.968 179.71 23.104 181.134 23.104C182.414 23.104 183.166 23.84 183.166 25.36V30H185.166V25.104C185.166 22.528 183.646 21.36 181.598 21.36ZM194.357 21.456V22.592C193.653 21.744 192.597 21.36 191.397 21.36C188.949 21.36 187.077 22.992 187.077 25.472C187.077 27.952 188.949 29.616 191.397 29.616C192.549 29.616 193.557 29.248 194.261 28.48V28.928C194.261 30.656 193.429 31.52 191.541 31.52C190.357 31.52 189.141 31.12 188.389 30.496L187.493 32C188.469 32.8 190.053 33.216 191.653 33.216C194.645 33.216 196.261 31.808 196.261 28.704V21.456H194.357ZM191.701 27.92C190.181 27.92 189.093 26.928 189.093 25.472C189.093 24.032 190.181 23.056 191.701 23.056C193.205 23.056 194.293 24.032 194.293 25.472C194.293 26.928 193.205 27.92 191.701 27.92ZM206.922 25.776C206.922 23.104 205.098 21.36 202.602 21.36C200.058 21.36 198.186 23.184 198.186 25.728C198.186 28.272 200.042 30.112 202.906 30.112C204.378 30.112 205.578 29.632 206.346 28.72L205.274 27.488C204.666 28.112 203.914 28.416 202.954 28.416C201.466 28.416 200.426 27.616 200.186 26.368H206.89C206.906 26.176 206.922 25.936 206.922 25.776ZM202.602 22.96C203.914 22.96 204.858 23.808 205.018 25.04H200.17C200.362 23.792 201.306 22.96 202.602 22.96ZM213.691 21.36C212.443 21.36 211.403 21.776 210.747 22.56V21.456H208.843V30H210.843V25.68C210.843 23.968 211.803 23.104 213.227 23.104C214.507 23.104 215.259 23.84 215.259 25.36V30H217.259V25.104C217.259 22.528 215.739 21.36 213.691 21.36Z" fill="white"/>
<path d="M232.698 1H11.3023L2 24.4545L11.3023 49H232.698L242 24.4545L232.698 1Z" stroke="white" stroke-width="2"/>
</svg>
