<svg width="223" height="38" viewBox="0 0 223 38" fill="none" xmlns="http://www.w3.org/2000/svg">
<path d="M21.8606 24.4546V16.1946H18.6126V14.6546H26.9286V16.1946H23.6806V24.4546H21.8606ZM30.1145 22.9286H35.6445V24.4546H28.2945V14.6546H35.4485V16.1806H30.1145V18.7286H34.8465V20.2266H30.1145V22.9286ZM46.0454 24.4546H44.0854L42.0834 21.5846C41.9574 21.5986 41.8314 21.5986 41.7054 21.5986H39.4934V24.4546H37.6734V14.6546H41.7054C44.2814 14.6546 45.8774 15.9706 45.8774 18.1406C45.8774 19.6246 45.1214 20.7166 43.7914 21.2346L46.0454 24.4546ZM44.0434 18.1406C44.0434 16.9086 43.2174 16.1946 41.6214 16.1946H39.4934V20.1006H41.6214C43.2174 20.1006 44.0434 19.3726 44.0434 18.1406ZM58.6377 24.4546H56.9157L56.9017 17.9586L53.6817 23.3346H52.8697L49.6497 18.0426V24.4546H47.9137V14.6546H49.4117L53.3037 21.1506L57.1257 14.6546H58.6237L58.6377 24.4546ZM64.3228 24.5946C62.7968 24.5946 61.2708 24.1186 60.4588 23.4186L61.0888 22.0046C61.8728 22.6346 63.1188 23.0826 64.3228 23.0826C65.8488 23.0826 66.4928 22.5366 66.4928 21.8086C66.4928 19.6946 60.6688 21.0806 60.6688 17.4406C60.6688 15.8586 61.9288 14.5146 64.6168 14.5146C65.7928 14.5146 67.0248 14.8226 67.8787 15.3826L67.3048 16.7966C66.4228 16.2786 65.4568 16.0266 64.6028 16.0266C63.0908 16.0266 62.4748 16.6146 62.4748 17.3566C62.4748 19.4426 68.2848 18.0846 68.2848 21.6826C68.2848 23.2506 67.0108 24.5946 64.3228 24.5946ZM81.2946 24.4546L80.3146 22.1866H75.4146L74.4486 24.4546H72.5726L76.9826 14.6546H78.7746L83.1986 24.4546H81.2946ZM76.0306 20.7586H79.7126L77.8646 16.4746L76.0306 20.7586ZM91.3469 14.6546H93.1529V24.4546H91.6549L86.2509 17.8186V24.4546H84.4449V14.6546H85.9429L91.3469 21.2906V14.6546ZM95.7789 24.4546V14.6546H100.063C103.241 14.6546 105.411 16.6146 105.411 19.5546C105.411 22.4946 103.241 24.4546 100.063 24.4546H95.7789ZM97.5989 22.9146H99.9789C102.163 22.9146 103.577 21.5846 103.577 19.5546C103.577 17.5246 102.163 16.1946 99.9789 16.1946H97.5989V22.9146ZM115.75 24.5946C112.754 24.5946 110.514 22.4806 110.514 19.5546C110.514 16.6286 112.754 14.5146 115.764 14.5146C117.36 14.5146 118.732 15.0886 119.642 16.1526L118.466 17.2586C117.752 16.4886 116.87 16.1106 115.848 16.1106C113.818 16.1106 112.348 17.5386 112.348 19.5546C112.348 21.5706 113.818 22.9986 115.848 22.9986C116.87 22.9986 117.752 22.6206 118.466 21.8366L119.642 22.9566C118.732 24.0206 117.36 24.5946 115.75 24.5946ZM125.759 24.5946C122.721 24.5946 120.481 22.4526 120.481 19.5546C120.481 16.6566 122.721 14.5146 125.759 14.5146C128.797 14.5146 131.037 16.6426 131.037 19.5546C131.037 22.4666 128.797 24.5946 125.759 24.5946ZM125.759 22.9986C127.733 22.9986 129.203 21.5566 129.203 19.5546C129.203 17.5526 127.733 16.1106 125.759 16.1106C123.785 16.1106 122.315 17.5526 122.315 19.5546C122.315 21.5566 123.785 22.9986 125.759 22.9986ZM139.868 14.6546H141.674V24.4546H140.176L134.772 17.8186V24.4546H132.966V14.6546H134.464L139.868 21.2906V14.6546ZM144.3 24.4546V14.6546H148.584C151.762 14.6546 153.932 16.6146 153.932 19.5546C153.932 22.4946 151.762 24.4546 148.584 24.4546H144.3ZM146.12 22.9146H148.5C150.684 22.9146 152.098 21.5846 152.098 19.5546C152.098 17.5246 150.684 16.1946 148.5 16.1946H146.12V22.9146ZM155.867 24.4546V14.6546H157.687V24.4546H155.867ZM162.325 24.4546V16.1946H159.077V14.6546H167.393V16.1946H164.145V24.4546H162.325ZM168.759 24.4546V14.6546H170.579V24.4546H168.759ZM177.808 24.5946C174.77 24.5946 172.53 22.4526 172.53 19.5546C172.53 16.6566 174.77 14.5146 177.808 14.5146C180.846 14.5146 183.086 16.6426 183.086 19.5546C183.086 22.4666 180.846 24.5946 177.808 24.5946ZM177.808 22.9986C179.782 22.9986 181.252 21.5566 181.252 19.5546C181.252 17.5526 179.782 16.1106 177.808 16.1106C175.834 16.1106 174.364 17.5526 174.364 19.5546C174.364 21.5566 175.834 22.9986 177.808 22.9986ZM191.917 14.6546H193.723V24.4546H192.225L186.821 17.8186V24.4546H185.015V14.6546H186.513L191.917 21.2906V14.6546ZM199.387 24.5946C197.861 24.5946 196.335 24.1186 195.523 23.4186L196.153 22.0046C196.937 22.6346 198.183 23.0826 199.387 23.0826C200.913 23.0826 201.557 22.5366 201.557 21.8086C201.557 19.6946 195.733 21.0806 195.733 17.4406C195.733 15.8586 196.993 14.5146 199.681 14.5146C200.857 14.5146 202.089 14.8226 202.943 15.3826L202.369 16.7966C201.487 16.2786 200.521 16.0266 199.667 16.0266C198.155 16.0266 197.539 16.6146 197.539 17.3566C197.539 19.4426 203.349 18.0846 203.349 21.6826C203.349 23.2506 202.075 24.5946 199.387 24.5946Z" fill="white"/>
<path d="M204.019 1H18.5909C8.87573 1 1.00004 8.87573 1.00008 18.5909C1.00004 28.758 9.24202 37 19.4091 37H204.769C214.472 37 222.307 29.0769 222.198 19.375C222.307 9.25889 214.136 1 204.019 1Z" stroke="white"/>
</svg>
