<svg width="263" height="115" viewBox="0 0 263 115" fill="none" xmlns="http://www.w3.org/2000/svg">
<g filter="url(#filter0_d_49_280)">
<path d="M58.4026 53.796H55.8406L54.3986 62H52.3826L53.8246 53.796H51.2626L51.5846 51.92H58.7246L58.4026 53.796ZM60.1332 51.92H66.6152L66.2792 53.824H61.8132L61.4492 55.896H65.0612L64.7252 57.8H61.1132L60.7212 60.096H65.1872L64.8512 62H58.3692L60.1332 51.92ZM68.35 51.92H73.334C73.9127 51.92 74.3607 52.116 74.678 52.508C74.9953 52.8907 75.1027 53.3807 75 53.978L74.58 56.344C74.3933 57.3613 73.8287 57.982 72.886 58.206L73.866 62H71.752L70.828 58.262H69.26L68.602 62H66.586L68.35 51.92ZM72.648 55.84L72.928 54.23C72.956 54.0713 72.9467 53.964 72.9 53.908C72.8627 53.852 72.7693 53.824 72.62 53.824H70.03L69.582 56.386H72.032C72.368 56.386 72.5733 56.204 72.648 55.84ZM86.7418 51.92L84.9778 62H83.0738L84.2778 55.28L81.2818 60.39H79.8818L78.6218 55.28L77.4178 62H75.5138L77.2778 51.92H79.4338L80.8898 57.884L84.4458 51.92H86.7418ZM93.0848 55.028L93.2388 54.174C93.2668 54.0153 93.2575 53.908 93.2108 53.852C93.1735 53.796 93.0848 53.768 92.9448 53.768H90.9848C90.6302 53.768 90.4248 53.95 90.3688 54.314L90.2008 55.294C90.1822 55.434 90.1915 55.532 90.2288 55.588C90.2755 55.6347 90.3688 55.6767 90.5088 55.714L92.9588 56.274C93.5655 56.4233 94.0228 56.6753 94.3308 57.03C94.6388 57.3847 94.7415 57.8233 94.6388 58.346L94.3168 60.138C94.2142 60.726 93.9622 61.1927 93.5608 61.538C93.1595 61.8833 92.6742 62.056 92.1048 62.056H89.0108C88.4322 62.056 87.9842 61.86 87.6668 61.468C87.3588 61.0853 87.2562 60.5953 87.3588 59.998L87.5688 58.78H89.5288L89.3608 59.746C89.3328 59.9047 89.3375 60.012 89.3748 60.068C89.4215 60.124 89.5195 60.152 89.6688 60.152H91.7828C92.1375 60.152 92.3428 59.97 92.3988 59.606L92.5808 58.514C92.5995 58.374 92.5855 58.2807 92.5388 58.234C92.5015 58.178 92.4128 58.1313 92.2728 58.094L89.8228 57.534C89.2255 57.394 88.7728 57.1467 88.4648 56.792C88.1662 56.428 88.0635 55.9847 88.1568 55.462L88.4508 53.782C88.5535 53.194 88.8055 52.7273 89.2068 52.382C89.6082 52.0367 90.0935 51.864 90.6628 51.864H93.5888C94.1675 51.864 94.6108 52.06 94.9188 52.452C95.2362 52.8347 95.3435 53.3247 95.2408 53.922L95.0448 55.028H93.0848ZM104.572 59.732H101.408L100.372 62H98.2021L103.13 51.92H105.482L106.896 62H104.824L104.572 59.732ZM104.362 57.828L103.956 54.118L102.276 57.828H104.362ZM115.707 51.92H117.597L115.833 62H113.747L111.325 55.126L110.093 62H108.203L109.967 51.92H112.067L114.475 58.794L115.707 51.92ZM119.756 51.92H124.852C125.431 51.92 125.879 52.116 126.196 52.508C126.514 52.8907 126.621 53.3807 126.518 53.978L125.44 60.082C125.338 60.67 125.086 61.1367 124.684 61.482C124.283 61.8273 123.798 62 123.228 62H117.992L119.756 51.92ZM120.344 60.096H122.906C123.233 60.096 123.434 59.914 123.508 59.55L124.446 54.23C124.474 54.0713 124.465 53.964 124.418 53.908C124.381 53.852 124.288 53.824 124.138 53.824H121.436L120.344 60.096ZM135.707 62.056H132.557C131.987 62.056 131.539 61.86 131.213 61.468C130.905 61.0853 130.802 60.5953 130.905 59.998L131.997 53.782C132.099 53.194 132.351 52.7273 132.753 52.382C133.154 52.0367 133.639 51.864 134.209 51.864H137.359C137.937 51.864 138.381 52.06 138.689 52.452C139.006 52.8347 139.113 53.3247 139.011 53.922L138.745 55.476H136.729L136.953 54.174C136.981 54.0153 136.971 53.908 136.925 53.852C136.887 53.796 136.794 53.768 136.645 53.768H134.531C134.195 53.768 133.989 53.95 133.915 54.314L132.963 59.746C132.935 59.9047 132.939 60.012 132.977 60.068C133.023 60.124 133.121 60.152 133.271 60.152H135.385C135.739 60.152 135.945 59.97 136.001 59.606L136.197 58.444H138.213L137.919 60.138C137.816 60.726 137.564 61.1927 137.163 61.538C136.761 61.8833 136.276 62.056 135.707 62.056ZM144.42 62.056H141.102C140.532 62.056 140.084 61.86 139.758 61.468C139.45 61.0853 139.347 60.5953 139.45 59.998L140.542 53.782C140.644 53.194 140.896 52.7273 141.298 52.382C141.699 52.0367 142.184 51.864 142.754 51.864H146.072C146.65 51.864 147.094 52.06 147.402 52.452C147.719 52.8347 147.826 53.3247 147.724 53.922L146.632 60.138C146.529 60.726 146.277 61.1927 145.876 61.538C145.474 61.8833 144.989 62.056 144.42 62.056ZM142.46 54.314L141.508 59.746C141.48 59.9047 141.484 60.012 141.522 60.068C141.568 60.124 141.666 60.152 141.816 60.152H144.112C144.448 60.152 144.648 59.97 144.714 59.606L145.666 54.174C145.694 54.0153 145.684 53.908 145.638 53.852C145.6 53.796 145.512 53.768 145.372 53.768H143.076C142.74 53.768 142.534 53.95 142.46 54.314ZM155.574 51.92H157.464L155.7 62H153.614L151.192 55.126L149.96 62H148.07L149.834 51.92H151.934L154.342 58.794L155.574 51.92ZM159.623 51.92H164.719C165.298 51.92 165.746 52.116 166.063 52.508C166.381 52.8907 166.488 53.3807 166.385 53.978L165.307 60.082C165.205 60.67 164.953 61.1367 164.551 61.482C164.15 61.8273 163.665 62 163.095 62H157.859L159.623 51.92ZM160.211 60.096H162.773C163.1 60.096 163.301 59.914 163.375 59.55L164.313 54.23C164.341 54.0713 164.332 53.964 164.285 53.908C164.248 53.852 164.155 53.824 164.005 53.824H161.303L160.211 60.096ZM166.883 62L168.647 51.92H170.663L168.899 62H166.883ZM178.893 53.796H176.331L174.889 62H172.873L174.315 53.796H171.753L172.075 51.92H179.215L178.893 53.796ZM178.859 62L180.623 51.92H182.639L180.875 62H178.859ZM188.265 62.056H184.947C184.378 62.056 183.93 61.86 183.603 61.468C183.295 61.0853 183.193 60.5953 183.295 59.998L184.387 53.782C184.49 53.194 184.742 52.7273 185.143 52.382C185.545 52.0367 186.03 51.864 186.599 51.864H189.917C190.496 51.864 190.939 52.06 191.247 52.452C191.565 52.8347 191.672 53.3247 191.569 53.922L190.477 60.138C190.375 60.726 190.123 61.1927 189.721 61.538C189.32 61.8833 188.835 62.056 188.265 62.056ZM186.305 54.314L185.353 59.746C185.325 59.9047 185.33 60.012 185.367 60.068C185.414 60.124 185.512 60.152 185.661 60.152H187.957C188.293 60.152 188.494 59.97 188.559 59.606L189.511 54.174C189.539 54.0153 189.53 53.908 189.483 53.852C189.446 53.796 189.357 53.768 189.217 53.768H186.921C186.585 53.768 186.38 53.95 186.305 54.314ZM199.42 51.92H201.31L199.546 62H197.46L195.038 55.126L193.806 62H191.916L193.68 51.92H195.78L198.188 58.794L199.42 51.92ZM207.655 55.028L207.809 54.174C207.837 54.0153 207.828 53.908 207.781 53.852C207.744 53.796 207.655 53.768 207.515 53.768H205.555C205.2 53.768 204.995 53.95 204.939 54.314L204.771 55.294C204.752 55.434 204.762 55.532 204.799 55.588C204.846 55.6347 204.939 55.6767 205.079 55.714L207.529 56.274C208.136 56.4233 208.593 56.6753 208.901 57.03C209.209 57.3847 209.312 57.8233 209.209 58.346L208.887 60.138C208.784 60.726 208.532 61.1927 208.131 61.538C207.73 61.8833 207.244 62.056 206.675 62.056H203.581C203.002 62.056 202.554 61.86 202.237 61.468C201.929 61.0853 201.826 60.5953 201.929 59.998L202.139 58.78H204.099L203.931 59.746C203.903 59.9047 203.908 60.012 203.945 60.068C203.992 60.124 204.09 60.152 204.239 60.152H206.353C206.708 60.152 206.913 59.97 206.969 59.606L207.151 58.514C207.17 58.374 207.156 58.2807 207.109 58.234C207.072 58.178 206.983 58.1313 206.843 58.094L204.393 57.534C203.796 57.394 203.343 57.1467 203.035 56.792C202.736 56.428 202.634 55.9847 202.727 55.462L203.021 53.782C203.124 53.194 203.376 52.7273 203.777 52.382C204.178 52.0367 204.664 51.864 205.233 51.864H208.159C208.738 51.864 209.181 52.06 209.489 52.452C209.806 52.8347 209.914 53.3247 209.811 53.922L209.615 55.028H207.655Z" fill="white"/>
</g>
<path d="M21 61.3636L35.8168 41H229.061L239.909 52.1074L224.563 73H31.5834L21 61.3636Z" stroke="white" stroke-opacity="0.5" stroke-width="0.585437"/>
<defs>
<filter id="filter0_d_49_280" x="0.267195" y="0.86949" width="262.392" height="113.881" filterUnits="userSpaceOnUse" color-interpolation-filters="sRGB">
<feFlood flood-opacity="0" result="BackgroundImageFix"/>
<feColorMatrix in="SourceAlpha" type="matrix" values="0 0 0 0 0 0 0 0 0 0 0 0 0 0 0 0 0 0 127 0" result="hardAlpha"/>
<feOffset dx="0.849909" dy="0.849909"/>
<feGaussianBlur stdDeviation="25.9222"/>
<feComposite in2="hardAlpha" operator="out"/>
<feColorMatrix type="matrix" values="0 0 0 0 0 0 0 0 0 0 0 0 0 0 0 0 0 0 1 0"/>
<feBlend mode="normal" in2="BackgroundImageFix" result="effect1_dropShadow_49_280"/>
<feBlend mode="normal" in="SourceGraphic" in2="effect1_dropShadow_49_280" result="shape"/>
</filter>
</defs>
</svg>
