<svg width="244" height="42" viewBox="0 0 244 42" fill="none" xmlns="http://www.w3.org/2000/svg">
<path d="M240.692 1.76379L232.244 40.252H3.70394L3.54175 41H233.39L242 1.76379H240.692Z" stroke="white" stroke-width="2" stroke-miterlimit="10"/>
<path d="M232.067 39.2928L240.303 1.76495H240.691L240.857 1H10.6137L2 40.2532H3.703L3.91455 39.2928H232.067Z" stroke="white" stroke-width="2" stroke-miterlimit="10"/>
<path d="M29.9813 25.16C29.0533 25.16 28.2746 24.9787 27.6453 24.616C27.0159 24.2533 26.5413 23.7467 26.2213 23.096C25.9013 22.4453 25.7413 21.6827 25.7413 20.808C25.7413 20.2107 25.7946 19.6187 25.9013 19.032C26.0079 18.4347 26.1679 17.8587 26.3813 17.304C26.6053 16.7493 26.8773 16.2373 27.1973 15.768C27.5279 15.2987 27.9173 14.888 28.3653 14.536C28.8133 14.1733 29.3199 13.896 29.8853 13.704C30.4613 13.5013 31.0959 13.4 31.7893 13.4C33.1759 13.4 34.2159 13.7893 34.9093 14.568C35.6133 15.3467 35.9653 16.3813 35.9653 17.672C35.9653 18.2907 35.9119 18.904 35.8053 19.512C35.7093 20.12 35.5546 20.7067 35.3413 21.272C35.1279 21.8267 34.8559 22.344 34.5253 22.824C34.2053 23.2933 33.8213 23.704 33.3733 24.056C32.9359 24.3973 32.4346 24.6693 31.8693 24.872C31.3039 25.064 30.6746 25.16 29.9813 25.16ZM30.1573 23.128C30.4666 23.128 30.7653 23.0747 31.0533 22.968C31.3413 22.8507 31.6079 22.6853 31.8533 22.472C32.1093 22.248 32.3386 21.9813 32.5413 21.672C32.7439 21.352 32.9199 20.9947 33.0693 20.6C33.2186 20.1947 33.3306 19.752 33.4053 19.272C33.4906 18.792 33.5333 18.28 33.5333 17.736C33.5333 17.032 33.3679 16.472 33.0373 16.056C32.7173 15.6293 32.2373 15.416 31.5973 15.416C31.2666 15.416 30.9519 15.48 30.6533 15.608C30.3546 15.736 30.0773 15.9227 29.8213 16.168C29.5759 16.4027 29.3466 16.6853 29.1333 17.016C28.9306 17.3467 28.7546 17.7147 28.6053 18.12C28.4666 18.5147 28.3599 18.9413 28.2853 19.4C28.2106 19.848 28.1733 20.3173 28.1733 20.808C28.1733 21.3093 28.2479 21.736 28.3973 22.088C28.5573 22.4293 28.7866 22.6907 29.0853 22.872C29.3839 23.0427 29.7413 23.128 30.1573 23.128ZM36.8848 25L39.3008 13.576H42.4848C43.4128 13.576 44.1541 13.7147 44.7088 13.992C45.2741 14.2693 45.6794 14.6587 45.9248 15.16C46.1808 15.6613 46.3088 16.2427 46.3088 16.904C46.3088 17.5867 46.1808 18.1787 45.9248 18.68C45.6794 19.1813 45.3328 19.6027 44.8848 19.944C44.4368 20.2747 43.9088 20.5253 43.3008 20.696C42.6928 20.856 42.0368 20.936 41.3328 20.936H40.1168L39.2688 25H36.8848ZM41.5248 18.952C42.0048 18.952 42.4208 18.8773 42.7728 18.728C43.1354 18.568 43.4128 18.3387 43.6048 18.04C43.8074 17.7413 43.9088 17.384 43.9088 16.968C43.9088 16.488 43.7808 16.136 43.5248 15.912C43.2688 15.6773 42.8901 15.56 42.3888 15.56H41.2688L40.5488 18.952H41.5248ZM51.4344 25.16C50.5064 25.16 49.7277 24.9787 49.0984 24.616C48.469 24.2533 47.9944 23.7467 47.6744 23.096C47.3544 22.4453 47.1944 21.6827 47.1944 20.808C47.1944 20.2107 47.2477 19.6187 47.3544 19.032C47.461 18.4347 47.621 17.8587 47.8344 17.304C48.0584 16.7493 48.3304 16.2373 48.6504 15.768C48.981 15.2987 49.3704 14.888 49.8184 14.536C50.2664 14.1733 50.773 13.896 51.3384 13.704C51.9144 13.5013 52.549 13.4 53.2424 13.4C54.629 13.4 55.669 13.7893 56.3624 14.568C57.0664 15.3467 57.4184 16.3813 57.4184 17.672C57.4184 18.2907 57.365 18.904 57.2584 19.512C57.1624 20.12 57.0077 20.7067 56.7944 21.272C56.581 21.8267 56.309 22.344 55.9784 22.824C55.6584 23.2933 55.2744 23.704 54.8264 24.056C54.389 24.3973 53.8877 24.6693 53.3224 24.872C52.757 25.064 52.1277 25.16 51.4344 25.16ZM51.6104 23.128C51.9197 23.128 52.2184 23.0747 52.5064 22.968C52.7944 22.8507 53.061 22.6853 53.3064 22.472C53.5624 22.248 53.7917 21.9813 53.9944 21.672C54.197 21.352 54.373 20.9947 54.5224 20.6C54.6717 20.1947 54.7837 19.752 54.8584 19.272C54.9437 18.792 54.9864 18.28 54.9864 17.736C54.9864 17.032 54.821 16.472 54.4904 16.056C54.1704 15.6293 53.6904 15.416 53.0504 15.416C52.7197 15.416 52.405 15.48 52.1064 15.608C51.8077 15.736 51.5304 15.9227 51.2744 16.168C51.029 16.4027 50.7997 16.6853 50.5864 17.016C50.3837 17.3467 50.2077 17.7147 50.0584 18.12C49.9197 18.5147 49.813 18.9413 49.7384 19.4C49.6637 19.848 49.6264 20.3173 49.6264 20.808C49.6264 21.3093 49.701 21.736 49.8504 22.088C50.0104 22.4293 50.2397 22.6907 50.5384 22.872C50.837 23.0427 51.1944 23.128 51.6104 23.128ZM57.4579 25L57.7459 23.624L59.2019 22.984L60.7699 15.592L59.5859 14.952L59.8739 13.576H64.9299L64.6419 14.952L63.1539 15.592L61.5859 22.984L62.8019 23.624L62.5139 25H57.4579ZM68.9941 25L71.4101 13.576H73.7941L72.5941 19.096L73.8101 17.464L77.0421 13.576H79.8581L75.2181 19.048L77.4901 25H74.8501L73.2021 20.376L72.2261 20.92L71.3781 25H68.9941ZM77.4306 25L83.4146 13.576H86.3266L87.4786 25H85.1586L84.9666 22.28H81.2706L79.9266 25H77.4306ZM82.2466 20.248H84.8546L84.6466 17.304C84.6253 16.9947 84.604 16.68 84.5826 16.36C84.5613 16.04 84.556 15.7147 84.5666 15.384H84.5346C84.428 15.672 84.3106 15.96 84.1826 16.248C84.0546 16.5253 83.9106 16.8293 83.7506 17.16L82.2466 20.248ZM87.9735 25L88.2615 23.624L89.7175 22.984L91.2855 15.592L90.1015 14.952L90.3895 13.576H95.4455L95.1575 14.952L93.6695 15.592L92.1015 22.984L93.3175 23.624L93.0295 25H87.9735ZM99.5098 25L101.926 13.576H110.294L107.878 25H105.494L107.494 15.592H103.894L101.894 25H99.5098ZM110.635 25L113.051 13.576H116.235C117.163 13.576 117.904 13.7147 118.459 13.992C119.024 14.2693 119.429 14.6587 119.675 15.16C119.931 15.6613 120.059 16.2427 120.059 16.904C120.059 17.5867 119.931 18.1787 119.675 18.68C119.429 19.1813 119.083 19.6027 118.635 19.944C118.187 20.2747 117.659 20.5253 117.051 20.696C116.443 20.856 115.787 20.936 115.083 20.936H113.867L113.019 25H110.635ZM115.275 18.952C115.755 18.952 116.171 18.8773 116.523 18.728C116.885 18.568 117.163 18.3387 117.355 18.04C117.557 17.7413 117.659 17.384 117.659 16.968C117.659 16.488 117.531 16.136 117.275 15.912C117.019 15.6773 116.64 15.56 116.139 15.56H115.019L114.299 18.952H115.275ZM125.184 25.16C124.256 25.16 123.478 24.9787 122.848 24.616C122.219 24.2533 121.744 23.7467 121.424 23.096C121.104 22.4453 120.944 21.6827 120.944 20.808C120.944 20.2107 120.998 19.6187 121.104 19.032C121.211 18.4347 121.371 17.8587 121.584 17.304C121.808 16.7493 122.08 16.2373 122.4 15.768C122.731 15.2987 123.12 14.888 123.568 14.536C124.016 14.1733 124.523 13.896 125.088 13.704C125.664 13.5013 126.299 13.4 126.992 13.4C128.379 13.4 129.419 13.7893 130.112 14.568C130.816 15.3467 131.168 16.3813 131.168 17.672C131.168 18.2907 131.115 18.904 131.008 19.512C130.912 20.12 130.758 20.7067 130.544 21.272C130.331 21.8267 130.059 22.344 129.728 22.824C129.408 23.2933 129.024 23.704 128.576 24.056C128.139 24.3973 127.638 24.6693 127.072 24.872C126.507 25.064 125.878 25.16 125.184 25.16ZM125.36 23.128C125.67 23.128 125.968 23.0747 126.256 22.968C126.544 22.8507 126.811 22.6853 127.056 22.472C127.312 22.248 127.542 21.9813 127.744 21.672C127.947 21.352 128.123 20.9947 128.272 20.6C128.422 20.1947 128.534 19.752 128.608 19.272C128.694 18.792 128.736 18.28 128.736 17.736C128.736 17.032 128.571 16.472 128.24 16.056C127.92 15.6293 127.44 15.416 126.8 15.416C126.47 15.416 126.155 15.48 125.856 15.608C125.558 15.736 125.28 15.9227 125.024 16.168C124.779 16.4027 124.55 16.6853 124.336 17.016C124.134 17.3467 123.958 17.7147 123.808 18.12C123.67 18.5147 123.563 18.9413 123.488 19.4C123.414 19.848 123.376 20.3173 123.376 20.808C123.376 21.3093 123.451 21.736 123.6 22.088C123.76 22.4293 123.99 22.6907 124.288 22.872C124.587 23.0427 124.944 23.128 125.36 23.128ZM133.884 25L134.812 20.632L132.972 13.576H135.404L136.412 18.2L139.34 13.576H142.012L137.18 20.632L136.252 25H133.884ZM139.164 12.376C138.876 12.376 138.636 12.312 138.444 12.184C138.262 12.056 138.172 11.832 138.172 11.512C138.172 11.1067 138.273 10.8027 138.476 10.6C138.689 10.3867 138.982 10.28 139.356 10.28C139.622 10.28 139.852 10.344 140.044 10.472C140.236 10.5893 140.332 10.808 140.332 11.128C140.332 11.5013 140.236 11.8053 140.044 12.04C139.862 12.264 139.569 12.376 139.164 12.376ZM136.172 12.376C135.884 12.376 135.644 12.312 135.452 12.184C135.27 12.056 135.18 11.832 135.18 11.512C135.18 11.1067 135.281 10.8027 135.484 10.6C135.697 10.3867 135.99 10.28 136.364 10.28C136.545 10.28 136.705 10.3067 136.844 10.36C136.993 10.4133 137.11 10.504 137.196 10.632C137.292 10.7493 137.34 10.9147 137.34 11.128C137.34 11.5013 137.244 11.8053 137.052 12.04C136.87 12.264 136.577 12.376 136.172 12.376ZM140.963 25L143.379 13.576H151.747L149.331 25H146.947L148.947 15.592H145.347L143.347 25H140.963ZM156.872 25.16C155.944 25.16 155.165 24.9787 154.536 24.616C153.907 24.2533 153.432 23.7467 153.112 23.096C152.792 22.4453 152.632 21.6827 152.632 20.808C152.632 20.2107 152.685 19.6187 152.792 19.032C152.899 18.4347 153.059 17.8587 153.272 17.304C153.496 16.7493 153.768 16.2373 154.088 15.768C154.419 15.2987 154.808 14.888 155.256 14.536C155.704 14.1733 156.211 13.896 156.776 13.704C157.352 13.5013 157.987 13.4 158.68 13.4C160.067 13.4 161.107 13.7893 161.8 14.568C162.504 15.3467 162.856 16.3813 162.856 17.672C162.856 18.2907 162.803 18.904 162.696 19.512C162.6 20.12 162.445 20.7067 162.232 21.272C162.019 21.8267 161.747 22.344 161.416 22.824C161.096 23.2933 160.712 23.704 160.264 24.056C159.827 24.3973 159.325 24.6693 158.76 24.872C158.195 25.064 157.565 25.16 156.872 25.16ZM157.048 23.128C157.357 23.128 157.656 23.0747 157.944 22.968C158.232 22.8507 158.499 22.6853 158.744 22.472C159 22.248 159.229 21.9813 159.432 21.672C159.635 21.352 159.811 20.9947 159.96 20.6C160.109 20.1947 160.221 19.752 160.296 19.272C160.381 18.792 160.424 18.28 160.424 17.736C160.424 17.032 160.259 16.472 159.928 16.056C159.608 15.6293 159.128 15.416 158.488 15.416C158.157 15.416 157.843 15.48 157.544 15.608C157.245 15.736 156.968 15.9227 156.712 16.168C156.467 16.4027 156.237 16.6853 156.024 17.016C155.821 17.3467 155.645 17.7147 155.496 18.12C155.357 18.5147 155.251 18.9413 155.176 19.4C155.101 19.848 155.064 20.3173 155.064 20.808C155.064 21.3093 155.139 21.736 155.288 22.088C155.448 22.4293 155.677 22.6907 155.976 22.872C156.275 23.0427 156.632 23.128 157.048 23.128ZM167.519 20.184L167.935 18.2H171.359L170.943 20.184H167.519ZM168.559 25.16C167.631 25.16 166.853 24.9787 166.223 24.616C165.594 24.2533 165.119 23.7467 164.799 23.096C164.479 22.4453 164.319 21.6827 164.319 20.808C164.319 20.2107 164.373 19.6187 164.479 19.032C164.586 18.4347 164.746 17.8587 164.959 17.304C165.183 16.7493 165.455 16.2373 165.775 15.768C166.106 15.2987 166.495 14.888 166.943 14.536C167.391 14.1733 167.898 13.896 168.463 13.704C169.039 13.5013 169.674 13.4 170.367 13.4C171.754 13.4 172.794 13.7893 173.487 14.568C174.191 15.3467 174.543 16.3813 174.543 17.672C174.543 18.2907 174.49 18.904 174.383 19.512C174.287 20.12 174.133 20.7067 173.919 21.272C173.706 21.8267 173.434 22.344 173.103 22.824C172.783 23.2933 172.399 23.704 171.951 24.056C171.514 24.3973 171.013 24.6693 170.447 24.872C169.882 25.064 169.253 25.16 168.559 25.16ZM168.735 23.128C169.045 23.128 169.343 23.0747 169.631 22.968C169.919 22.8507 170.186 22.6853 170.431 22.472C170.687 22.248 170.917 21.9813 171.119 21.672C171.322 21.352 171.498 20.9947 171.647 20.6C171.797 20.1947 171.909 19.752 171.983 19.272C172.069 18.792 172.111 18.28 172.111 17.736C172.111 17.032 171.946 16.472 171.615 16.056C171.295 15.6293 170.815 15.416 170.175 15.416C169.845 15.416 169.53 15.48 169.231 15.608C168.933 15.736 168.655 15.9227 168.399 16.168C168.154 16.4027 167.925 16.6853 167.711 17.016C167.509 17.3467 167.333 17.7147 167.183 18.12C167.045 18.5147 166.938 18.9413 166.863 19.4C166.789 19.848 166.751 20.3173 166.751 20.808C166.751 21.3093 166.826 21.736 166.975 22.088C167.135 22.4293 167.365 22.6907 167.663 22.872C167.962 23.0427 168.319 23.128 168.735 23.128ZM179.015 25L181.431 13.576H187.815L187.399 15.56H183.399L182.871 18.072H186.599L186.167 20.056H182.439L181.815 23H185.815L185.399 25H179.015ZM176.135 16.296L176.183 16.088L177.463 13.576H180.135L180.103 13.736L177.735 16.296H176.135ZM186.786 25L187.154 23.096L190.834 19.016L189.282 15.368L189.65 13.576H196.642L196.242 15.56H193.362C193.223 15.56 193.058 15.56 192.866 15.56C192.674 15.5493 192.476 15.5387 192.274 15.528C192.071 15.5173 191.874 15.5013 191.682 15.48L193.09 18.776L192.994 19.256L189.714 23.096C190.087 23.064 190.434 23.0427 190.754 23.032C191.084 23.0107 191.431 23 191.794 23H194.866L194.45 25H186.786ZM196.26 25L198.676 13.576H205.06L204.644 15.56H200.644L200.116 18.072H203.844L203.412 20.056H199.684L199.06 23H203.06L202.644 25H196.26ZM204.052 25L204.34 23.624L205.796 22.984L207.364 15.592L206.18 14.952L206.468 13.576H211.524L211.236 14.952L209.748 15.592L208.18 22.984L209.396 23.624L209.108 25H204.052ZM210.161 25L210.529 23.096L214.209 19.016L212.657 15.368L213.025 13.576H220.017L219.617 15.56H216.737C216.598 15.56 216.433 15.56 216.241 15.56C216.049 15.5493 215.851 15.5387 215.649 15.528C215.446 15.5173 215.249 15.5013 215.057 15.48L216.465 18.776L216.369 19.256L213.089 23.096C213.462 23.064 213.809 23.0427 214.129 23.032C214.459 23.0107 214.806 23 215.169 23H218.241L217.825 25H210.161Z" fill="white"/>
</svg>
