<svg width="160" height="37" viewBox="0 0 160 37" fill="none" xmlns="http://www.w3.org/2000/svg">
<path d="M22.6367 17.5446V17.9489C22.6367 18.5973 22.5488 19.1793 22.373 19.6949C22.1972 20.2106 21.9492 20.65 21.6289 21.0133C21.3085 21.3727 20.9257 21.6481 20.4804 21.8395C20.039 22.0309 19.5488 22.1266 19.0097 22.1266C18.4746 22.1266 17.9843 22.0309 17.539 21.8395C17.0976 21.6481 16.7148 21.3727 16.3906 21.0133C16.0664 20.65 15.8144 20.2106 15.6347 19.6949C15.4589 19.1793 15.371 18.5973 15.371 17.9489V17.5446C15.371 16.8922 15.4589 16.3102 15.6347 15.7985C15.8105 15.2828 16.0585 14.8434 16.3789 14.4801C16.7031 14.1168 17.0859 13.8395 17.5273 13.6481C17.9726 13.4567 18.4628 13.361 18.998 13.361C19.5371 13.361 20.0273 13.4567 20.4687 13.6481C20.914 13.8395 21.2968 14.1168 21.6171 14.4801C21.9414 14.8434 22.1914 15.2828 22.3671 15.7985C22.5468 16.3102 22.6367 16.8922 22.6367 17.5446ZM20.8613 17.9489V17.5328C20.8613 17.0797 20.8203 16.6813 20.7382 16.3375C20.6562 15.9938 20.5351 15.7047 20.375 15.4703C20.2148 15.236 20.0195 15.0602 19.789 14.943C19.5585 14.8219 19.2949 14.7614 18.998 14.7614C18.7011 14.7614 18.4375 14.8219 18.207 14.943C17.9804 15.0602 17.7871 15.236 17.6269 15.4703C17.4707 15.7047 17.3515 15.9938 17.2695 16.3375C17.1875 16.6813 17.1464 17.0797 17.1464 17.5328V17.9489C17.1464 18.3981 17.1875 18.7965 17.2695 19.1442C17.3515 19.4879 17.4726 19.7789 17.6328 20.0172C17.7929 20.2516 17.9882 20.4293 18.2187 20.5504C18.4492 20.6715 18.7128 20.7321 19.0097 20.7321C19.3066 20.7321 19.5703 20.6715 19.8007 20.5504C20.0312 20.4293 20.2246 20.2516 20.3808 20.0172C20.5371 19.7789 20.6562 19.4879 20.7382 19.1442C20.8203 18.7965 20.8613 18.3981 20.8613 17.9489ZM23.8027 24.4469V18.6168C23.8027 18.1637 23.8691 17.7496 24.0019 17.3746C24.1347 16.9996 24.3261 16.6774 24.5761 16.4078C24.83 16.1344 25.1347 15.9235 25.4902 15.775C25.8457 15.6266 26.25 15.5524 26.7031 15.5524C27.1601 15.5524 27.5625 15.6344 27.9101 15.7985C28.2578 15.9625 28.5488 16.193 28.7832 16.4899C29.0214 16.7867 29.1992 17.1383 29.3164 17.5446C29.4375 17.9508 29.498 18.3961 29.498 18.8805V19.0035C29.498 19.4606 29.4453 19.8805 29.3398 20.2633C29.2343 20.6422 29.0761 20.9723 28.8652 21.2535C28.6582 21.5348 28.4023 21.7516 28.0976 21.9039C27.7929 22.0563 27.4433 22.1324 27.0488 22.1324C26.6699 22.1324 26.3437 22.0563 26.0703 21.9039C25.7968 21.7516 25.5664 21.5387 25.3789 21.2653C25.1953 20.9918 25.0468 20.6715 24.9335 20.3043C24.8203 19.9332 24.7343 19.5309 24.6757 19.0973C24.6914 19.1051 24.7441 19.1305 24.8339 19.1735C24.9277 19.2125 25.0175 19.2516 25.1035 19.2906C25.1933 19.3297 25.2421 19.3492 25.25 19.3492C25.2695 19.6383 25.3261 19.8942 25.4199 20.1168C25.5175 20.3356 25.664 20.5055 25.8593 20.6266C26.0546 20.7477 26.3046 20.8082 26.6093 20.8082C26.8281 20.8082 27.0136 20.7633 27.166 20.6735C27.3222 20.5836 27.4472 20.4586 27.541 20.2985C27.6347 20.1344 27.7031 19.943 27.746 19.7242C27.789 19.5055 27.8105 19.2653 27.8105 19.0035V18.8805C27.8105 18.6071 27.789 18.3492 27.746 18.1071C27.7031 17.861 27.6347 17.6461 27.541 17.4625C27.4472 17.2789 27.3222 17.1344 27.166 17.0289C27.0136 16.9235 26.8281 16.8707 26.6093 16.8707C26.4101 16.8707 26.2382 16.9215 26.0937 17.0231C25.9531 17.1246 25.8378 17.2633 25.748 17.4391C25.6621 17.6149 25.5976 17.818 25.5546 18.0485C25.5117 18.275 25.4902 18.5133 25.4902 18.7633V24.4469H23.8027ZM30.3007 18.9039V18.7809C30.3007 18.316 30.3671 17.8883 30.5 17.4977C30.6328 17.1031 30.8261 16.7614 31.08 16.4723C31.3339 16.1832 31.6464 15.9586 32.0175 15.7985C32.3886 15.6344 32.8144 15.5524 33.2949 15.5524C33.7753 15.5524 34.2031 15.6344 34.5781 15.7985C34.9531 15.9586 35.2675 16.1832 35.5214 16.4723C35.7793 16.7614 35.9746 17.1031 36.1074 17.4977C36.2402 17.8883 36.3066 18.316 36.3066 18.7809V18.9039C36.3066 19.3649 36.2402 19.7926 36.1074 20.1871C35.9746 20.5778 35.7793 20.9196 35.5214 21.2125C35.2675 21.5016 34.955 21.7262 34.5839 21.8864C34.2128 22.0465 33.7871 22.1266 33.3066 22.1266C32.8261 22.1266 32.3984 22.0465 32.0234 21.8864C31.6523 21.7262 31.3378 21.5016 31.08 21.2125C30.8261 20.9196 30.6328 20.5778 30.5 20.1871C30.3671 19.7926 30.3007 19.3649 30.3007 18.9039ZM31.9882 18.7809V18.9039C31.9882 19.1696 32.0117 19.4176 32.0585 19.6481C32.1054 19.8785 32.1796 20.0817 32.2812 20.2574C32.3867 20.4293 32.5234 20.5641 32.6914 20.6617C32.8593 20.7594 33.0644 20.8082 33.3066 20.8082C33.541 20.8082 33.7421 20.7594 33.9101 20.6617C34.0781 20.5641 34.2128 20.4293 34.3144 20.2574C34.416 20.0817 34.4902 19.8785 34.5371 19.6481C34.5878 19.4176 34.6132 19.1696 34.6132 18.9039V18.7809C34.6132 18.5231 34.5878 18.2809 34.5371 18.0543C34.4902 17.8239 34.414 17.6207 34.3085 17.4449C34.207 17.2653 34.0722 17.1246 33.9043 17.0231C33.7363 16.9215 33.5332 16.8707 33.2949 16.8707C33.0566 16.8707 32.8535 16.9215 32.6855 17.0231C32.5214 17.1246 32.3867 17.2653 32.2812 17.4449C32.1796 17.6207 32.1054 17.8239 32.0585 18.0543C32.0117 18.2809 31.9882 18.5231 31.9882 18.7809ZM37.4785 15.6696H39.1718V20.0524C39.1718 20.236 39.1953 20.3766 39.2421 20.4742C39.289 20.568 39.3613 20.6344 39.4589 20.6735C39.5605 20.7086 39.6855 20.7262 39.8339 20.7262C39.9394 20.7262 40.0332 20.7223 40.1152 20.7145C40.1972 20.7067 40.2695 20.6969 40.332 20.6852V21.9215C40.1875 21.9684 40.0312 22.0055 39.8632 22.0328C39.6953 22.0641 39.5097 22.0797 39.3066 22.0797C38.9355 22.0797 38.6132 22.0172 38.3398 21.8922C38.0664 21.7672 37.8535 21.568 37.7011 21.2946C37.5527 21.0211 37.4785 20.6617 37.4785 20.2164V15.6696ZM46.1562 15.6696V22.0094H44.4687V15.6696H46.1562ZM50.4687 15.6696L47.5683 19.6364H45.8574L45.6582 18.0778H46.6894L48.33 15.6696H50.4687ZM48.4062 22.0094L46.6601 19.3317L48.1308 18.5172L50.5683 22.0094H48.4062ZM51.2304 19.0035V18.8805C51.2304 18.3961 51.2832 17.9508 51.3886 17.5446C51.498 17.1383 51.6562 16.7867 51.8632 16.4899C52.0742 16.193 52.3339 15.9625 52.6425 15.7985C52.9511 15.6344 53.3066 15.5524 53.7089 15.5524C53.9863 15.5524 54.2343 15.6051 54.4531 15.7106C54.6757 15.8121 54.8691 15.9606 55.0332 16.1559C55.2011 16.3512 55.3437 16.5836 55.4609 16.8531C55.5781 17.1188 55.6757 17.4156 55.7539 17.7438C55.832 18.068 55.8925 18.4156 55.9355 18.7867V19.0446C55.8847 19.486 55.8046 19.8942 55.6953 20.2692C55.5859 20.6442 55.4433 20.9723 55.2675 21.2535C55.0918 21.5309 54.873 21.7457 54.6113 21.8981C54.3535 22.0504 54.0488 22.1266 53.6972 22.1266C53.2988 22.1266 52.9453 22.0504 52.6367 21.8981C52.332 21.7457 52.0742 21.5309 51.8632 21.2535C51.6523 20.9723 51.4941 20.6422 51.3886 20.2633C51.2832 19.8805 51.2304 19.4606 51.2304 19.0035ZM52.9238 18.8805V19.0035C52.9238 19.2653 52.9433 19.5055 52.9824 19.7242C53.0253 19.9391 53.0937 20.1285 53.1875 20.2926C53.2812 20.4567 53.4043 20.5836 53.5566 20.6735C53.7089 20.7633 53.8964 20.8082 54.1191 20.8082C54.3378 20.8082 54.5234 20.7672 54.6757 20.6852C54.832 20.6031 54.9609 20.4899 55.0625 20.3453C55.164 20.1969 55.2441 20.0231 55.3027 19.8239C55.3613 19.6207 55.4043 19.3961 55.4316 19.15V18.7164C55.4082 18.4469 55.3671 18.2008 55.3085 17.9781C55.2539 17.7516 55.1738 17.5563 55.0683 17.3922C54.9668 17.2281 54.8378 17.1012 54.6816 17.0114C54.5293 16.9176 54.3457 16.8707 54.1308 16.8707C53.9121 16.8707 53.7246 16.9235 53.5683 17.0289C53.416 17.1344 53.291 17.2789 53.1933 17.4625C53.0996 17.6461 53.0312 17.861 52.9882 18.1071C52.9453 18.3492 52.9238 18.6071 52.9238 18.8805ZM55.3671 15.6696H56.832V19.9821C56.832 20.1344 56.8418 20.2614 56.8613 20.3629C56.8808 20.4645 56.9082 20.5465 56.9433 20.609C56.9824 20.6715 57.0273 20.7164 57.0781 20.7438C57.1328 20.7672 57.1933 20.7789 57.2597 20.7789C57.291 20.7789 57.3164 20.777 57.3359 20.7731C57.3554 20.7653 57.373 20.7594 57.3886 20.7555L57.5293 21.986C57.4043 22.0485 57.2851 22.0875 57.1718 22.1031C57.0585 22.1227 56.9355 22.1324 56.8027 22.1324C56.5722 22.1324 56.3632 22.0973 56.1757 22.027C55.9882 21.9567 55.8222 21.8492 55.6777 21.7047C55.5371 21.5563 55.4218 21.3707 55.332 21.1481C55.2421 20.9215 55.1796 20.6539 55.1445 20.3453V17.0289L55.3671 15.6696ZM58.3496 15.6696H60.0429V20.0524C60.0429 20.236 60.0664 20.3766 60.1132 20.4742C60.1601 20.568 60.2324 20.6344 60.33 20.6735C60.4316 20.7086 60.5566 20.7262 60.705 20.7262C60.8105 20.7262 60.9043 20.7223 60.9863 20.7145C61.0683 20.7067 61.1406 20.6969 61.2031 20.6852V21.9215C61.0585 21.9684 60.9023 22.0055 60.7343 22.0328C60.5664 22.0641 60.3808 22.0797 60.1777 22.0797C59.8066 22.0797 59.4843 22.0172 59.2109 21.8922C58.9375 21.7672 58.7246 21.568 58.5722 21.2946C58.4238 21.0211 58.3496 20.6617 58.3496 20.2164V15.6696ZM72.289 13.4781V22.0094H70.5312V14.8551H67.1035V22.0094H65.3457V13.4781H72.289ZM73.7246 24.4469V18.6168C73.7246 18.1637 73.791 17.7496 73.9238 17.3746C74.0566 16.9996 74.248 16.6774 74.498 16.4078C74.7519 16.1344 75.0566 15.9235 75.4121 15.775C75.7675 15.6266 76.1718 15.5524 76.625 15.5524C77.082 15.5524 77.4843 15.6344 77.832 15.7985C78.1796 15.9625 78.4707 16.193 78.705 16.4899C78.9433 16.7867 79.121 17.1383 79.2382 17.5446C79.3593 17.9508 79.4199 18.3961 79.4199 18.8805V19.0035C79.4199 19.4606 79.3671 19.8805 79.2617 20.2633C79.1562 20.6422 78.998 20.9723 78.7871 21.2535C78.58 21.5348 78.3242 21.7516 78.0195 21.9039C77.7148 22.0563 77.3652 22.1324 76.9707 22.1324C76.5918 22.1324 76.2656 22.0563 75.9921 21.9039C75.7187 21.7516 75.4882 21.5387 75.3007 21.2653C75.1171 20.9918 74.9687 20.6715 74.8554 20.3043C74.7421 19.9332 74.6562 19.5309 74.5976 19.0973C74.6132 19.1051 74.666 19.1305 74.7558 19.1735C74.8496 19.2125 74.9394 19.2516 75.0253 19.2906C75.1152 19.3297 75.164 19.3492 75.1718 19.3492C75.1914 19.6383 75.248 19.8942 75.3418 20.1168C75.4394 20.3356 75.5859 20.5055 75.7812 20.6266C75.9765 20.7477 76.2265 20.8082 76.5312 20.8082C76.75 20.8082 76.9355 20.7633 77.0878 20.6735C77.2441 20.5836 77.3691 20.4586 77.4628 20.2985C77.5566 20.1344 77.625 19.943 77.6679 19.7242C77.7109 19.5055 77.7324 19.2653 77.7324 19.0035V18.8805C77.7324 18.6071 77.7109 18.3492 77.6679 18.1071C77.625 17.861 77.5566 17.6461 77.4628 17.4625C77.3691 17.2789 77.2441 17.1344 77.0878 17.0289C76.9355 16.9235 76.75 16.8707 76.5312 16.8707C76.332 16.8707 76.1601 16.9215 76.0156 17.0231C75.875 17.1246 75.7597 17.2633 75.6699 17.4391C75.5839 17.6149 75.5195 17.818 75.4765 18.0485C75.4335 18.275 75.4121 18.5133 75.4121 18.7633V24.4469H73.7246ZM80.2226 18.9039V18.7809C80.2226 18.316 80.289 17.8883 80.4218 17.4977C80.5546 17.1031 80.748 16.7614 81.0019 16.4723C81.2558 16.1832 81.5683 15.9586 81.9394 15.7985C82.3105 15.6344 82.7363 15.5524 83.2168 15.5524C83.6972 15.5524 84.125 15.6344 84.5 15.7985C84.875 15.9586 85.1894 16.1832 85.4433 16.4723C85.7011 16.7614 85.8964 17.1031 86.0293 17.4977C86.1621 17.8883 86.2285 18.316 86.2285 18.7809V18.9039C86.2285 19.3649 86.1621 19.7926 86.0293 20.1871C85.8964 20.5778 85.7011 20.9196 85.4433 21.2125C85.1894 21.5016 84.8769 21.7262 84.5058 21.8864C84.1347 22.0465 83.7089 22.1266 83.2285 22.1266C82.748 22.1266 82.3203 22.0465 81.9453 21.8864C81.5742 21.7262 81.2597 21.5016 81.0019 21.2125C80.748 20.9196 80.5546 20.5778 80.4218 20.1871C80.289 19.7926 80.2226 19.3649 80.2226 18.9039ZM81.9101 18.7809V18.9039C81.9101 19.1696 81.9335 19.4176 81.9804 19.6481C82.0273 19.8785 82.1015 20.0817 82.2031 20.2574C82.3085 20.4293 82.4453 20.5641 82.6132 20.6617C82.7812 20.7594 82.9863 20.8082 83.2285 20.8082C83.4628 20.8082 83.664 20.7594 83.832 20.6617C84 20.5641 84.1347 20.4293 84.2363 20.2574C84.3378 20.0817 84.4121 19.8785 84.4589 19.6481C84.5097 19.4176 84.5351 19.1696 84.5351 18.9039V18.7809C84.5351 18.5231 84.5097 18.2809 84.4589 18.0543C84.4121 17.8239 84.3359 17.6207 84.2304 17.4449C84.1289 17.2653 83.9941 17.1246 83.8261 17.0231C83.6582 16.9215 83.455 16.8707 83.2168 16.8707C82.9785 16.8707 82.7753 16.9215 82.6074 17.0231C82.4433 17.1246 82.3085 17.2653 82.2031 17.4449C82.1015 17.6207 82.0273 17.8239 81.9804 18.0543C81.9335 18.2809 81.9101 18.5231 81.9101 18.7809ZM87.2773 15.6696H88.9648V19.5778C88.9648 19.8082 88.9824 20.0035 89.0175 20.1637C89.0566 20.3239 89.1113 20.4508 89.1816 20.5446C89.2519 20.6383 89.33 20.7067 89.416 20.7496C89.5058 20.7926 89.6015 20.8141 89.7031 20.8141C89.9179 20.8141 90.1054 20.7535 90.2656 20.6324C90.4296 20.5114 90.5664 20.3492 90.6757 20.1461C90.7851 19.9391 90.8671 19.7106 90.9218 19.4606C90.9804 19.2106 91.0097 18.9567 91.0097 18.6989C91.0019 18.1754 90.9433 17.6617 90.8339 17.1578C90.7285 16.65 90.5898 16.1539 90.4179 15.6696H92.0293C92.1464 15.9078 92.2558 16.1813 92.3574 16.4899C92.4589 16.7946 92.541 17.1305 92.6035 17.4977C92.666 17.8649 92.6972 18.2653 92.6972 18.6989C92.6972 19.1754 92.6406 19.6227 92.5273 20.0406C92.414 20.4547 92.2382 20.8199 92 21.1364C91.7617 21.4489 91.457 21.693 91.0859 21.8688C90.7187 22.0446 90.2773 22.1324 89.7617 22.1324C89.3867 22.1324 89.0468 22.0817 88.7421 21.9801C88.4375 21.8785 88.1757 21.7242 87.957 21.5172C87.7382 21.3063 87.5703 21.0387 87.4531 20.7145C87.3359 20.3903 87.2773 20.0074 87.2773 19.566V15.6696ZM87.6699 14.0406C87.6699 13.8375 87.746 13.6656 87.8984 13.525C88.0546 13.3805 88.246 13.3082 88.4726 13.3082C88.707 13.3082 88.9003 13.3805 89.0527 13.525C89.205 13.6656 89.2812 13.8375 89.2812 14.0406C89.2812 14.2438 89.205 14.4156 89.0527 14.5563C88.9003 14.6969 88.707 14.7672 88.4726 14.7672C88.246 14.7672 88.0546 14.6969 87.8984 14.5563C87.746 14.4156 87.6699 14.2438 87.6699 14.0406ZM90.5468 14.0465C90.5468 13.8395 90.623 13.6656 90.7753 13.525C90.9277 13.3844 91.1191 13.3141 91.3496 13.3141C91.58 13.3141 91.7714 13.3844 91.9238 13.525C92.08 13.6656 92.1582 13.8395 92.1582 14.0465C92.1582 14.2496 92.08 14.4215 91.9238 14.5621C91.7714 14.6989 91.58 14.7672 91.3496 14.7672C91.1191 14.7672 90.9277 14.6989 90.7753 14.5621C90.623 14.4215 90.5468 14.2496 90.5468 14.0465ZM100.543 15.6696V16.9176H93.4765V15.6696H100.543ZM96.207 15.6696V22.0094H94.5195V15.6696H96.207ZM97.83 15.6696H99.5234L99.5175 20.0524C99.5175 20.236 99.541 20.3766 99.5878 20.4742C99.6386 20.568 99.7128 20.6344 99.8105 20.6735C99.9082 20.7086 100.031 20.7262 100.18 20.7262C100.285 20.7262 100.379 20.7223 100.461 20.7145C100.543 20.7067 100.615 20.6969 100.678 20.6852V21.9215C100.533 21.9684 100.377 22.0055 100.209 22.0328C100.041 22.0641 99.8554 22.0797 99.6523 22.0797C99.2812 22.0797 98.9589 22.0172 98.6855 21.8922C98.4121 21.7672 98.2011 21.568 98.0527 21.2946C97.9043 21.0211 97.83 20.6617 97.83 20.2164V15.6696ZM101.305 18.9039V18.7809C101.305 18.316 101.371 17.8883 101.504 17.4977C101.637 17.1031 101.83 16.7614 102.084 16.4723C102.338 16.1832 102.65 15.9586 103.021 15.7985C103.393 15.6344 103.818 15.5524 104.299 15.5524C104.779 15.5524 105.207 15.6344 105.582 15.7985C105.957 15.9586 106.271 16.1832 106.525 16.4723C106.783 16.7614 106.978 17.1031 107.111 17.4977C107.244 17.8883 107.311 18.316 107.311 18.7809V18.9039C107.311 19.3649 107.244 19.7926 107.111 20.1871C106.978 20.5778 106.783 20.9196 106.525 21.2125C106.271 21.5016 105.959 21.7262 105.588 21.8864C105.217 22.0465 104.791 22.1266 104.311 22.1266C103.83 22.1266 103.402 22.0465 103.027 21.8864C102.656 21.7262 102.342 21.5016 102.084 21.2125C101.83 20.9196 101.637 20.5778 101.504 20.1871C101.371 19.7926 101.305 19.3649 101.305 18.9039ZM102.992 18.7809V18.9039C102.992 19.1696 103.016 19.4176 103.062 19.6481C103.109 19.8785 103.184 20.0817 103.285 20.2574C103.391 20.4293 103.527 20.5641 103.695 20.6617C103.863 20.7594 104.068 20.8082 104.311 20.8082C104.545 20.8082 104.746 20.7594 104.914 20.6617C105.082 20.5641 105.217 20.4293 105.318 20.2574C105.42 20.0817 105.494 19.8785 105.541 19.6481C105.592 19.4176 105.617 19.1696 105.617 18.9039V18.7809C105.617 18.5231 105.592 18.2809 105.541 18.0543C105.494 17.8239 105.418 17.6207 105.312 17.4449C105.211 17.2653 105.076 17.1246 104.908 17.0231C104.74 16.9215 104.537 16.8707 104.299 16.8707C104.061 16.8707 103.857 16.9215 103.689 17.0231C103.525 17.1246 103.391 17.2653 103.285 17.4449C103.184 17.6207 103.109 17.8239 103.062 18.0543C103.016 18.2809 102.992 18.5231 102.992 18.7809ZM111.236 13.361C111.58 13.361 111.898 13.4078 112.191 13.5016C112.488 13.5953 112.756 13.7379 112.994 13.9293C113.232 14.1207 113.436 14.3629 113.603 14.6559C113.771 14.9449 113.9 15.2887 113.99 15.6871C114.08 16.0817 114.125 16.5309 114.125 17.0348V18.4352C114.125 18.9391 114.08 19.3903 113.99 19.7887C113.9 20.1871 113.771 20.5328 113.603 20.8258C113.439 21.1149 113.238 21.3571 113 21.5524C112.766 21.7477 112.5 21.8922 112.203 21.986C111.91 22.0797 111.592 22.1266 111.248 22.1266C110.904 22.1266 110.584 22.0797 110.287 21.986C109.99 21.8922 109.723 21.7477 109.484 21.5524C109.25 21.3571 109.049 21.1149 108.881 20.8258C108.713 20.5328 108.584 20.1871 108.494 19.7887C108.404 19.3903 108.359 18.9391 108.359 18.4352V17.0348C108.359 16.5309 108.404 16.0817 108.494 15.6871C108.584 15.2887 108.711 14.9449 108.875 14.6559C109.043 14.3629 109.244 14.1207 109.478 13.9293C109.713 13.7379 109.978 13.5953 110.275 13.5016C110.572 13.4078 110.893 13.361 111.236 13.361ZM111.236 14.6793C111.049 14.6793 110.881 14.7203 110.732 14.8024C110.584 14.8844 110.459 15.0114 110.357 15.1832C110.256 15.3551 110.178 15.5758 110.123 15.8453C110.072 16.111 110.047 16.4293 110.047 16.8004V17.0875H112.437V16.8004C112.437 16.5035 112.42 16.2399 112.385 16.0094C112.35 15.7789 112.299 15.5797 112.232 15.4117C112.166 15.2438 112.084 15.1071 111.986 15.0016C111.889 14.8922 111.777 14.8121 111.652 14.7614C111.527 14.7067 111.389 14.6793 111.236 14.6793ZM111.248 20.8082C111.396 20.8082 111.533 20.7828 111.658 20.7321C111.783 20.6774 111.893 20.5953 111.986 20.486C112.084 20.3727 112.166 20.2321 112.232 20.0641C112.299 19.8922 112.35 19.691 112.385 19.4606C112.42 19.2262 112.437 18.9586 112.437 18.6578V18.3531H110.047V18.6578C110.047 18.9586 110.062 19.2262 110.094 19.4606C110.129 19.691 110.18 19.8922 110.246 20.0641C110.316 20.2321 110.4 20.3727 110.498 20.486C110.596 20.5953 110.707 20.6774 110.832 20.7321C110.957 20.7828 111.096 20.8082 111.248 20.8082ZM117.857 18.5641H119.299V19.3199H118.215C117.977 19.3199 117.768 19.3453 117.588 19.3961C117.408 19.4469 117.269 19.5309 117.172 19.6481C117.078 19.7614 117.031 19.9117 117.031 20.0992C117.031 20.2008 117.055 20.3004 117.102 20.3981C117.148 20.4918 117.221 20.5758 117.318 20.65C117.42 20.7203 117.543 20.7789 117.687 20.8258C117.836 20.8688 118.006 20.8903 118.197 20.8903C118.459 20.8903 118.678 20.8551 118.853 20.7848C119.029 20.7145 119.162 20.6227 119.252 20.5094C119.342 20.3922 119.387 20.2672 119.387 20.1344H121.074C121.074 20.4781 120.994 20.777 120.834 21.0309C120.674 21.2809 120.461 21.4879 120.195 21.652C119.93 21.8121 119.631 21.9313 119.299 22.0094C118.967 22.0875 118.631 22.1266 118.291 22.1266C117.877 22.1266 117.49 22.0836 117.131 21.9977C116.771 21.9117 116.457 21.7867 116.187 21.6227C115.922 21.4586 115.715 21.2594 115.566 21.025C115.418 20.7867 115.344 20.5172 115.344 20.2164C115.344 19.9508 115.4 19.7164 115.514 19.5133C115.627 19.3063 115.791 19.1324 116.006 18.9918C116.225 18.8512 116.49 18.7457 116.803 18.6754C117.115 18.6012 117.467 18.5641 117.857 18.5641ZM119.299 18.986H117.857C117.502 18.986 117.178 18.9449 116.885 18.8629C116.592 18.7809 116.338 18.6676 116.123 18.5231C115.908 18.3746 115.742 18.2047 115.625 18.0133C115.512 17.8219 115.455 17.6188 115.455 17.4039C115.455 17.1031 115.523 16.8395 115.66 16.6129C115.797 16.3824 115.99 16.1891 116.24 16.0328C116.494 15.8766 116.795 15.7594 117.143 15.6813C117.494 15.5992 117.877 15.5582 118.291 15.5582C118.658 15.5582 119.004 15.6031 119.328 15.693C119.652 15.7789 119.937 15.9059 120.184 16.0739C120.43 16.2379 120.623 16.4391 120.764 16.6774C120.904 16.9117 120.975 17.1813 120.975 17.486H119.287C119.287 17.3414 119.24 17.2184 119.146 17.1168C119.053 17.0114 118.924 16.9313 118.76 16.8766C118.596 16.8219 118.41 16.7946 118.203 16.7946C117.953 16.7946 117.75 16.8317 117.594 16.9059C117.437 16.9762 117.322 17.068 117.248 17.1813C117.178 17.2906 117.143 17.4059 117.143 17.527C117.143 17.6324 117.166 17.7281 117.213 17.8141C117.26 17.8961 117.326 17.9684 117.412 18.0309C117.502 18.0895 117.613 18.1364 117.746 18.1715C117.883 18.2028 118.039 18.2184 118.215 18.2184H119.299V18.986ZM117.6 14.6559L118.039 12.6461H119.574L118.607 14.6559H117.6ZM121.853 18.9039V18.7809C121.853 18.3356 121.918 17.9235 122.047 17.5446C122.18 17.1656 122.373 16.8356 122.627 16.5543C122.885 16.2731 123.197 16.0563 123.564 15.9039C123.936 15.7477 124.359 15.6696 124.836 15.6696C124.922 15.7086 125.006 15.7867 125.088 15.9039C125.174 16.0211 125.283 16.1442 125.416 16.2731C125.549 16.3981 125.728 16.4938 125.955 16.5602C126.264 16.6813 126.555 16.8649 126.828 17.111C127.102 17.3531 127.322 17.6383 127.49 17.9664C127.662 18.2906 127.748 18.6403 127.748 19.0153V19.1383C127.748 19.5563 127.684 19.9469 127.555 20.3102C127.43 20.6696 127.242 20.986 126.992 21.2594C126.746 21.5328 126.443 21.7477 126.084 21.9039C125.728 22.0563 125.316 22.1324 124.848 22.1324C124.367 22.1324 123.941 22.0524 123.57 21.8922C123.199 21.7281 122.885 21.5016 122.627 21.2125C122.373 20.9196 122.18 20.5778 122.047 20.1871C121.918 19.7926 121.853 19.3649 121.853 18.9039ZM123.541 18.7809V18.9039C123.541 19.1696 123.564 19.4176 123.611 19.6481C123.658 19.8785 123.732 20.0817 123.834 20.2574C123.936 20.4293 124.07 20.5641 124.238 20.6617C124.406 20.7594 124.609 20.8082 124.848 20.8082C125.07 20.8082 125.258 20.7594 125.41 20.6617C125.566 20.5641 125.691 20.4293 125.785 20.2574C125.879 20.0817 125.947 19.8785 125.99 19.6481C126.033 19.4176 126.055 19.1696 126.055 18.9039V18.7809C126.055 18.5387 126.033 18.3102 125.99 18.0953C125.947 17.8805 125.879 17.691 125.785 17.527C125.691 17.359 125.566 17.2281 125.41 17.1344C125.254 17.0406 125.064 16.9938 124.842 16.9938C124.607 16.9938 124.406 17.0406 124.238 17.1344C124.07 17.2281 123.936 17.359 123.834 17.527C123.732 17.691 123.658 17.8805 123.611 18.0953C123.564 18.3102 123.541 18.5387 123.541 18.7809ZM128.205 15.6696V16.9938H124.842V15.6696H128.205ZM131.416 18.5641H132.857V19.3199H131.773C131.535 19.3199 131.326 19.3453 131.146 19.3961C130.967 19.4469 130.828 19.5309 130.73 19.6481C130.637 19.7614 130.59 19.9117 130.59 20.0992C130.59 20.2008 130.613 20.3004 130.66 20.3981C130.707 20.4918 130.779 20.5758 130.877 20.65C130.978 20.7203 131.102 20.7789 131.246 20.8258C131.394 20.8688 131.564 20.8903 131.756 20.8903C132.018 20.8903 132.236 20.8551 132.412 20.7848C132.588 20.7145 132.721 20.6227 132.811 20.5094C132.9 20.3922 132.945 20.2672 132.945 20.1344H134.633C134.633 20.4781 134.553 20.777 134.393 21.0309C134.232 21.2809 134.019 21.4879 133.754 21.652C133.488 21.8121 133.189 21.9313 132.857 22.0094C132.525 22.0875 132.189 22.1266 131.85 22.1266C131.436 22.1266 131.049 22.0836 130.689 21.9977C130.33 21.9117 130.016 21.7867 129.746 21.6227C129.48 21.4586 129.273 21.2594 129.125 21.025C128.977 20.7867 128.902 20.5172 128.902 20.2164C128.902 19.9508 128.959 19.7164 129.072 19.5133C129.186 19.3063 129.35 19.1324 129.564 18.9918C129.783 18.8512 130.049 18.7457 130.361 18.6754C130.674 18.6012 131.025 18.5641 131.416 18.5641ZM132.857 18.986H131.416C131.061 18.986 130.736 18.9449 130.443 18.8629C130.15 18.7809 129.896 18.6676 129.682 18.5231C129.467 18.3746 129.301 18.2047 129.184 18.0133C129.07 17.8219 129.014 17.6188 129.014 17.4039C129.014 17.1031 129.082 16.8395 129.219 16.6129C129.355 16.3824 129.549 16.1891 129.799 16.0328C130.053 15.8766 130.353 15.7594 130.701 15.6813C131.053 15.5992 131.436 15.5582 131.85 15.5582C132.217 15.5582 132.562 15.6031 132.887 15.693C133.211 15.7789 133.496 15.9059 133.742 16.0739C133.988 16.2379 134.182 16.4391 134.322 16.6774C134.463 16.9117 134.533 17.1813 134.533 17.486H132.846C132.846 17.3414 132.799 17.2184 132.705 17.1168C132.611 17.0114 132.482 16.9313 132.318 16.8766C132.154 16.8219 131.969 16.7946 131.762 16.7946C131.512 16.7946 131.309 16.8317 131.152 16.9059C130.996 16.9762 130.881 17.068 130.807 17.1813C130.736 17.2906 130.701 17.4059 130.701 17.527C130.701 17.6324 130.725 17.7281 130.771 17.8141C130.818 17.8961 130.885 17.9684 130.971 18.0309C131.061 18.0895 131.172 18.1364 131.305 18.1715C131.441 18.2028 131.598 18.2184 131.773 18.2184H132.857V18.986ZM135.822 15.6696H137.516V20.0524C137.516 20.236 137.539 20.3766 137.586 20.4742C137.633 20.568 137.705 20.6344 137.803 20.6735C137.904 20.7086 138.029 20.7262 138.178 20.7262C138.283 20.7262 138.377 20.7223 138.459 20.7145C138.541 20.7067 138.613 20.6969 138.676 20.6852V21.9215C138.531 21.9684 138.375 22.0055 138.207 22.0328C138.039 22.0641 137.853 22.0797 137.65 22.0797C137.279 22.0797 136.957 22.0172 136.684 21.8922C136.41 21.7672 136.197 21.568 136.045 21.2946C135.896 21.0211 135.822 20.6617 135.822 20.2164V15.6696ZM142.262 15.5524C142.777 15.5524 143.23 15.65 143.621 15.8453C144.012 16.0367 144.316 16.316 144.535 16.6832C144.754 17.0504 144.863 17.4938 144.863 18.0133H143.275C143.275 17.8024 143.238 17.611 143.164 17.4391C143.094 17.2672 142.982 17.1305 142.83 17.0289C142.682 16.9235 142.492 16.8707 142.262 16.8707C142.027 16.8707 141.83 16.9235 141.67 17.0289C141.51 17.1305 141.383 17.2711 141.289 17.4508C141.195 17.6266 141.127 17.8278 141.084 18.0543C141.045 18.277 141.025 18.5114 141.025 18.7574V18.9274C141.025 19.2789 141.08 19.5699 141.189 19.8004C141.299 20.027 141.463 20.2125 141.682 20.3571C141.904 20.5016 142.182 20.6227 142.514 20.7203C142.896 20.8258 143.217 20.9332 143.475 21.0426C143.732 21.152 143.93 21.2965 144.066 21.4762C144.203 21.6559 144.277 21.9098 144.289 22.2379C144.293 22.4645 144.227 22.7028 144.09 22.9528C143.953 23.2028 143.781 23.4371 143.574 23.6559C143.371 23.8785 143.164 24.0602 142.953 24.2008L142.068 23.5563C142.193 23.4274 142.295 23.3043 142.373 23.1871C142.455 23.0739 142.516 22.9645 142.555 22.859C142.594 22.7574 142.613 22.6578 142.613 22.5602C142.613 22.4586 142.59 22.3707 142.543 22.2965C142.5 22.2262 142.432 22.1656 142.338 22.1149C142.248 22.0641 142.137 22.0211 142.004 21.986C141.414 21.8297 140.922 21.6246 140.527 21.3707C140.133 21.1129 139.836 20.7848 139.637 20.3864C139.437 19.9879 139.338 19.5016 139.338 18.9274V18.7574C139.338 18.3082 139.4 17.8903 139.525 17.5035C139.65 17.1129 139.836 16.7731 140.082 16.484C140.328 16.191 140.633 15.9625 140.996 15.7985C141.363 15.6344 141.785 15.5524 142.262 15.5524Z" fill="white"/>
<rect x="0.5" y="0.509399" width="159" height="35" rx="7.5" stroke="white"/>
</svg>
