<svg width="223" height="38" viewBox="0 0 223 38" fill="none" xmlns="http://www.w3.org/2000/svg">
<path d="M21.8606 24.4551V16.1951H18.6126V14.6551H26.9286V16.1951H23.6806V24.4551H21.8606ZM30.1145 22.9291H35.6445V24.4551H28.2945V14.6551H35.4485V16.1811H30.1145V18.7291H34.8465V20.2271H30.1145V22.9291ZM46.0454 24.4551H44.0854L42.0834 21.5851C41.9574 21.5991 41.8314 21.5991 41.7054 21.5991H39.4934V24.4551H37.6734V14.6551H41.7054C44.2814 14.6551 45.8774 15.9711 45.8774 18.1411C45.8774 19.6251 45.1214 20.7171 43.7914 21.2351L46.0454 24.4551ZM44.0434 18.1411C44.0434 16.9091 43.2174 16.1951 41.6214 16.1951H39.4934V20.1011H41.6214C43.2174 20.1011 44.0434 19.3731 44.0434 18.1411ZM58.6377 24.4551H56.9157L56.9017 17.9591L53.6817 23.3351H52.8697L49.6497 18.0431V24.4551H47.9137V14.6551H49.4117L53.3037 21.1511L57.1257 14.6551H58.6237L58.6377 24.4551ZM64.3228 24.5951C62.7968 24.5951 61.2708 24.1191 60.4588 23.4191L61.0888 22.0051C61.8728 22.6351 63.1188 23.0831 64.3228 23.0831C65.8488 23.0831 66.4928 22.5371 66.4928 21.8091C66.4928 19.6951 60.6688 21.0811 60.6688 17.4411C60.6688 15.8591 61.9288 14.5151 64.6168 14.5151C65.7928 14.5151 67.0248 14.8231 67.8787 15.3831L67.3048 16.7971C66.4228 16.2791 65.4568 16.0271 64.6028 16.0271C63.0908 16.0271 62.4748 16.6151 62.4748 17.3571C62.4748 19.4431 68.2848 18.0851 68.2848 21.6831C68.2848 23.2511 67.0108 24.5951 64.3228 24.5951ZM81.2946 24.4551L80.3146 22.1871H75.4146L74.4486 24.4551H72.5726L76.9826 14.6551H78.7746L83.1986 24.4551H81.2946ZM76.0306 20.7591H79.7126L77.8646 16.4751L76.0306 20.7591ZM91.3469 14.6551H93.1529V24.4551H91.6549L86.2509 17.8191V24.4551H84.4449V14.6551H85.9429L91.3469 21.2911V14.6551ZM95.7789 24.4551V14.6551H100.063C103.241 14.6551 105.411 16.6151 105.411 19.5551C105.411 22.4951 103.241 24.4551 100.063 24.4551H95.7789ZM97.5989 22.9151H99.9789C102.163 22.9151 103.577 21.5851 103.577 19.5551C103.577 17.5251 102.163 16.1951 99.9789 16.1951H97.5989V22.9151ZM115.75 24.5951C112.754 24.5951 110.514 22.4811 110.514 19.5551C110.514 16.6291 112.754 14.5151 115.764 14.5151C117.36 14.5151 118.732 15.0891 119.642 16.1531L118.466 17.2591C117.752 16.4891 116.87 16.1111 115.848 16.1111C113.818 16.1111 112.348 17.5391 112.348 19.5551C112.348 21.5711 113.818 22.9991 115.848 22.9991C116.87 22.9991 117.752 22.6211 118.466 21.8371L119.642 22.9571C118.732 24.0211 117.36 24.5951 115.75 24.5951ZM125.759 24.5951C122.721 24.5951 120.481 22.4531 120.481 19.5551C120.481 16.6571 122.721 14.5151 125.759 14.5151C128.797 14.5151 131.037 16.6431 131.037 19.5551C131.037 22.4671 128.797 24.5951 125.759 24.5951ZM125.759 22.9991C127.733 22.9991 129.203 21.5571 129.203 19.5551C129.203 17.5531 127.733 16.1111 125.759 16.1111C123.785 16.1111 122.315 17.5531 122.315 19.5551C122.315 21.5571 123.785 22.9991 125.759 22.9991ZM139.868 14.6551H141.674V24.4551H140.176L134.772 17.8191V24.4551H132.966V14.6551H134.464L139.868 21.2911V14.6551ZM144.3 24.4551V14.6551H148.584C151.762 14.6551 153.932 16.6151 153.932 19.5551C153.932 22.4951 151.762 24.4551 148.584 24.4551H144.3ZM146.12 22.9151H148.5C150.684 22.9151 152.098 21.5851 152.098 19.5551C152.098 17.5251 150.684 16.1951 148.5 16.1951H146.12V22.9151ZM155.867 24.4551V14.6551H157.687V24.4551H155.867ZM162.325 24.4551V16.1951H159.077V14.6551H167.393V16.1951H164.145V24.4551H162.325ZM168.759 24.4551V14.6551H170.579V24.4551H168.759ZM177.808 24.5951C174.77 24.5951 172.53 22.4531 172.53 19.5551C172.53 16.6571 174.77 14.5151 177.808 14.5151C180.846 14.5151 183.086 16.6431 183.086 19.5551C183.086 22.4671 180.846 24.5951 177.808 24.5951ZM177.808 22.9991C179.782 22.9991 181.252 21.5571 181.252 19.5551C181.252 17.5531 179.782 16.1111 177.808 16.1111C175.834 16.1111 174.364 17.5531 174.364 19.5551C174.364 21.5571 175.834 22.9991 177.808 22.9991ZM191.917 14.6551H193.723V24.4551H192.225L186.821 17.8191V24.4551H185.015V14.6551H186.513L191.917 21.2911V14.6551ZM199.387 24.5951C197.861 24.5951 196.335 24.1191 195.523 23.4191L196.153 22.0051C196.937 22.6351 198.183 23.0831 199.387 23.0831C200.913 23.0831 201.557 22.5371 201.557 21.8091C201.557 19.6951 195.733 21.0811 195.733 17.4411C195.733 15.8591 196.993 14.5151 199.681 14.5151C200.857 14.5151 202.089 14.8231 202.943 15.3831L202.369 16.7971C201.487 16.2791 200.521 16.0271 199.667 16.0271C198.155 16.0271 197.539 16.6151 197.539 17.3571C197.539 19.4431 203.349 18.0851 203.349 21.6831C203.349 23.2511 202.075 24.5951 199.387 24.5951Z" fill="white"/>
<path d="M204.019 1H18.5909C8.87573 1 1.00004 8.87573 1.00008 18.5909C1.00004 28.758 9.24202 37 19.4091 37H204.769C214.472 37 222.307 29.0769 222.198 19.375C222.307 9.25889 214.136 1 204.019 1Z" stroke="white"/>
</svg>
