<svg width="240" height="66" viewBox="0 0 240 66" fill="none" xmlns="http://www.w3.org/2000/svg">
<g filter="url(#filter0_d_27_523)">
<path d="M29.3649 33.76C28.6449 34.176 27.8609 34.336 27.0609 34.336C24.6929 34.336 23.0129 32.672 23.0129 30.4C23.0129 28.08 24.6929 26.464 27.0769 26.464C28.2769 26.464 29.2849 26.864 30.1649 27.744L31.4769 26.464C30.4209 25.264 28.8529 24.64 26.9809 24.64C23.4769 24.64 20.9169 27.056 20.9169 30.4C20.9169 33.744 23.4769 36.16 26.9489 36.16C28.5329 36.16 30.1649 35.68 31.3329 34.736V30.272H29.3649V33.76ZM41.9163 31.776C41.9163 29.104 40.0923 27.36 37.5963 27.36C35.0523 27.36 33.1803 29.184 33.1803 31.728C33.1803 34.272 35.0363 36.112 37.9003 36.112C39.3723 36.112 40.5723 35.632 41.3403 34.72L40.2683 33.488C39.6603 34.112 38.9083 34.416 37.9483 34.416C36.4603 34.416 35.4203 33.616 35.1803 32.368H41.8843C41.9003 32.176 41.9163 31.936 41.9163 31.776ZM37.5963 28.96C38.9083 28.96 39.8523 29.808 40.0123 31.04H35.1643C35.3563 29.792 36.3003 28.96 37.5963 28.96ZM46.4774 36.112C48.8774 36.112 50.3494 35.072 50.3494 33.472C50.3494 30.128 45.0694 31.664 45.0694 29.936C45.0694 29.376 45.6454 28.976 46.8614 28.976C47.6774 28.976 48.4934 29.136 49.3094 29.616L50.0774 28.096C49.3094 27.632 48.0134 27.36 46.8774 27.36C44.5734 27.36 43.1174 28.416 43.1174 30.032C43.1174 33.44 48.3974 31.904 48.3974 33.536C48.3974 34.128 47.8694 34.48 46.6054 34.48C45.5334 34.48 44.3814 34.128 43.6294 33.632L42.8614 35.152C43.6294 35.696 45.0534 36.112 46.4774 36.112ZM55.9918 36.112C57.6558 36.112 58.9838 35.392 59.6398 34.112L58.1038 33.216C57.5918 34.032 56.8238 34.4 55.9758 34.4C54.5038 34.4 53.3838 33.392 53.3838 31.728C53.3838 30.08 54.5038 29.056 55.9758 29.056C56.8238 29.056 57.5918 29.424 58.1038 30.24L59.6398 29.344C58.9838 28.048 57.6558 27.36 55.9918 27.36C53.2878 27.36 51.3678 29.168 51.3678 31.728C51.3678 34.288 53.2878 36.112 55.9918 36.112ZM66.1385 27.36C64.9545 27.36 63.9465 27.744 63.2905 28.448V24.128H61.2905V36H63.2905V31.68C63.2905 29.968 64.2505 29.104 65.6745 29.104C66.9545 29.104 67.7065 29.84 67.7065 31.36V36H69.7065V31.104C69.7065 28.528 68.1865 27.36 66.1385 27.36ZM74.1316 26.112C74.6756 26.112 75.0916 25.712 75.0916 25.152C75.0916 24.576 74.6756 24.176 74.1316 24.176C73.5876 24.176 73.1716 24.576 73.1716 25.152C73.1716 25.712 73.5876 26.112 74.1316 26.112ZM77.2356 26.112C77.7796 26.112 78.1956 25.712 78.1956 25.152C78.1956 24.576 77.7796 24.176 77.2356 24.176C76.6916 24.176 76.2756 24.576 76.2756 25.152C76.2756 25.712 76.6916 26.112 77.2356 26.112ZM75.5076 27.36C74.1316 27.36 72.8036 27.712 71.8916 28.416L72.6756 29.872C73.3156 29.344 74.3076 29.024 75.2676 29.024C76.6916 29.024 77.3956 29.712 77.3956 30.88V31.008H75.1876C72.5956 31.008 71.6356 32.128 71.6356 33.552C71.6356 35.04 72.8676 36.112 74.8196 36.112C76.0996 36.112 77.0276 35.696 77.5076 34.96V36H79.3956V30.992C79.3956 28.528 77.9716 27.36 75.5076 27.36ZM75.2356 34.656C74.2116 34.656 73.6036 34.192 73.6036 33.472C73.6036 32.848 73.9716 32.336 75.3316 32.336H77.3956V33.328C77.0596 34.208 76.2116 34.656 75.2356 34.656ZM85.4344 25.632C85.8504 25.632 86.2344 25.776 86.5384 25.984L87.0984 24.48C86.6504 24.16 85.9784 24.016 85.2904 24.016C83.3064 24.016 82.2344 25.184 82.2344 26.976V27.52H80.8264V29.12H82.2344V36H84.2344V29.12H86.5224V27.52H84.1704V27.008C84.1704 26.096 84.6024 25.632 85.4344 25.632ZM92.4446 34.112C92.1406 34.352 91.7406 34.464 91.3246 34.464C90.5566 34.464 90.1406 34.016 90.1406 33.184V29.12H92.4286V27.52H90.1406V25.568H88.1406V27.52H86.7326V29.12H88.1406V33.232C88.1406 35.12 89.2126 36.112 91.0846 36.112C91.8046 36.112 92.5246 35.92 93.0046 35.536L92.4446 34.112ZM97.2899 36.112C99.6899 36.112 101.162 35.072 101.162 33.472C101.162 30.128 95.8819 31.664 95.8819 29.936C95.8819 29.376 96.4579 28.976 97.6739 28.976C98.4899 28.976 99.3059 29.136 100.122 29.616L100.89 28.096C100.122 27.632 98.8259 27.36 97.6899 27.36C95.3859 27.36 93.9299 28.416 93.9299 30.032C93.9299 33.44 99.2099 31.904 99.2099 33.536C99.2099 34.128 98.6819 34.48 97.4179 34.48C96.3459 34.48 95.1939 34.128 94.4419 33.632L93.6739 35.152C94.4419 35.696 95.8659 36.112 97.2899 36.112ZM107.62 27.36C106.532 27.36 105.572 27.728 104.884 28.496V24.128H102.884V36H104.788V34.896C105.46 35.712 106.452 36.112 107.62 36.112C110.116 36.112 111.956 34.384 111.956 31.728C111.956 29.072 110.116 27.36 107.62 27.36ZM107.396 34.4C105.956 34.4 104.852 33.36 104.852 31.728C104.852 30.096 105.956 29.056 107.396 29.056C108.836 29.056 109.924 30.096 109.924 31.728C109.924 33.36 108.836 34.4 107.396 34.4ZM121.885 31.776C121.885 29.104 120.061 27.36 117.565 27.36C115.021 27.36 113.149 29.184 113.149 31.728C113.149 34.272 115.005 36.112 117.869 36.112C119.341 36.112 120.541 35.632 121.309 34.72L120.237 33.488C119.629 34.112 118.877 34.416 117.917 34.416C116.429 34.416 115.389 33.616 115.149 32.368H121.853C121.869 32.176 121.885 31.936 121.885 31.776ZM117.565 28.96C118.877 28.96 119.821 29.808 119.981 31.04H115.133C115.325 29.792 116.269 28.96 117.565 28.96ZM130.174 24.128V28.512C129.502 27.728 128.526 27.36 127.422 27.36C124.942 27.36 123.102 29.072 123.102 31.728C123.102 34.384 124.942 36.112 127.422 36.112C128.59 36.112 129.582 35.712 130.254 34.896V36H132.174V24.128H130.174ZM127.662 34.4C126.222 34.4 125.118 33.36 125.118 31.728C125.118 30.096 126.222 29.056 127.662 29.056C129.102 29.056 130.206 30.096 130.206 31.728C130.206 33.36 129.102 34.4 127.662 34.4ZM135.799 26.048C136.551 26.048 137.079 25.504 137.079 24.8C137.079 24.144 136.535 23.648 135.799 23.648C135.063 23.648 134.519 24.176 134.519 24.848C134.519 25.52 135.063 26.048 135.799 26.048ZM134.791 36H136.791V27.456H134.791V36ZM144.264 27.36C143.016 27.36 141.976 27.776 141.32 28.56V27.456H139.416V36H141.416V31.68C141.416 29.968 142.376 29.104 143.8 29.104C145.08 29.104 145.832 29.84 145.832 31.36V36H147.832V31.104C147.832 28.528 146.312 27.36 144.264 27.36ZM157.023 27.456V28.592C156.319 27.744 155.263 27.36 154.063 27.36C151.615 27.36 149.743 28.992 149.743 31.472C149.743 33.952 151.615 35.616 154.063 35.616C155.215 35.616 156.223 35.248 156.927 34.48V34.928C156.927 36.656 156.095 37.52 154.207 37.52C153.023 37.52 151.807 37.12 151.055 36.496L150.159 38C151.135 38.8 152.719 39.216 154.319 39.216C157.311 39.216 158.927 37.808 158.927 34.704V27.456H157.023ZM154.367 33.92C152.847 33.92 151.759 32.928 151.759 31.472C151.759 30.032 152.847 29.056 154.367 29.056C155.871 29.056 156.959 30.032 156.959 31.472C156.959 32.928 155.871 33.92 154.367 33.92ZM167.828 27.456V31.776C167.828 33.488 166.884 34.352 165.492 34.352C164.228 34.352 163.492 33.616 163.492 32.064V27.456H161.492V32.336C161.492 34.912 162.98 36.112 165.172 36.112C166.276 36.112 167.284 35.696 167.924 34.912V36H169.828V27.456H167.828ZM177.295 27.36C176.047 27.36 175.007 27.776 174.351 28.56V27.456H172.447V36H174.447V31.68C174.447 29.968 175.407 29.104 176.831 29.104C178.111 29.104 178.863 29.84 178.863 31.36V36H180.863V31.104C180.863 28.528 179.343 27.36 177.295 27.36ZM190.054 27.456V28.592C189.35 27.744 188.294 27.36 187.094 27.36C184.646 27.36 182.774 28.992 182.774 31.472C182.774 33.952 184.646 35.616 187.094 35.616C188.246 35.616 189.254 35.248 189.958 34.48V34.928C189.958 36.656 189.126 37.52 187.238 37.52C186.054 37.52 184.838 37.12 184.086 36.496L183.19 38C184.166 38.8 185.75 39.216 187.35 39.216C190.342 39.216 191.958 37.808 191.958 34.704V27.456H190.054ZM187.398 33.92C185.878 33.92 184.79 32.928 184.79 31.472C184.79 30.032 185.878 29.056 187.398 29.056C188.902 29.056 189.99 30.032 189.99 31.472C189.99 32.928 188.902 33.92 187.398 33.92ZM202.619 31.776C202.619 29.104 200.795 27.36 198.299 27.36C195.755 27.36 193.883 29.184 193.883 31.728C193.883 34.272 195.739 36.112 198.603 36.112C200.075 36.112 201.275 35.632 202.043 34.72L200.971 33.488C200.363 34.112 199.611 34.416 198.651 34.416C197.163 34.416 196.123 33.616 195.883 32.368H202.587C202.603 32.176 202.619 31.936 202.619 31.776ZM198.299 28.96C199.611 28.96 200.555 29.808 200.715 31.04H195.867C196.059 29.792 197.003 28.96 198.299 28.96ZM209.389 27.36C208.141 27.36 207.101 27.776 206.445 28.56V27.456H204.541V36H206.541V31.68C206.541 29.968 207.501 29.104 208.925 29.104C210.205 29.104 210.957 29.84 210.957 31.36V36H212.957V31.104C212.957 28.528 211.437 27.36 209.389 27.36Z" fill="white"/>
<path d="M203.895 7H30.4545C17.501 7 7.00004 17.501 7.00008 30.4545C7.00004 44.0106 17.9894 55 31.5454 55H204.895C217.842 55 228.307 44.4466 228.198 31.5C228.307 18.0011 217.394 7 203.895 7Z" stroke="white" stroke-width="2"/>
</g>
<defs>
<filter id="filter0_d_27_523" x="0" y="0" width="239.198" height="66" filterUnits="userSpaceOnUse" color-interpolation-filters="sRGB">
<feFlood flood-opacity="0" result="BackgroundImageFix"/>
<feColorMatrix in="SourceAlpha" type="matrix" values="0 0 0 0 0 0 0 0 0 0 0 0 0 0 0 0 0 0 127 0" result="hardAlpha"/>
<feOffset dx="2" dy="2"/>
<feGaussianBlur stdDeviation="4"/>
<feComposite in2="hardAlpha" operator="out"/>
<feColorMatrix type="matrix" values="0 0 0 0 0 0 0 0 0 0 0 0 0 0 0 0 0 0 0.11 0"/>
<feBlend mode="normal" in2="BackgroundImageFix" result="effect1_dropShadow_27_523"/>
<feBlend mode="normal" in="SourceGraphic" in2="effect1_dropShadow_27_523" result="shape"/>
</filter>
</defs>
</svg>
