<svg width="162" height="26" viewBox="0 0 162 26" fill="none" xmlns="http://www.w3.org/2000/svg">
<path d="M22.9349 16.2946V10.3946H20.6149V9.29456H26.5549V10.3946H24.2349V16.2946H22.9349ZM28.8305 15.2046H32.7805V16.2946H27.5305V9.29456H32.6405V10.3846H28.8305V12.2046H32.2105V13.2746H28.8305V15.2046ZM40.2097 16.2946H38.8097L37.3797 14.2446C37.2897 14.2546 37.1997 14.2546 37.1097 14.2546H35.5297V16.2946H34.2297V9.29456H37.1097C38.9497 9.29456 40.0897 10.2346 40.0897 11.7846C40.0897 12.8446 39.5497 13.6246 38.5997 13.9946L40.2097 16.2946ZM38.7797 11.7846C38.7797 10.9046 38.1897 10.3946 37.0497 10.3946H35.5297V13.1846H37.0497C38.1897 13.1846 38.7797 12.6646 38.7797 11.7846ZM49.2042 16.2946H47.9742L47.9642 11.6546L45.6642 15.4946H45.0842L42.7842 11.7146V16.2946H41.5442V9.29456H42.6142L45.3942 13.9346L48.1242 9.29456H49.1942L49.2042 16.2946ZM54.365 16.3946C52.195 16.3946 50.595 14.8646 50.595 12.7946C50.595 10.7246 52.195 9.19456 54.365 9.19456C56.535 9.19456 58.135 10.7146 58.135 12.7946C58.135 14.8746 56.535 16.3946 54.365 16.3946ZM54.365 15.2546C55.775 15.2546 56.825 14.2246 56.825 12.7946C56.825 11.3646 55.775 10.3346 54.365 10.3346C52.955 10.3346 51.905 11.3646 51.905 12.7946C51.905 14.2246 52.955 15.2546 54.365 15.2546ZM61.6829 16.3946C60.5929 16.3946 59.5029 16.0546 58.9229 15.5546L59.3729 14.5446C59.9329 14.9946 60.8229 15.3146 61.6829 15.3146C62.7729 15.3146 63.2329 14.9246 63.2329 14.4046C63.2329 12.8946 59.0729 13.8846 59.0729 11.2846C59.0729 10.1546 59.9729 9.19456 61.8929 9.19456C62.7329 9.19456 63.6129 9.41456 64.2229 9.81456L63.8129 10.8246C63.1829 10.4546 62.4929 10.2746 61.8829 10.2746C60.8029 10.2746 60.3629 10.6946 60.3629 11.2246C60.3629 12.7146 64.5129 11.7446 64.5129 14.3146C64.5129 15.4346 63.6029 16.3946 61.6829 16.3946ZM69.8657 15.2046H73.8157V16.2946H68.5657V9.29456H73.6757V10.3846H69.8657V12.2046H73.2457V13.2746H69.8657V15.2046ZM81.2686 16.3946C79.1286 16.3946 77.5286 14.8846 77.5286 12.7946C77.5286 10.7046 79.1286 9.19456 81.2786 9.19456C82.4186 9.19456 83.3986 9.60456 84.0486 10.3646L83.2086 11.1546C82.6986 10.6046 82.0686 10.3346 81.3386 10.3346C79.8886 10.3346 78.8386 11.3546 78.8386 12.7946C78.8386 14.2346 79.8886 15.2546 81.3386 15.2546C82.0686 15.2546 82.6986 14.9846 83.2086 14.4246L84.0486 15.2246C83.3986 15.9846 82.4186 16.3946 81.2686 16.3946ZM88.4177 16.3946C86.2477 16.3946 84.6477 14.8646 84.6477 12.7946C84.6477 10.7246 86.2477 9.19456 88.4177 9.19456C90.5877 9.19456 92.1877 10.7146 92.1877 12.7946C92.1877 14.8746 90.5877 16.3946 88.4177 16.3946ZM88.4177 15.2546C89.8277 15.2546 90.8777 14.2246 90.8777 12.7946C90.8777 11.3646 89.8277 10.3346 88.4177 10.3346C87.0077 10.3346 85.9577 11.3646 85.9577 12.7946C85.9577 14.2246 87.0077 15.2546 88.4177 15.2546ZM98.4957 9.29456H99.7857V16.2946H98.7157L94.8557 11.5546V16.2946H93.5657V9.29456H94.6357L98.4957 14.0346V9.29456ZM101.661 16.2946V9.29456H104.721C106.991 9.29456 108.541 10.6946 108.541 12.7946C108.541 14.8946 106.991 16.2946 104.721 16.2946H101.661ZM102.961 15.1946H104.661C106.221 15.1946 107.231 14.2446 107.231 12.7946C107.231 11.3446 106.221 10.3946 104.661 10.3946H102.961V15.1946ZM109.923 16.2946V9.29456H111.223V16.2946H109.923ZM116.426 15.2546C117.156 15.2546 117.786 14.9846 118.296 14.4246L119.136 15.2246C118.506 15.9546 117.576 16.3646 116.476 16.3946L116.376 16.7846C116.966 16.8546 117.246 17.1946 117.246 17.6246C117.246 18.2046 116.706 18.5746 115.886 18.5746C115.526 18.5746 115.216 18.5046 114.966 18.3646L115.196 17.7746C115.406 17.8846 115.626 17.9346 115.876 17.9346C116.246 17.9346 116.406 17.7946 116.406 17.5746C116.406 17.3846 116.256 17.2446 115.876 17.2446H115.566L115.796 16.3646C113.946 16.1246 112.616 14.6946 112.616 12.7946C112.616 10.7046 114.216 9.19456 116.366 9.19456C117.506 9.19456 118.486 9.60456 119.136 10.3646L118.296 11.1546C117.786 10.6046 117.156 10.3346 116.426 10.3346C114.976 10.3346 113.926 11.3546 113.926 12.7946C113.926 14.2346 114.976 15.2546 116.426 15.2546ZM124.226 8.72456C123.566 8.72456 123.226 8.06456 122.866 8.06456C122.586 8.06456 122.396 8.28456 122.376 8.66456H121.706C121.726 7.84456 122.146 7.32456 122.786 7.32456C123.446 7.32456 123.786 7.98456 124.146 7.98456C124.426 7.98456 124.616 7.77456 124.636 7.41455H125.306C125.286 8.19456 124.866 8.72456 124.226 8.72456ZM123.506 16.3946C121.336 16.3946 119.736 14.8646 119.736 12.7946C119.736 10.7246 121.336 9.19456 123.506 9.19456C125.676 9.19456 127.276 10.7146 127.276 12.7946C127.276 14.8746 125.676 16.3946 123.506 16.3946ZM123.506 15.2546C124.916 15.2546 125.966 14.2246 125.966 12.7946C125.966 11.3646 124.916 10.3346 123.506 10.3346C122.096 10.3346 121.046 11.3646 121.046 12.7946C121.046 14.2246 122.096 15.2546 123.506 15.2546ZM129.954 15.2046H133.904V16.2946H128.654V9.29456H133.764V10.3846H129.954V12.2046H133.334V13.2746H129.954V15.2046ZM137.523 16.3946C136.433 16.3946 135.343 16.0546 134.763 15.5546L135.213 14.5446C135.773 14.9946 136.663 15.3146 137.523 15.3146C138.613 15.3146 139.073 14.9246 139.073 14.4046C139.073 12.8946 134.913 13.8846 134.913 11.2846C134.913 10.1546 135.813 9.19456 137.733 9.19456C138.573 9.19456 139.453 9.41456 140.063 9.81456L139.653 10.8246C139.023 10.4546 138.333 10.2746 137.723 10.2746C136.643 10.2746 136.203 10.6946 136.203 11.2246C136.203 12.7146 140.353 11.7446 140.353 14.3146C140.353 15.4346 139.443 16.3946 137.523 16.3946Z" fill="white"/>
<path d="M148.749 0.65979H12.7273C6.25049 0.65979 1.00003 5.91028 1.00006 12.3871C1.00003 19.1651 6.49471 24.6598 13.2727 24.6598H149.249C155.716 24.6598 160.936 19.3759 160.857 12.9098C160.936 6.16752 155.492 0.65979 148.749 0.65979Z" stroke="white"/>
</svg>
